<svg width="34" height="39" viewBox="0 0 34 39" fill="none" xmlns="http://www.w3.org/2000/svg">
<g clip-path="url(#clip0_185_3308)">
<path d="M24.694 2.27026C24.327 2.27026 23.9666 2.32222 23.6062 2.40989C23.4276 2.4521 23.3334 2.88071 23.1516 2.93916C22.96 3.00085 22.6873 2.69563 22.4957 2.77031C20.8852 3.40674 19.1902 4.41657 16.9984 4.41657C13.8033 4.41657 11.67 2.27026 9.30288 2.27026C4.62386 2.27026 -0.448054 8.94623 0.240324 14.3039C1.00663 20.2785 7.65662 38.2867 12.2447 38.2867C14.5112 38.2867 14.4982 33.7863 15.6574 28.9579C16.1867 26.7499 17.2452 26.4869 17.7745 29.1332C18.7648 34.0915 19.6285 38.2834 21.7489 38.2834C26.3402 38.2834 33.1201 19.103 33.7533 14.3006C33.9838 12.5472 33.5812 10.6509 32.7727 8.89427C32.7337 8.80985 32.4285 8.82284 32.3895 8.73841C32.3083 8.56957 32.7564 8.45592 32.3992 8.14745C31.8959 7.56298 29.4866 7.08566 29.4866 7.08566C29.4866 7.08566 26.1844 2.32222 24.694 2.27026Z" fill="#F3FAFF" stroke="#002036" stroke-width="0.353118" stroke-miterlimit="10"/>
<path d="M30.3958 9.94642C30.3958 9.94642 31.9349 8.43653 32.4155 8.16053C32.4122 8.15729 32.409 8.15404 32.4057 8.15079C31.9024 7.56632 29.4931 7.089 29.4931 7.089C29.4931 7.089 26.259 2.43271 24.7459 2.27686C24.6745 2.32881 24.5933 2.37427 24.5121 2.41323C24.2783 2.66975 24.0283 2.91003 23.7685 3.13733C23.7231 3.20552 23.6873 3.26396 23.6581 3.30942C23.5055 3.5562 23.3659 3.80947 23.2198 4.05949C23.1646 4.30627 23.5217 6.35192 23.5217 6.35192C23.5217 6.35192 23.1938 6.95912 22.3755 7.45592C22.3658 7.61503 23.8497 7.32279 24.0673 7.81635C24.4082 8.59564 24.9147 8.89437 24.9147 8.89437L27.2299 9.76458L28.0936 9.27752L30.3958 9.94642Z" fill="#CFDCE4"/>
<path opacity="0.5" d="M30.5098 10.3133C30.4026 10.3653 30.2955 10.414 30.1786 10.4529C29.7629 10.5991 29.1655 10.5244 28.7304 10.5439C28.2466 10.5666 27.7627 10.6153 27.2789 10.5893C25.3729 10.4854 23.4344 9.00475 22.811 7.20588C22.4051 6.03044 22.5512 4.83877 23.0642 3.79321C21.2329 4.22832 19.5542 5.41999 17.9469 6.29345C15.3297 7.71567 13.4042 5.33881 11.0469 4.69914C8.7934 4.0887 6.71204 4.6894 5.22163 6.55322C3.41951 8.80343 3.39029 12.1349 4.04295 14.8202C4.52027 16.7782 7.90696 30.2698 10.0922 30.4484C12.2775 30.6237 11.8424 24.0322 16.3591 23.7659C18.9535 23.6133 20.0997 24.9024 20.4828 26.9026C20.8887 29.0196 20.7361 30.9971 23.0123 30.8607C25.2885 30.7244 31.5066 20.915 31.3378 14.6936C31.302 13.2746 30.9838 11.7745 30.5098 10.3133Z" fill="white"/>
<path d="M23.0087 3.91675C21.3559 4.42329 19.8266 5.49157 18.3524 6.29035C15.7353 7.71257 13.8098 5.33571 11.4524 4.69604C11.1796 4.62136 10.9069 4.56616 10.6406 4.5272C12.1603 6.19943 14.4105 7.46579 16.5957 7.69633C18.1446 7.86193 19.4304 7.48202 20.9078 7.06315C21.4826 6.9008 22.08 6.76442 22.6775 6.70273C22.4664 5.73835 22.6093 4.78047 23.0087 3.91675Z" fill="white"/>
<path d="M29.9183 22.2041C31.0352 19.6487 31.8048 16.9341 31.7431 14.6904C31.7041 13.2098 31.3567 11.6349 30.8469 10.1121C30.6521 10.2517 30.428 10.3686 30.1813 10.453C29.7656 10.5991 29.1682 10.5244 28.7331 10.5439C28.6487 10.5472 28.561 10.5537 28.4766 10.5569C29.2494 12.0408 29.7267 13.7163 29.9994 15.2164C30.3209 16.9926 30.5482 18.8044 30.2787 20.6001C30.1943 21.1488 30.0676 21.6813 29.9183 22.2041Z" fill="white"/>
<path d="M12.5631 5.16027C13.7417 6.11491 15.2679 6.38117 16.7453 6.11816C18.5117 5.80644 20.4697 4.86804 21.1223 3.35815C19.9014 3.89067 18.5799 4.41669 16.9985 4.41669C13.9723 4.41669 11.8942 2.48794 9.66992 2.28662C10.6408 3.23801 11.498 4.2998 12.5631 5.16027Z" fill="#E6F5FE"/>
<path d="M26.8827 29.1916C26.019 30.4775 23.6876 32.1043 21.8887 31.6172C20.1223 31.1399 19.973 28.6591 19.6353 27.2109C19.4762 26.5291 19.3723 25.3276 18.6352 25.0029C17.8981 24.6782 16.9662 24.7334 16.2713 25.1361C14.8751 25.9446 13.7516 27.5973 13.5081 29.1949C13.2808 30.6885 13.008 32.8089 11.0793 32.8478C10.0662 32.8673 9.54666 31.7568 8.95245 31.0684C7.99132 29.9579 3.69545 22.3663 0.376953 15.1741C1.5946 21.85 7.85819 38.2867 12.245 38.2867C14.5114 38.2867 14.4984 33.7862 15.6576 28.9579C16.1869 26.7499 17.2454 26.4868 17.7747 29.1332C18.7651 34.0915 19.6288 38.2834 21.7491 38.2834C25.0644 38.2834 29.5258 28.2695 31.9839 20.9019C30.3538 24.2496 28.7758 26.3797 26.8827 29.1916Z" fill="#E6F5FE"/>
<path d="M12.8745 14.7585C12.8745 15.7099 12.105 16.4795 11.1536 16.4795C10.2022 16.4795 9.43262 15.7099 9.43262 14.7585C9.43262 13.8072 10.2022 13.0376 11.1536 13.0376C12.105 13.0376 12.8745 13.8072 12.8745 14.7585Z" fill="#002036"/>
<path d="M12.3031 15.2651C12.3031 15.5443 12.0758 15.7716 11.7966 15.7716C11.5173 15.7716 11.29 15.5443 11.29 15.2651C11.29 14.9858 11.5173 14.7585 11.7966 14.7585C12.0758 14.7585 12.3031 14.9858 12.3031 15.2651Z" fill="white"/>
<path d="M11.6149 14.4305C11.6149 14.6123 11.4688 14.7584 11.2869 14.7584C11.1051 14.7584 10.959 14.6123 10.959 14.4305C10.959 14.2487 11.1051 14.1025 11.2869 14.1025C11.4688 14.1058 11.6149 14.2519 11.6149 14.4305Z" fill="white"/>
<path d="M21.9307 14.7585C21.9307 15.7099 22.7002 16.4795 23.6516 16.4795C24.603 16.4795 25.3726 15.7099 25.3726 14.7585C25.3726 13.8072 24.603 13.0376 23.6516 13.0376C22.7035 13.0376 21.9307 13.8072 21.9307 14.7585Z" fill="#002036"/>
<path d="M22.5054 15.2651C22.5054 15.5443 22.7327 15.7716 23.0119 15.7716C23.2912 15.7716 23.5185 15.5443 23.5185 15.2651C23.5185 14.9858 23.2912 14.7585 23.0119 14.7585C22.7327 14.7585 22.5054 14.9858 22.5054 15.2651Z" fill="white"/>
<path d="M23.1938 14.4305C23.1938 14.6123 23.34 14.7584 23.5218 14.7584C23.7036 14.7584 23.8498 14.6123 23.8498 14.4305C23.8498 14.2487 23.7036 14.1025 23.5218 14.1025C23.34 14.1058 23.1938 14.2519 23.1938 14.4305Z" fill="white"/>
<path d="M26.3758 12.2128C25.3757 12.2128 23.6548 11.7322 22.8755 11.125" stroke="#002036" stroke-width="0.529661" stroke-miterlimit="10" stroke-linecap="round" stroke-linejoin="round"/>
<path d="M8.98145 12.2128C9.98154 12.2128 11.7025 11.7322 12.4818 11.125" stroke="#002036" stroke-width="0.529661" stroke-miterlimit="10" stroke-linecap="round" stroke-linejoin="round"/>
<path d="M20.1188 3.96521C20.1188 3.96521 20.0213 4.00742 19.8525 4.07886C19.6804 4.15029 19.4434 4.2542 19.1576 4.38408C19.0115 4.44902 18.8557 4.51721 18.6868 4.58865C18.5212 4.66333 18.3426 4.73801 18.1543 4.80295C17.966 4.8679 17.7776 4.95232 17.5763 5.00752C17.375 5.06597 17.1704 5.12441 16.9659 5.18286C16.7613 5.24131 16.5502 5.27053 16.3457 5.31599C16.1411 5.35171 15.943 5.40691 15.7417 5.4199C15.3456 5.45561 14.9819 5.51731 14.6637 5.51731C14.0305 5.52705 13.6084 5.53354 13.6084 5.53354C13.6084 5.53354 14.0273 5.50432 14.6572 5.46211C14.9722 5.44263 15.3326 5.3647 15.7222 5.3095C15.9171 5.28677 16.1119 5.22183 16.3132 5.17637C16.5113 5.12117 16.7191 5.0822 16.9139 5.01401C17.112 4.94583 17.3068 4.87764 17.5016 4.80945C17.6965 4.74451 17.8783 4.65359 18.0569 4.57891C18.2387 4.50422 18.4076 4.42305 18.5699 4.34187C18.7323 4.26069 18.8849 4.18601 19.0245 4.11458C19.307 3.96846 19.544 3.84832 19.7096 3.76714C19.8752 3.68596 19.9694 3.64051 19.9694 3.64051C20.0571 3.59829 20.1642 3.63401 20.2064 3.72168C20.2486 3.80935 20.2129 3.91651 20.1253 3.95872C20.1253 3.96197 20.1253 3.96197 20.1188 3.96521Z" fill="#002036"/>
<path d="M6.65323 4.39071C6.37399 4.37123 6.03629 4.6245 5.82848 4.7901C5.53624 5.02064 5.35116 5.2869 5.18231 5.61485C5.17257 5.63433 5.19855 5.65057 5.21154 5.63109C5.38688 5.34535 5.64989 5.10506 5.9129 4.90375C6.14344 4.7284 6.48114 4.66022 6.67921 4.4589C6.70519 4.43292 6.6857 4.39396 6.65323 4.39071Z" fill="#002036"/>
<path d="M6.96516 4.64705C6.61773 4.70874 6.23457 4.89383 6.05923 5.21529C6.04949 5.23152 6.06897 5.2575 6.08846 5.24451C6.3742 5.03994 6.67617 4.91331 7.02036 4.85161C7.15674 4.82564 7.09829 4.62107 6.96516 4.64705Z" fill="#002036"/>
<path d="M6.62392 28.1169C6.48754 27.9415 6.30895 27.8214 6.15959 27.6558C5.9745 27.4545 5.83488 27.2044 5.78293 26.9349C5.77968 26.9187 5.7602 26.9252 5.75695 26.9382C5.70175 27.4285 6.06867 28.1169 6.60768 28.1493C6.62716 28.1558 6.63366 28.1298 6.62392 28.1169Z" fill="#002036"/>
<path d="M7.28663 27.8507C7.02686 27.6202 6.66319 27.526 6.44888 27.237C6.43589 27.2176 6.40667 27.2305 6.40992 27.2533C6.50084 27.6299 6.89048 27.8897 7.26714 27.8897C7.28987 27.8897 7.30286 27.867 7.28663 27.8507Z" fill="#002036"/>
<path d="M28.5451 25.5031C28.3892 25.8148 28.334 26.1655 28.1749 26.4804C28.019 26.7857 27.795 27.0454 27.6132 27.3344C27.6099 27.3409 27.6164 27.3507 27.6229 27.3474C28.1295 27.0065 28.6782 26.159 28.6425 25.5291C28.6392 25.4803 28.5678 25.4544 28.5451 25.5031Z" fill="#002036"/>
<path d="M28.269 24.9901C28.2592 24.9609 28.2235 24.9544 28.204 24.9804C28.0936 25.1427 28.0839 25.3311 28.0449 25.5194C28.006 25.7077 27.9508 25.909 27.8793 26.0876C27.8566 26.1428 27.941 26.1688 27.9702 26.1266C28.1781 25.8311 28.4053 25.3538 28.269 24.9901Z" fill="#002036"/>
<path d="M25.8174 18.3921C25.8174 18.8629 25.077 19.246 24.1614 19.246C23.249 19.246 22.5054 18.8629 22.5054 18.3921C22.5054 17.9212 23.2457 17.5381 24.1614 17.5381C25.0738 17.5413 25.8174 17.9212 25.8174 18.3921Z" fill="#F8C2C0"/>
<path d="M12.6147 18.3921C12.6147 18.8629 11.8744 19.246 10.9587 19.246C10.0431 19.246 9.30273 18.8629 9.30273 18.3921C9.30273 17.9212 10.0431 17.5381 10.9587 17.5381C11.8744 17.5381 12.6147 17.9212 12.6147 18.3921Z" fill="#F8C2C0"/>
<path d="M15.5762 19.6388C15.4885 18.7881 16.099 17.6679 17.0471 17.6971C17.9303 17.7263 18.32 18.7426 18.4596 19.4635" stroke="#002036" stroke-width="0.353118" stroke-miterlimit="10" stroke-linecap="round"/>
<path d="M24.9244 2.30933C24.9244 2.30933 23.6548 2.89704 23.1937 4.25107C23.0346 4.71865 23.2782 5.83239 23.5217 6.21554C23.7652 6.5987 22.3755 7.45917 22.3755 7.45917C22.3755 7.45917 24.1614 7.23512 24.1614 7.98844C24.1614 8.93009 26.3759 9.37169 27.1097 9.71588C27.3662 9.83602 28.0936 9.28402 28.0936 9.28402L30.3795 9.87174L32.4089 8.15079" stroke="#002036" stroke-width="0.353118" stroke-miterlimit="10"/>
<path d="M23.4113 3.76074C23.0509 4.57576 23.2262 5.45896 23.4048 6.33891C23.5801 6.86818 22.8755 7.22211 22.3755 7.4559C22.6872 7.42018 22.7327 7.23185 22.3755 7.4559C22.7002 7.39745 23.0509 7.39745 23.4048 7.39745C24.288 7.75138 24.4633 8.80993 25.3465 9.16386C26.0512 9.51779 26.759 9.69313 27.2883 9.51779C28.1715 9.34244 29.23 9.69313 30.1132 9.87172C30.9964 9.87172 32.5713 8.29364 32.4057 8.15077C32.1654 7.7319 29.4931 7.08898 29.4931 7.08898C29.4931 7.08898 29.5028 8.07284 29.1002 7.97543C28.4475 7.81957 27.561 7.64423 27.389 7.81957C26.7428 8.46574 24.4958 6.96884 24.6225 6.63439C24.8887 5.95251 23.4113 3.76074 23.4113 3.76074Z" fill="#BCD6E6"/>
<path d="M30.2428 8.73844C28.9829 8.76442 28.8044 8.21891 27.5542 8.59557C26.3268 8.96574 25.304 8.69948 24.5799 7.58249C23.9045 6.53693 23.9143 5.22512 23.2714 4.1958C23.1155 4.88418 23.2616 5.61152 23.4077 6.33886C23.5603 6.7967 23.0538 7.1214 22.5927 7.35519C22.5538 7.36169 22.4856 7.39091 22.3784 7.4591C22.7031 7.40065 23.0538 7.40065 23.4077 7.40065C24.2909 7.75458 24.4663 8.81312 25.3495 9.16705C26.0541 9.52098 26.762 9.69633 27.2912 9.52098C28.1744 9.34564 29.233 9.69633 30.1162 9.87491C30.5578 9.87491 31.9021 8.54037 32.2787 8.15397C32.2398 8.15072 30.2785 8.73844 30.2428 8.73844Z" fill="#BCD6E6"/>
<path d="M22.4338 7.62141L20.9499 8.09223L21.0051 8.03703L20.768 8.57605L20.7258 8.67021L20.6511 8.60852L20.1966 8.25134L20.255 8.25783L19.4595 8.54682L20.2063 8.14419L20.2355 8.12795L20.268 8.15068L20.7421 8.48513L20.6252 8.5176L20.8297 7.9656L20.8427 7.92988L20.8849 7.91365L22.3104 7.29346L22.4338 7.62141Z" fill="#002036"/>
<path d="M30.4608 9.71899L30.8083 10.4139L30.7596 10.3749L31.1784 10.5502L31.2304 10.573L31.2271 10.6217L31.2109 11.125L31.1719 11.0665L31.987 11.4302L31.1297 11.1834L31.0908 11.1704L31.0875 11.125L31.0713 10.6217L31.1232 10.6964L30.6946 10.5535L30.6719 10.5437L30.6459 10.5145L30.1621 9.91057L30.4608 9.71899Z" fill="#002036"/>
<path d="M21.3041 7.96247L20.3364 7.17668L20.3819 7.18967L19.0474 7.01758H20.3916H20.4111L20.4371 7.03381L21.5086 7.67349L21.3041 7.96247Z" fill="#002036"/>
<path d="M27.1847 9.55347C27.1847 9.55347 27.3146 9.61516 27.5062 9.70933C27.6036 9.75803 27.714 9.80024 27.8341 9.84895C27.9575 9.89766 28.0841 9.94961 28.2173 10.0016C28.7465 10.2061 29.2888 10.401 29.2888 10.401C29.2888 10.401 28.727 10.2906 28.1653 10.1704C28.0224 10.1379 27.8796 10.1055 27.7464 10.073C27.6133 10.0405 27.4834 10.0145 27.3828 9.97883C27.175 9.91714 27.0386 9.87493 27.0386 9.87493L27.1847 9.55347Z" fill="#002036"/>
<path d="M32.5096 8.8749L31.0972 9.86201L32.2791 8.60864L32.5096 8.8749Z" fill="#002036"/>
<path d="M23.4501 2.88728C23.4501 2.88728 23.3656 3.02366 23.2423 3.22822C23.1806 3.33213 23.1059 3.44902 23.028 3.5789C22.9565 3.70879 22.8818 3.84841 22.8072 3.98803C22.5019 4.54653 22.2324 5.131 22.2324 5.131C22.2324 5.131 22.4175 4.51731 22.648 3.91335C22.7032 3.76074 22.7617 3.60813 22.8136 3.46526C22.8721 3.32563 22.9305 3.199 22.976 3.0886C23.0702 2.8678 23.1351 2.72168 23.1351 2.72168L23.4501 2.88728Z" fill="#002036"/>
<path d="M32.8895 9.03398L31.9868 9.54702L32.6655 8.76123L32.8895 9.03398Z" fill="#002036"/>
<path d="M24.853 3.27037C25.1517 3.5756 25.5219 3.83536 25.8661 4.08538C26.1908 4.32242 26.4635 4.44256 26.8629 4.43931C26.8694 4.43931 26.8727 4.43282 26.8727 4.42633C26.8045 4.13084 26.4019 3.9068 26.1811 3.72171C25.8531 3.44571 25.5674 3.09828 25.2102 2.86124C24.9179 2.66966 24.603 3.0171 24.853 3.27037Z" fill="white"/>
<path d="M22.0736 17.3398C21.9989 17.3398 21.9989 17.4567 22.0736 17.4567C22.1483 17.4567 22.1483 17.3398 22.0736 17.3398Z" fill="#002036"/>
<path d="M22.6513 17.2393C22.3688 17.2393 22.3688 17.6744 22.6513 17.6744C22.9338 17.6776 22.9338 17.2393 22.6513 17.2393Z" fill="#002036"/>
<path d="M23.8498 17.1548C23.707 17.1548 23.707 17.3756 23.8498 17.3756C23.9927 17.3756 23.9927 17.1548 23.8498 17.1548Z" fill="#002036"/>
<path d="M23.3985 17.5933C23.181 17.5933 23.181 17.931 23.3985 17.931C23.6161 17.9342 23.6161 17.5933 23.3985 17.5933Z" fill="#002036"/>
<path d="M24.3594 17.7036C24.1159 17.7036 24.1159 18.0803 24.3594 18.0803C24.6029 18.0835 24.6029 17.7036 24.3594 17.7036Z" fill="#002036"/>
<path d="M24.9699 16.9697C24.7783 16.9697 24.7783 17.2685 24.9699 17.2685C25.1614 17.2685 25.1614 16.9697 24.9699 16.9697Z" fill="#002036"/>
<path d="M25.8532 17.2002C25.7039 17.2002 25.7039 17.434 25.8532 17.434C26.0026 17.434 26.0026 17.2002 25.8532 17.2002Z" fill="#002036"/>
<path d="M25.785 17.947C25.7233 17.947 25.7233 18.0444 25.785 18.0444C25.8467 18.0444 25.8467 17.947 25.785 17.947Z" fill="#002036"/>
<path d="M22.5247 18.3237C22.3915 18.3237 22.3915 18.5315 22.5247 18.5315C22.6578 18.5283 22.6578 18.3237 22.5247 18.3237Z" fill="#002036"/>
<path d="M21.9275 17.7944C21.8074 17.7944 21.8074 17.9795 21.9275 17.9795C22.0476 17.9828 22.0476 17.7944 21.9275 17.7944Z" fill="#002036"/>
<path d="M23.4306 18.5024C23.3949 18.5024 23.3949 18.5576 23.4306 18.5576C23.4631 18.5544 23.4631 18.5024 23.4306 18.5024Z" fill="#002036"/>
<path d="M24.1322 18.3271C24.0673 18.3271 24.0673 18.4246 24.1322 18.4246C24.1939 18.4246 24.1939 18.3271 24.1322 18.3271Z" fill="#002036"/>
<path d="M9.26744 17.3398C9.19276 17.3398 9.19276 17.4567 9.26744 17.4567C9.34212 17.4567 9.34212 17.3398 9.26744 17.3398Z" fill="#002036"/>
<path d="M9.84859 17.2393C9.5661 17.2393 9.5661 17.6744 9.84859 17.6744C10.1311 17.6744 10.1278 17.2393 9.84859 17.2393Z" fill="#002036"/>
<path d="M11.0432 17.1548C10.9003 17.1548 10.9003 17.3756 11.0432 17.3756C11.1861 17.3756 11.1861 17.1548 11.0432 17.1548Z" fill="#002036"/>
<path d="M10.5919 17.5933C10.3743 17.5933 10.3743 17.931 10.5919 17.931C10.8094 17.9342 10.8094 17.5933 10.5919 17.5933Z" fill="#002036"/>
<path d="M11.5562 17.7036C11.3127 17.7036 11.3127 18.0803 11.5562 18.0803C11.7965 18.0835 11.7965 17.7036 11.5562 17.7036Z" fill="#002036"/>
<path d="M12.1637 16.9697C11.9721 16.9697 11.9721 17.2685 12.1637 17.2685C12.3553 17.2685 12.3553 16.9697 12.1637 16.9697Z" fill="#002036"/>
<path d="M13.0466 17.2002C12.8972 17.2002 12.8972 17.434 13.0466 17.434C13.1992 17.434 13.1992 17.2002 13.0466 17.2002Z" fill="#002036"/>
<path d="M12.9784 17.947C12.9167 17.947 12.9167 18.0444 12.9784 18.0444C13.0401 18.0444 13.0401 17.947 12.9784 17.947Z" fill="#002036"/>
<path d="M9.7185 18.3237C9.58537 18.3237 9.58537 18.5315 9.7185 18.5315C9.85163 18.5283 9.85163 18.3237 9.7185 18.3237Z" fill="#002036"/>
<path d="M9.12087 17.7944C9.00073 17.7944 9.00073 17.9795 9.12087 17.9795C9.24101 17.9828 9.24101 17.7944 9.12087 17.7944Z" fill="#002036"/>
<path d="M10.6244 18.5024C10.5887 18.5024 10.5887 18.5576 10.6244 18.5576C10.6569 18.5544 10.6569 18.5024 10.6244 18.5024Z" fill="#002036"/>
<path d="M11.3256 18.3271C11.2639 18.3271 11.2639 18.4246 11.3256 18.4246C11.3873 18.4246 11.3873 18.3271 11.3256 18.3271Z" fill="#002036"/>
<path d="M26.8079 18.4375C26.9573 19.048 26.5319 19.9474 25.8468 20.0481C25.2396 20.139 24.8824 19.6 25.0935 19.009C25.587 17.6193 24.9214 16.4666 24.9214 16.4666C24.9214 16.4666 26.4735 17.0575 26.8079 18.4375Z" fill="#B7E2FA"/>
<path d="M25.6387 18.8954C25.8043 17.2588 24.9243 16.4666 24.9243 16.4666C24.9243 16.4666 25.59 17.6193 25.0964 19.009C24.8854 19.6 25.2425 20.1357 25.8497 20.0481C25.9764 20.0286 26.0933 19.9831 26.2004 19.9182C25.8984 19.6714 25.5997 19.2753 25.6387 18.8954Z" fill="#A1DAF8"/>
<path d="M26.3463 18.116C26.4015 18.4861 26.0346 19.2037 26.1158 19.3336C26.2002 19.47 26.3723 19.4538 26.4795 19.3596C26.6483 19.207 26.7912 18.4731 26.3463 18.116Z" fill="white"/>
<path d="M29.7169 1.1923C29.7072 1.0267 29.4799 0.906561 29.3467 1.02346C28.9928 1.33842 28.8792 1.78002 28.759 2.22812C28.6259 2.71842 28.4895 3.33861 28.6389 3.83541C28.6843 3.98478 28.9116 4.02374 29.0025 3.89711C29.2493 3.55941 29.3045 3.12106 29.4019 2.72167C29.5221 2.22812 29.7461 1.70534 29.7169 1.1923Z" fill="#002036"/>
<path d="M31.7306 2.67615C31.3896 2.79954 31.1201 3.03657 30.8409 3.25737C30.5389 3.49441 30.2337 3.75093 29.9674 4.02693C29.8895 4.10811 29.9707 4.26396 30.0811 4.24123C30.4545 4.17305 30.7597 3.96523 31.0584 3.74119C31.3637 3.51065 31.6786 3.2314 31.9124 2.92942C32.0131 2.80279 31.8864 2.6177 31.7306 2.67615Z" fill="#002036"/>
<path d="M33.4576 4.01411C32.5841 4.1375 31.8373 4.60183 30.9313 4.63105C30.7105 4.63755 30.6716 4.91355 30.8047 5.04343C31.1619 5.39736 31.7269 5.29345 32.1685 5.18305C32.714 5.04668 33.2757 4.82263 33.6719 4.4135C33.8212 4.26089 33.6621 3.98489 33.4576 4.01411Z" fill="#002036"/>
</g>
<defs>
<clipPath id="clip0_185_3308">
<rect width="34" height="37.4841" fill="white" transform="translate(0 0.978027)"/>
</clipPath>
</defs>
</svg>
