<svg width="16" height="17" viewBox="0 0 16 17" fill="none" xmlns="http://www.w3.org/2000/svg">
<path d="M8.50017 0.576904C7.06703 0.577168 5.66083 0.966461 4.43158 1.70326C3.20234 2.44006 2.19616 3.49672 1.52037 4.76053C0.844577 6.02434 0.524531 7.4479 0.594368 8.87935C0.664204 10.3108 1.1213 11.6964 1.91691 12.8885C2.71251 14.0805 3.81677 15.0342 5.1119 15.6478C6.40703 16.2615 7.84445 16.512 9.27082 16.3728C10.6972 16.2335 12.059 15.7097 13.211 14.8572C14.363 14.0046 15.262 12.8554 15.812 11.532C16.082 10.8828 15.4352 10.2305 14.7844 10.4949C13.6691 10.9467 12.4307 10.9933 11.2846 10.6267C10.1385 10.26 9.15707 9.50328 8.51105 8.48804C7.86504 7.47281 7.59525 6.26327 7.7486 5.06973C7.90195 3.8762 8.46874 2.77415 9.35042 1.9552L9.41138 1.89186C9.84759 1.39311 9.50084 0.583238 8.8113 0.583238H8.60072L8.54688 0.578488L8.49938 0.576904H8.50017Z" fill="black"/>
</svg>
