<svg width="54" height="27" viewBox="0 0 54 27" fill="none" xmlns="http://www.w3.org/2000/svg">
<g clip-path="url(#clip0_185_2311)">
<path d="M49.6397 4.14045C44.5959 1.21863 37.8762 7.54571 27.1455 7.56842C16.4148 7.54571 9.69511 1.21863 4.65131 4.14045C-0.719905 7.25199 6.42243 26.2084 27.0972 26.2677V26.2684C27.1133 26.2684 27.1294 26.2684 27.1455 26.2684C27.1616 26.2684 27.1777 26.2684 27.1939 26.2684V26.2677C47.8686 26.2084 55.0102 7.25199 49.6397 4.14045Z" fill="#761925"/>
<path d="M39.0579 14.9972C34.1496 12.6599 28.0928 15.9179 27.1457 16.4592C26.1986 15.9172 20.1418 12.6599 15.2335 14.9972C9.85425 17.5586 16.7703 23.4506 16.7703 23.4506L27.0175 24.2007V24.2197L27.145 24.2102L27.2724 24.2197V24.2007L37.5197 23.4506C37.5204 23.4506 44.4372 17.5594 39.0579 14.9972Z" fill="#D61846"/>
<path d="M47.5481 3.43222C42.7505 2.78105 36.4593 7.54871 27.1459 7.56849C18.1116 7.54944 11.92 3.06159 7.17871 3.38754C7.29444 4.8957 7.67459 7.40221 8.92126 8.33758C10.9707 9.87431 17.3747 12.1801 27.3649 12.1801C37.3551 12.1801 43.7591 9.87431 45.8085 8.33758C47.0435 7.411 47.428 4.94477 47.5481 3.43222Z" fill="#E6E6E6"/>
<path d="M47.312 5.19761C42.5444 4.7281 36.3066 9.34193 27.1449 9.36171C18.2578 9.34267 12.1219 4.99984 7.41064 5.16758C7.65163 6.41571 8.09697 7.71951 8.92027 8.33698C10.9697 9.87371 17.3737 12.1795 27.3639 12.1795C37.3541 12.1795 43.7581 9.87371 45.8075 8.33698C46.6257 7.72464 47.0703 6.43695 47.312 5.19761Z" fill="white"/>
<path d="M39.2376 20.1211C38.1851 20.1211 31.658 21.4996 27.146 21.5252C22.6332 21.4996 16.1069 20.1211 15.0543 20.1211C14.0985 20.1211 13.1433 22.1662 12.9609 22.5771C16.6401 24.7716 21.3448 26.2519 27.0984 26.268V26.2687C27.1145 26.2687 27.1306 26.2687 27.1467 26.2687C27.1628 26.2687 27.1789 26.2687 27.1951 26.2687V26.268C32.9479 26.2511 37.6526 24.7716 41.3325 22.5771C41.1486 22.1662 40.1935 20.1211 39.2376 20.1211Z" fill="#E6E6E6"/>
<path d="M39.2368 20.1211C38.1843 20.1211 31.6572 21.4996 27.1452 21.5252C22.6325 21.4996 16.1061 20.1211 15.0536 20.1211C14.5181 20.1211 13.9834 20.7627 13.5835 21.3993C17.166 23.3945 21.6634 24.7159 27.0969 24.7313V24.732C27.113 24.732 27.1291 24.732 27.1452 24.732C27.1613 24.732 27.1774 24.732 27.1936 24.732V24.7313C32.627 24.7159 37.1244 23.3945 40.7069 21.3993C40.3077 20.7627 39.7723 20.1211 39.2368 20.1211Z" fill="white"/>
<path d="M0 5.92314C0.123788 3.85317 2.01796 1.39793 4.43731 0.866888C5.59169 0.551925 7.21192 0.628834 8.57431 1.27121C8.26374 1.29612 7.14087 1.3071 6.56954 1.395C3.90041 1.77369 1.94911 2.77498 0 5.92314Z" fill="#EBBA9C"/>
<path d="M53.9989 5.92321C51.0104 1.09475 47.7677 1.45806 45.4253 1.27128C47.0756 0.49193 49.0891 0.442854 50.9144 1.3914C52.8819 2.45276 53.9161 4.53151 53.9989 5.92321Z" fill="#EBBA9C"/>
<path d="M39.9615 15.5422C39.7088 15.348 39.4099 15.1657 39.0576 14.9972C34.1493 12.6599 28.0925 15.9179 27.1454 16.4592C26.1984 15.9172 20.1415 12.6599 15.2333 14.9972C14.6026 15.2975 14.1426 15.644 13.8188 16.0212C14.2466 16.9844 15.5841 18.5731 19.7651 19.0954C24.7891 19.7231 26.3917 18.8119 26.81 18.4574C27.2282 18.8119 28.8309 19.7231 33.8541 19.0954C38.8496 18.472 39.7857 16.3252 39.9615 15.5422Z" fill="#F74670"/>
</g>
<defs>
<clipPath id="clip0_185_2311">
<rect width="54" height="25.5852" fill="white" transform="translate(0 0.68335)"/>
</clipPath>
</defs>
</svg>
