<svg width="44" height="38" viewBox="0 0 44 38" fill="none" xmlns="http://www.w3.org/2000/svg">
<g clip-path="url(#clip0_185_1673)">
<path d="M29.5871 0.217773C27.1178 0.217773 24.8924 2.45673 21.5594 2.45673C18.2264 2.45673 16.001 0.217773 13.5317 0.217773C8.65069 0.217773 3.36324 7.1819 4.07794 12.7708C4.87733 19.0033 11.8144 37.7888 16.6005 37.7888C18.9648 37.7888 18.9512 33.0941 20.1605 28.0573C20.7126 25.754 21.8168 25.4797 22.3689 28.2403C23.402 33.4125 24.303 37.7854 26.5149 37.7854C31.3044 37.7854 38.3769 17.7771 39.0375 12.7674C39.7759 7.18529 34.3428 0.217773 29.5871 0.217773Z" fill="#F3FAFF" stroke="#002036" stroke-width="0.36836" stroke-miterlimit="10"/>
<path opacity="0.7" d="M15.0254 29.1007C17.3016 29.2836 16.8511 22.4076 21.5627 22.1298C24.2691 21.9706 25.4648 23.3153 25.8645 25.4019C26.2879 27.6103 26.1287 29.6732 28.5032 29.5309C30.8776 29.3886 37.3641 19.1558 37.188 12.6625C37.1067 9.69532 35.85 6.35891 34.4545 3.74736C33.5366 2.03343 31.7041 1.05114 29.7734 1.12227C27.382 1.21033 25.248 2.80233 23.2191 3.90318C20.4924 5.38678 18.4838 2.90733 16.0213 2.24005C13.6705 1.60325 11.4993 2.22989 9.94458 4.17415C8.06467 6.5215 8.03419 9.99679 8.71502 12.798C9.21294 14.8439 12.7492 28.9178 15.0254 29.1007Z" fill="white"/>
<path d="M21.387 5.37326C23.0027 5.54601 24.344 5.1497 25.8852 4.71275C27.379 4.28596 29.0252 4.02853 30.4681 4.7805C33.4184 6.32168 34.8139 10.1323 35.3694 13.2147C35.7048 15.0675 35.9419 16.9576 35.6607 18.8307C35.576 19.4031 35.4439 19.9586 35.2847 20.504C36.4499 17.8382 37.2527 15.0099 37.1884 12.6659C37.1071 9.69874 35.8504 6.36233 34.4549 3.75078C33.5369 2.03685 31.7044 1.05455 29.7737 1.12569C27.3823 1.21375 25.2484 2.80575 23.2195 3.90659C20.4927 5.38681 18.4841 2.90736 16.0216 2.24008C15.7371 2.16217 15.4526 2.10459 15.1748 2.06395C16.7634 3.81175 19.1074 5.12938 21.387 5.37326Z" fill="white"/>
<path d="M16.9291 3.23573C18.1587 4.23157 19.7507 4.50932 21.2919 4.23496C23.1345 3.90978 25.177 2.93088 25.8579 1.35582C24.5843 1.91132 23.2057 2.46005 21.5561 2.46005C18.3992 2.46005 16.2314 0.448045 13.9111 0.238037C14.9273 1.23049 15.8215 2.33473 16.9291 3.23573Z" fill="#E6F5FE"/>
<path d="M31.8671 28.3045C30.9661 29.6459 28.5341 31.3429 26.6576 30.8348C24.8149 30.3369 24.6591 27.749 24.3069 26.2383C24.1409 25.527 24.0325 24.2737 23.2636 23.935C22.4947 23.5963 21.5226 23.6539 20.7977 24.0739C19.3412 24.9173 18.1692 26.6414 17.9118 28.3079C17.6747 29.866 17.3902 32.0779 15.3781 32.1185C14.3213 32.1389 13.7794 30.9804 13.1595 30.2623C12.1569 29.1039 7.67561 21.1846 4.21387 13.6819C5.48408 20.646 12.018 37.7921 16.5942 37.7921C18.9584 37.7921 18.9449 33.0974 20.1541 28.0606C20.7062 25.7573 21.8105 25.483 22.3626 28.2435C23.3957 33.4158 24.2967 37.7887 26.5086 37.7887C29.9669 37.7887 34.621 27.3425 37.1851 19.6569C35.4915 23.1458 33.8419 25.3712 31.8671 28.3045Z" fill="#E6F5FE"/>
<path d="M17.2579 13.2484C17.2579 14.2408 16.4552 15.0436 15.4627 15.0436C14.4703 15.0436 13.6675 14.2408 13.6675 13.2484C13.6675 12.2559 14.4703 11.4531 15.4627 11.4531C16.4552 11.4531 17.2579 12.2559 17.2579 13.2484Z" fill="#002036"/>
<path d="M16.6584 13.7769C16.6584 14.0682 16.4213 14.3053 16.13 14.3053C15.8387 14.3053 15.6016 14.0682 15.6016 13.7769C15.6016 13.4856 15.8387 13.2485 16.13 13.2485C16.4213 13.2485 16.6584 13.4856 16.6584 13.7769Z" fill="white"/>
<path d="M15.9401 12.9063C15.9401 13.096 15.7877 13.2484 15.598 13.2484C15.4083 13.2484 15.2559 13.096 15.2559 12.9063C15.2559 12.7166 15.4083 12.5642 15.598 12.5642C15.7877 12.5642 15.9401 12.7166 15.9401 12.9063Z" fill="white"/>
<path d="M26.7046 13.2484C26.7046 14.2408 27.5074 15.0436 28.4998 15.0436C29.4923 15.0436 30.295 14.2408 30.295 13.2484C30.295 12.2559 29.4923 11.4531 28.4998 11.4531C27.5074 11.4531 26.7046 12.2559 26.7046 13.2484Z" fill="#002036"/>
<path d="M27.3042 13.7769C27.3042 14.0682 27.5413 14.3053 27.8326 14.3053C28.1239 14.3053 28.361 14.0682 28.361 13.7769C28.361 13.4856 28.1239 13.2485 27.8326 13.2485C27.5413 13.2485 27.3042 13.4856 27.3042 13.7769Z" fill="white"/>
<path d="M28.019 12.9063C28.019 13.096 28.1715 13.2484 28.3612 13.2484C28.5508 13.2484 28.7033 13.096 28.7033 12.9063C28.7033 12.7166 28.5508 12.5642 28.3612 12.5642C28.1749 12.5642 28.019 12.7166 28.019 12.9063Z" fill="white"/>
<path d="M30.6204 10.1084C30.1902 8.42153 27.3449 8.39104 27.1519 9.92546" stroke="#002036" stroke-width="0.552523" stroke-miterlimit="10" stroke-linecap="round" stroke-linejoin="round"/>
<path d="M13.5249 10.1084C13.9551 8.42153 16.8003 8.39104 16.9934 9.92546" stroke="#002036" stroke-width="0.552523" stroke-miterlimit="10" stroke-linecap="round" stroke-linejoin="round"/>
<path d="M25.1535 1.87067C25.1535 1.87067 25.0451 1.90793 24.8521 1.97229C24.7572 2.00616 24.6353 2.04003 24.51 2.09423C24.3813 2.14504 24.239 2.20601 24.0798 2.27036C23.7614 2.39569 23.3922 2.56844 22.9823 2.71748C22.7791 2.78861 22.5725 2.87668 22.3557 2.94781C22.1355 3.01555 21.9154 3.08668 21.6918 3.15443C21.4716 3.23233 21.2413 3.26282 21.0177 3.3204C20.7942 3.36444 20.5774 3.43218 20.3606 3.45589C20.1438 3.48299 19.9372 3.51009 19.7374 3.53718C19.5409 3.55751 19.3546 3.59815 19.1785 3.59477C18.4841 3.6117 18.0234 3.62525 18.0234 3.62525C18.0234 3.62525 18.4841 3.59138 19.1751 3.53718C19.3478 3.5338 19.5308 3.48299 19.7272 3.4525C19.9203 3.41863 20.1269 3.38137 20.3403 3.34411C20.5537 3.31024 20.7637 3.23233 20.9839 3.17814C21.2007 3.11039 21.4276 3.06975 21.6376 2.98168C21.8544 2.90377 22.0678 2.82248 22.2812 2.74458C22.4912 2.66667 22.6944 2.56844 22.8909 2.48376C23.2872 2.31779 23.6428 2.1281 23.9612 1.98245C24.1204 1.90793 24.2695 1.84019 24.3982 1.77922C24.5269 1.71486 24.6421 1.68099 24.7369 1.64034C24.9266 1.56582 25.0316 1.52518 25.0316 1.52518C25.1264 1.48792 25.2348 1.53534 25.2721 1.63018C25.3094 1.72502 25.2619 1.83341 25.1671 1.87067C25.1637 1.87067 25.1603 1.87406 25.1603 1.87406L25.1535 1.87067Z" fill="#002036"/>
<path d="M10.7647 2.43299C10.4734 2.41267 10.1211 2.67687 9.90431 2.84962C9.59946 3.09011 9.40639 3.36786 9.23026 3.70997C9.2201 3.7303 9.24719 3.74723 9.26074 3.72691C9.44365 3.42883 9.71802 3.17818 9.99577 2.96817C10.2363 2.78526 10.5885 2.71413 10.7952 2.50412C10.8223 2.47703 10.7985 2.43299 10.7647 2.43299Z" fill="#002036"/>
<path d="M11.0932 2.69718C10.7308 2.76153 10.3311 2.9546 10.1482 3.28994C10.138 3.30687 10.1584 3.33397 10.1787 3.32042C10.4768 3.10703 10.7918 2.97493 11.1508 2.91057C11.2897 2.88347 11.2321 2.67346 11.0932 2.69718Z" fill="#002036"/>
<path d="M10.7338 27.1834C10.5916 27.0005 10.4053 26.8752 10.2495 26.7024C10.0564 26.4924 9.91075 26.2316 9.85655 25.9505C9.85316 25.9335 9.83284 25.9403 9.82945 25.9539C9.77187 26.4653 10.1546 27.1834 10.7169 27.2173C10.7406 27.2207 10.744 27.197 10.7338 27.1834Z" fill="#002036"/>
<path d="M11.4251 26.9058C11.1541 26.6653 10.7747 26.5671 10.5512 26.2656C10.5376 26.2453 10.5071 26.2554 10.5105 26.2825C10.6054 26.6755 11.0084 26.9431 11.4047 26.9464C11.4285 26.9464 11.442 26.9193 11.4251 26.9058Z" fill="#002036"/>
<path d="M33.6009 24.4533C33.4384 24.7784 33.3808 25.1443 33.2148 25.4728C33.0522 25.7912 32.8185 26.0622 32.6288 26.3637C32.6254 26.3704 32.6322 26.3806 32.6424 26.3772C33.1708 26.0216 33.7398 25.1375 33.7059 24.4804C33.6992 24.433 33.628 24.4025 33.6009 24.4533Z" fill="#002036"/>
<path d="M33.3167 23.9183C33.3066 23.8878 33.2693 23.881 33.249 23.9081C33.1338 24.0775 33.1236 24.2739 33.083 24.4704C33.0424 24.6668 32.9848 24.8768 32.9103 25.0631C32.8865 25.1207 32.9746 25.1478 33.0051 25.1038C33.2185 24.7989 33.459 24.301 33.3167 23.9183Z" fill="#002036"/>
<path d="M30.258 1.20362C29.8956 0.939415 29.3333 0.996998 28.9438 1.16975C28.9268 1.17652 28.937 1.20701 28.9539 1.20701C29.1504 1.20701 29.3435 1.18668 29.5399 1.18329C29.7804 1.17991 30.0074 1.24765 30.2445 1.26459C30.2783 1.26459 30.2817 1.22055 30.258 1.20362Z" fill="#002036"/>
<path d="M30.7255 1.76246C30.4308 1.50842 30.0345 1.4881 29.6788 1.60665C29.6382 1.6202 29.645 1.68795 29.689 1.68456C29.9532 1.65407 30.2039 1.70827 30.4376 1.83021C30.5087 1.86747 30.7153 2.03344 30.7526 1.86408C30.7594 1.83021 30.756 1.78617 30.7255 1.76246Z" fill="#002036"/>
<path d="M30.7557 17.0388C30.7557 17.5299 29.9835 17.9296 29.0283 17.9296C28.0731 17.9296 27.3008 17.5299 27.3008 17.0388C27.3008 16.5476 28.0731 16.1479 29.0283 16.1479C29.9835 16.1479 30.7557 16.5476 30.7557 17.0388Z" fill="#F8C2C0"/>
<path d="M16.9833 17.0388C16.9833 17.5299 16.211 17.9296 15.2558 17.9296C14.3006 17.9296 13.5283 17.5299 13.5283 17.0388C13.5283 16.5476 14.3006 16.1479 15.2558 16.1479C16.211 16.1479 16.9833 16.5476 16.9833 17.0388Z" fill="#F8C2C0"/>
<path d="M26.9115 16.0225C26.8336 16.0225 26.8336 16.1444 26.9115 16.1444C26.9894 16.1444 26.9894 16.0225 26.9115 16.0225Z" fill="#002036"/>
<path d="M27.5179 15.9175C27.2232 15.9175 27.2232 16.3748 27.5179 16.3748C27.8126 16.3748 27.8126 15.9175 27.5179 15.9175Z" fill="#002036"/>
<path d="M28.7641 15.8296C28.6151 15.8296 28.6151 16.0599 28.7641 16.0599C28.9132 16.0599 28.9132 15.8296 28.7641 15.8296Z" fill="#002036"/>
<path d="M28.2933 16.29C28.0663 16.29 28.0663 16.6423 28.2933 16.6423C28.5236 16.6423 28.5236 16.29 28.2933 16.29Z" fill="#002036"/>
<path d="M29.2994 16.4019C29.0454 16.4019 29.0454 16.7948 29.2994 16.7948C29.5535 16.7982 29.5535 16.4019 29.2994 16.4019Z" fill="#002036"/>
<path d="M29.9326 15.6365C29.7328 15.6365 29.7328 15.9481 29.9326 15.9481C30.1324 15.9515 30.1324 15.6365 29.9326 15.6365Z" fill="#002036"/>
<path d="M30.8576 15.877C30.7018 15.877 30.7018 16.1208 30.8576 16.1208C31.0134 16.1208 31.0134 15.877 30.8576 15.877Z" fill="#002036"/>
<path d="M30.7865 16.656C30.7222 16.656 30.7222 16.7542 30.7865 16.7542C30.8509 16.7576 30.8509 16.656 30.7865 16.656Z" fill="#002036"/>
<path d="M27.3854 17.0488C27.2465 17.0488 27.2465 17.2656 27.3854 17.2656C27.5243 17.2622 27.5243 17.0488 27.3854 17.0488Z" fill="#002036"/>
<path d="M26.759 16.4968C26.6337 16.4968 26.6337 16.6899 26.759 16.6899C26.8844 16.6933 26.8844 16.4968 26.759 16.4968Z" fill="#002036"/>
<path d="M28.3273 17.2351C28.29 17.2351 28.29 17.2927 28.3273 17.2927C28.3645 17.2893 28.3645 17.2351 28.3273 17.2351Z" fill="#002036"/>
<path d="M29.0586 17.0522C28.9909 17.0522 28.9909 17.1539 29.0586 17.1539C29.1264 17.1539 29.1264 17.0522 29.0586 17.0522Z" fill="#002036"/>
<path d="M13.5521 16.0225C13.4742 16.0225 13.4742 16.1444 13.5521 16.1444C13.6334 16.1444 13.6334 16.0225 13.5521 16.0225Z" fill="#002036"/>
<path d="M14.1585 15.9175C13.8638 15.9175 13.8638 16.3748 14.1585 16.3748C14.4532 16.3748 14.4532 15.9175 14.1585 15.9175Z" fill="#002036"/>
<path d="M15.4087 15.8296C15.2596 15.8296 15.2596 16.0599 15.4087 16.0599C15.5577 16.0599 15.5577 15.8296 15.4087 15.8296Z" fill="#002036"/>
<path d="M14.9378 16.29C14.7108 16.29 14.7108 16.6423 14.9378 16.6423C15.1647 16.6423 15.1647 16.29 14.9378 16.29Z" fill="#002036"/>
<path d="M15.94 16.4019C15.686 16.4019 15.686 16.7948 15.94 16.7948C16.1941 16.7982 16.1941 16.4019 15.94 16.4019Z" fill="#002036"/>
<path d="M16.5737 15.6365C16.3739 15.6365 16.3739 15.9481 16.5737 15.9481C16.7769 15.9515 16.7769 15.6365 16.5737 15.6365Z" fill="#002036"/>
<path d="M17.4982 15.877C17.3424 15.877 17.3424 16.1208 17.4982 16.1208C17.654 16.1208 17.654 15.877 17.4982 15.877Z" fill="#002036"/>
<path d="M17.4272 16.656C17.3628 16.656 17.3628 16.7542 17.4272 16.7542C17.4915 16.7576 17.4915 16.656 17.4272 16.656Z" fill="#002036"/>
<path d="M14.0265 17.0488C13.8876 17.0488 13.8876 17.2656 14.0265 17.2656C14.1654 17.2622 14.1654 17.0488 14.0265 17.0488Z" fill="#002036"/>
<path d="M13.4031 16.4968C13.2778 16.4968 13.2778 16.6899 13.4031 16.6899C13.5284 16.6933 13.5284 16.4968 13.4031 16.4968Z" fill="#002036"/>
<path d="M14.9679 17.2351C14.9306 17.2351 14.9306 17.2927 14.9679 17.2927C15.0051 17.2893 15.0051 17.2351 14.9679 17.2351Z" fill="#002036"/>
<path d="M15.6996 17.0522C15.6353 17.0522 15.6353 17.1539 15.6996 17.1539C15.7674 17.1539 15.7674 17.0522 15.6996 17.0522Z" fill="#002036"/>
<path d="M15.598 20.331C16.2314 22.6682 16.936 25.1307 21.9728 25.1307C27.0096 25.1307 27.7344 21.9433 28.1375 19.972C28.4051 18.6577 28.019 17.2927 26.6641 17.9295C25.5463 18.4545 23.8561 17.3231 21.9728 17.2927C20.1945 17.2622 18.5686 18.2885 17.2544 17.7228C15.6996 17.0522 15.2491 19.0371 15.598 20.331Z" fill="white" stroke="#002036" stroke-width="0.328018" stroke-miterlimit="10" stroke-linecap="round"/>
<path d="M15.7944 21.022H27.7615" stroke="#002036" stroke-width="0.328018" stroke-miterlimit="10" stroke-linecap="round"/>
<path d="M25.0415 23.2983C25.0415 23.847 24.5978 24.2941 24.0456 24.2941H19.9031C19.3543 24.2941 18.9072 23.8504 18.9072 23.2983V19.1523C18.9072 18.6036 19.3543 18.1565 19.9031 18.1565H24.0456C24.5944 18.1565 25.0415 18.6002 25.0415 19.1523V23.2983Z" fill="#C6C6C6" stroke="#002036" stroke-width="0.36836" stroke-miterlimit="10" stroke-linecap="round"/>
<path d="M20.3096 20.9375C20.9193 20.8697 21.5459 20.9713 22.1692 20.9375C23.0025 20.89 23.4191 22.8479 24.2523 22.8614C24.4725 22.123 24.5674 20.7308 24.6351 19.7587C24.6859 19.0745 23.873 18.8272 23.5207 18.8577C23.0533 18.895 23.1278 19.481 21.5256 19.2472C21.2784 19.21 20.794 18.7663 20.0454 19.0813C20.357 19.5758 20.3841 20.1957 20.3164 20.8494C20.313 20.8765 20.3096 20.907 20.3096 20.9375Z" fill="#C6C6C6"/>
<path d="M24.4182 23.0884C23.6527 23.6981 22.7686 23.7624 21.8202 23.8166C20.76 23.8742 19.8116 23.4407 19.5067 22.35C19.1714 21.1407 19.0664 19.8976 19.0427 18.6511C18.9546 18.8002 18.9038 18.9695 18.9038 19.1524V23.295C18.9038 23.8437 19.3509 24.2908 19.8997 24.2908H24.0422C24.591 24.2908 25.0381 23.8471 25.0381 23.295V22.3059C24.8755 22.6176 24.6689 22.8885 24.4182 23.0884Z" fill="#C6C6C6"/>
<path d="M23.6493 22.3566C23.6493 22.6547 23.4054 22.8986 23.1074 22.8986H20.8447C20.5432 22.8986 20.3027 22.6547 20.3027 22.3566V20.094C20.3027 19.7959 20.5466 19.552 20.8447 19.552H23.1074C23.4088 19.552 23.6493 19.7959 23.6493 20.094V22.3566Z" fill="#C6C6C6" stroke="#002036" stroke-width="0.36836" stroke-miterlimit="10" stroke-linecap="round"/>
<path d="M20.2993 21.6692V22.3534C20.2993 22.6515 20.5432 22.8954 20.8413 22.8954H23.1039C23.4054 22.8954 23.6459 22.6515 23.6459 22.3534V21.6692H20.2993Z" fill="#C6C6C6"/>
<path d="M20.9398 22.8612C20.9398 23.1931 20.6722 23.4607 20.3403 23.4607C20.0083 23.4607 19.7407 23.1931 19.7407 22.8612V19.7348C19.7407 19.4028 20.0083 19.1353 20.3403 19.1353C20.6722 19.1353 20.9398 19.4028 20.9398 19.7348V22.8612Z" fill="#C6C6C6" stroke="#002036" stroke-width="0.36836" stroke-miterlimit="10" stroke-linecap="round"/>
<path d="M24.2489 22.8612C24.2489 23.1931 23.9813 23.4607 23.6493 23.4607C23.3174 23.4607 23.0498 23.1931 23.0498 22.8612V19.7348C23.0498 19.4028 23.3174 19.1353 23.6493 19.1353C23.9813 19.1353 24.2489 19.4028 24.2489 19.7348V22.8612Z" fill="#C6C6C6" stroke="#002036" stroke-width="0.36836" stroke-miterlimit="10" stroke-linecap="round"/>
<path d="M22.7823 20.1515C22.7823 20.3852 22.5926 20.5749 22.3589 20.5749H21.6476C21.4138 20.5749 21.2275 20.3852 21.2275 20.1515C21.2275 19.9177 21.4172 19.7314 21.6476 19.7314H22.3589C22.5926 19.7314 22.7823 19.9211 22.7823 20.1515Z" fill="#E2E1E1"/>
<path d="M24.2727 18.5562C24.2727 18.6646 24.1542 18.7526 24.0085 18.7526H19.9405C19.7948 18.7526 19.6763 18.6646 19.6763 18.5562C19.6763 18.4478 19.7948 18.3597 19.9405 18.3597H24.0119C24.1576 18.3563 24.2727 18.4478 24.2727 18.5562Z" fill="#E2E1E1"/>
<path d="M23.8459 19.552C23.9543 19.552 24.0423 19.6265 24.0423 19.7214V22.3261C24.0423 22.4176 23.9543 22.4955 23.8459 22.4955C23.7375 22.4955 23.6494 22.421 23.6494 22.3261V19.7214C23.6494 19.6265 23.7375 19.552 23.8459 19.552Z" fill="#E2E1E1"/>
<path d="M20.5364 19.552C20.6448 19.552 20.7362 19.6265 20.7362 19.7214V22.3261C20.7362 22.4176 20.6482 22.4955 20.5364 22.4955C20.428 22.4955 20.3399 22.421 20.3399 22.3261V19.7214C20.3365 19.6265 20.428 19.552 20.5364 19.552Z" fill="#E2E1E1"/>
<path d="M16.4111 21.0222L16.5737 19.0034L16.7397 21.0222H16.4111Z" fill="#002036"/>
<path d="M18.1318 21.0221L18.2944 19.1321L18.4604 21.0221H18.1318Z" fill="#002036"/>
<path d="M17.9384 21.022L17.7724 23.4608L17.6099 21.022H17.9384Z" fill="#002036"/>
<path d="M26.0205 21.0221L26.1831 19.1321L26.3491 21.0221H26.0205Z" fill="#002036"/>
<path d="M26.6879 21.022L26.522 22.8612L26.3594 21.022H26.6879Z" fill="#002036"/>
<path d="M43.8173 20.4023H25.0928V22.0147H43.8173V20.4023Z" fill="#C6C6C6" stroke="#002036" stroke-width="0.36836" stroke-miterlimit="10" stroke-linecap="round"/>
<path d="M43.8173 21.4185H25.0928V22.018H43.8173V21.4185Z" fill="#C6C6C6"/>
<path d="M43.4341 20.8188C43.4341 20.9272 43.3156 21.0186 43.1699 21.0186H25.8443C25.6986 21.0186 25.5801 20.9306 25.5801 20.8188C25.5801 20.7104 25.6986 20.6223 25.8443 20.6223H43.1699C43.319 20.6223 43.4341 20.7104 43.4341 20.8188Z" fill="#E2E1E1"/>
<path d="M18.9077 20.4023H0.183105V22.0147H18.9077V20.4023Z" fill="#C6C6C6" stroke="#002036" stroke-width="0.36836" stroke-miterlimit="10" stroke-linecap="round"/>
<path d="M18.9077 21.4185H0.183105V22.018H18.9077V21.4185Z" fill="#C6C6C6"/>
<path d="M18.5284 20.8188C18.5284 20.9272 18.4098 21.0186 18.2642 21.0186H0.93852C0.792869 21.0186 0.674316 20.9306 0.674316 20.8188C0.674316 20.7104 0.792869 20.6223 0.93852 20.6223H18.2642C18.4098 20.6223 18.5284 20.7104 18.5284 20.8188Z" fill="#E2E1E1"/>
</g>
<defs>
<clipPath id="clip0_185_1673">
<rect width="44" height="37.9403" fill="white" transform="translate(0 0.0349121)"/>
</clipPath>
</defs>
</svg>
