<svg width="37" height="39" viewBox="0 0 37 39" fill="none" xmlns="http://www.w3.org/2000/svg">
<g clip-path="url(#clip0_161_846)">
<path d="M37 26.5829L21.2086 15.9546L0 28.3299L15.792 38.9576L37 26.5829Z" fill="#C4C443"/>
<path d="M14.6945 34.5233L11.5484 36.3767L3.38037 30.9155L6.50022 29.045L3.66524 27.1498L19.0105 17.9487L33.1368 27.5565L17.7921 36.5946L14.6945 34.5233Z" fill="#807E89"/>
<path d="M19.0025 18.239L32.6803 27.5419L17.8013 36.3059L14.7037 34.2352L11.5576 36.0886L3.83744 30.9272L6.95729 29.0566L4.12231 27.1615L19.0025 18.239ZM19.0191 17.6589L18.7508 17.8197L3.87119 26.7416L3.20878 27.1386L3.8506 27.5676L6.04376 29.0337L3.58575 30.5073L2.92334 30.9043L3.56516 31.3333L11.2847 36.4941L11.5398 36.6646L11.8047 36.5084L14.6866 34.8112L17.529 36.7115L17.7841 36.882L18.0489 36.7258L32.9286 27.9618L33.5938 27.5699L32.9555 27.1357L19.2777 17.8345L19.0191 17.6589Z" fill="#EAE3E1"/>
<path opacity="0.4" d="M18.7412 34.7625L23.6246 34.3118L35.4862 27.4142L31.0004 24.6033L23.85 27.1419L20.7427 28.3054L19.9962 29.4855L18.7635 32.003L18.7412 34.7625Z" fill="#382C36"/>
<path d="M18.7406 34.7297L6.51807 26.6252V8.50903L18.7406 16.6135V34.7297Z" fill="#F4F5F7"/>
<path d="M18.7406 34.7396L6.51807 26.6351V25.3972L18.7406 33.5023V34.7396Z" fill="#CAE2EF"/>
<path opacity="0.1" d="M16.5112 33.2595L16.5604 24.5217L17.7548 27.2921V29.0282L16.8316 28.4596L16.8379 33.4791L16.5112 33.2595Z" fill="#382C36"/>
<path d="M18.7406 17.2165L6.51807 9.09536V8.50903L18.7406 16.6135V17.2165Z" fill="#BDCAD3"/>
<path d="M18.7407 34.7318L31.0599 27.5534V9.43726L18.7407 16.6157V34.7318Z" fill="#BDCAD3"/>
<path d="M16.1001 33.577L16.5428 33.2549V26.4209L16.1001 26.6457V33.577Z" fill="#CACAC8"/>
<path d="M31.0604 9.43752L18.8378 1.33301L6.5249 8.50912L18.7475 16.6136L31.0604 9.43752Z" fill="#F99770"/>
<path d="M18.7406 19.136L6.51807 11.0315V9.79419L18.7406 17.8981V19.136Z" fill="#CAE2EF"/>
<path d="M18.7407 19.1386L31.0599 11.9602V10.7229L18.7407 17.9007V19.1386Z" fill="#4B7CA4"/>
<path d="M18.7407 34.7416L31.0599 27.5632V26.3259L18.7407 33.5043V34.7416Z" fill="#4B7CA4" stroke="#4B7CA4" stroke-width="0.0489142" stroke-miterlimit="10"/>
<path d="M31.3656 9.43746V8.85685L18.8531 1.1499L6.21924 7.92845V8.50906L18.7324 16.7966L31.3656 9.43746Z" fill="#EBF2FA"/>
<path d="M18.8529 1.1499L18.7322 16.3745L18.7202 16.9471L18.7322 16.7966L31.3655 9.43746V8.85685L18.8529 1.1499Z" fill="#CACAC8"/>
<path d="M31.3656 8.85665L18.8531 0.569092L6.21924 7.92825L18.7324 16.2164L31.3656 8.85665Z" fill="white"/>
<path d="M30.3417 8.85728L18.8022 1.18408L7.24316 7.92831L18.7827 15.6015L30.3417 8.85728Z" fill="#D4D4D4"/>
<path d="M18.8022 1.18408L7.24316 7.92831L8.00396 8.40824L18.8022 2.09933V1.18408Z" fill="#C7C7C7"/>
<path d="M18.8022 2.09933L29.581 9.29203L30.3418 8.85728L18.8022 1.18408V2.09933Z" fill="#F4F5F7"/>
<path opacity="0.1" d="M8.53809 27.9523V19.2146L9.73306 21.9849V23.7216L8.8098 23.153L8.81552 28.1726L8.53809 27.9523Z" fill="#7466A4"/>
<path d="M9.26807 28.3208V21.6206L15.2092 25.5327V32.2363L9.26807 28.3208Z" fill="#435A5E"/>
<path d="M9.39706 21.8596L15.0802 25.6024V31.9971L9.39706 28.2515V21.8596ZM9.13965 21.3809V21.8596V28.2509V28.3899L9.25577 28.4666L14.9389 32.2122L15.3387 32.4759V31.9971V25.6024V25.4634L15.2226 25.3868L9.5395 21.644L9.13965 21.3809Z" fill="#EAE3E1"/>
<path opacity="0.6" d="M13.4268 30.7405L13.5366 27.8054L10.8818 26.8152V29.061L13.4268 30.7405Z" fill="#435A5E"/>
<path opacity="0.1" d="M19.1763 15.3768L8.32833 8.17324L7.23633 7.92212L18.7805 15.6039L19.1763 15.3768Z" fill="#382C36"/>
<g opacity="0.8">
<path d="M7.12651 15.4742L17.9178 22.5942V23.8721L7.12651 16.8053V15.4742ZM6.89941 15.052V15.4736L7.04585 17.0255L18.3406 24.3892V19.7592L18.1873 19.4086L7.25121 15.2842L6.89941 15.052Z" fill="#BDCAD3"/>
</g>
<path d="M6.99756 16.6765V12.1975L18.0469 19.488V23.9121L6.99756 16.6765Z" fill="#435A5E"/>
<path d="M7.12664 12.4371L17.918 19.5572V23.6735L7.12664 16.6066V12.4371ZM6.86865 11.9578V12.4371V16.6066V16.7462L6.98535 16.8229L17.7767 23.8892L18.176 24.1506V23.6735V19.5572V19.4182L18.0598 19.3415L7.2685 12.222L6.86865 11.9578Z" fill="#EAE3E1"/>
<path d="M7.70053 17.1456L6.99121 16.6633V12.2358L7.70053 12.7186V17.1456Z" fill="#EAE3E1"/>
<path d="M11.1347 19.397L10.4248 18.9148V14.4873L11.1347 14.9701V19.397Z" fill="#EAE3E1"/>
<path d="M14.5688 21.6485L13.8589 21.1663V16.7388L14.5688 17.2216V21.6485Z" fill="#EAE3E1"/>
<path d="M18.0028 23.9L17.2935 23.4177V18.9902L18.0028 19.473V23.9Z" fill="#EAE3E1"/>
<path d="M8.41057 16.6065L7.70068 16.9863V12.8174L8.41057 13.2893V16.6065Z" fill="#BDCAD3"/>
<path d="M8.41057 16.6067L7.70068 16.9865L10.4253 18.7758V17.8932L8.41057 16.6067Z" fill="white"/>
<path d="M11.8441 18.8674L11.1348 19.2472V15.0789L11.8441 15.5508V18.8674Z" fill="#BDCAD3"/>
<path d="M11.8441 18.8672L11.1348 19.247L13.8588 21.0369L13.8593 20.1543L11.8441 18.8672Z" fill="white"/>
<path d="M15.2757 21.133L14.5664 21.5129V17.3445L15.2757 17.8164V21.133Z" fill="#BDCAD3"/>
<path d="M15.2757 21.1333L14.5664 21.5131L17.2904 23.303L17.291 22.4198L15.2757 21.1333Z" fill="white"/>
<path d="M10.4787 29.2811L10.2207 29.1164V25.7585H10.4787V29.2811Z" fill="#EAE3E1"/>
<path d="M14.0861 31.5186L13.8281 31.3533V27.4509H14.0861V31.5186Z" fill="#EAE3E1"/>
<path d="M10.882 29.0609L10.624 28.8961V24.9932H10.882V29.0609Z" fill="#EAE3E1"/>
<path d="M13.6584 30.8829L13.4004 30.7181V26.8152H13.6584V30.8829Z" fill="#EAE3E1"/>
<path d="M9.46209 17.277L9.2041 17.1116V13.7544H9.46209V17.277Z" fill="#EAE3E1"/>
<path d="M12.8962 19.5617L12.6382 19.3964V16.0386H12.8962V19.5617Z" fill="#EAE3E1"/>
<path d="M16.3726 21.8464L16.1152 21.6811V18.3232H16.3726V21.8464Z" fill="#EAE3E1"/>
<g opacity="0.8">
<path opacity="0.5" d="M30.3558 16.4792V17.8183L19.5645 23.9516V22.6737L30.3558 16.4792ZM30.5829 16.0742L30.2306 16.2779L19.4392 22.4729L19.3374 22.5313V22.6537V23.9316V24.3515L19.6886 24.153L30.48 18.0203L30.5824 17.9613V17.8378V16.4987V16.0742H30.5829Z" fill="#ADA17C"/>
</g>
<path d="M19.4346 19.5558L30.4845 13.1948V17.7001L19.4346 23.9804V19.5558Z" fill="#303A3A"/>
<path d="M30.355 13.4256V17.6197L19.5636 23.7536V19.6372L30.355 13.4256ZM30.613 12.9651L30.2131 13.1968L19.4218 19.409L19.3057 19.4754V19.6144V23.7307V24.2078L19.7049 23.9824L30.4963 17.8491L30.613 17.7821V17.642V13.4473V12.9651Z" fill="#D1CAC8"/>
<path d="M29.7808 18.1109L30.4901 17.6876V13.2344L29.7808 13.6594V18.1109Z" fill="#D1CAC8"/>
<path d="M26.3462 20.0732L27.0561 19.6511V15.2058L26.3462 15.6297V20.0732Z" fill="#D1CAC8"/>
<path d="M22.9126 22.0269L23.6225 21.6064V17.1692L22.9126 17.5913V22.0269Z" fill="#D1CAC8"/>
<path d="M19.479 23.9725L20.1883 23.5543V19.1245L19.479 19.545V23.9725Z" fill="#D1CAC8"/>
<path d="M29.0708 17.5075L29.7807 17.9508V13.7595L29.0708 14.1639V17.5075Z" fill="#A4B1BA"/>
<path d="M29.0708 17.5076L29.7807 17.9509L27.0562 19.512V18.6253L29.0708 17.5076Z" fill="#E6E6E6"/>
<path d="M25.6375 19.4792L26.3468 19.9225V15.7324L25.6323 16.146L25.6375 19.4792Z" fill="#A4B1BA"/>
<path d="M25.6372 19.4792L26.3466 19.9226L23.6226 21.4768V20.5924L25.6372 19.4792Z" fill="#E6E6E6"/>
<path d="M22.2056 21.4475L22.9149 21.8908V17.7087L22.2056 18.12V21.4475Z" fill="#A4B1BA"/>
<path d="M22.2057 21.4478L22.915 21.8911L20.191 23.439L20.1904 22.5558L22.2057 21.4478Z" fill="#E6E6E6"/>
<path d="M28.0205 18.0903L28.2779 17.9468V14.5735L28.0205 14.5518V18.0903Z" fill="#D1CAC8"/>
<path d="M24.5854 20.0831L24.8434 19.9401V16.5726L24.5854 16.5503V20.0831Z" fill="#D1CAC8"/>
<path d="M21.1099 22.0641L21.3678 21.9216V18.5604L21.1099 18.5381V22.0641Z" fill="#D1CAC8"/>
<path d="M16.1003 33.577L15.8721 33.4329V26.8763L16.1003 26.7458V33.577Z" fill="#F4F5F7"/>
<g opacity="0.1">
<path d="M16.1009 28.2646V26.6451L16.249 26.5696L16.2147 26.4192L15.8069 26.4684C15.8069 26.4684 15.1874 26.6966 15.1056 26.7126C15.0243 26.7292 14.2578 27.0879 14.2578 27.0879L15.7743 27.8052V28.1153L16.1009 28.2646Z" fill="#7466A4"/>
</g>
<g opacity="0.8">
<path opacity="0.5" d="M30.3558 23.1205V24.4596L19.5645 30.5929V29.315L30.3558 23.1205ZM30.5829 22.7161L30.2306 22.9197L19.4392 29.1148L19.3374 29.1731V29.2955V30.5735V30.9933L19.6886 30.7948L30.48 24.6621L30.5824 24.6032V24.4796V23.1405V22.7161H30.5829Z" fill="#ADA17C"/>
</g>
<path d="M19.4346 26.1974L30.4845 19.8364V24.3417L19.4346 30.6215V26.1974Z" fill="#303A3A"/>
<path d="M30.355 20.0664V24.2605L19.5636 30.3949V26.278L30.355 20.0664ZM30.613 19.6064L30.2131 19.8381L19.4218 26.0504L19.3057 26.1167V26.2557V30.372V30.8491L19.7049 30.6237L30.4963 24.4899L30.613 24.4229V24.2828V20.0881V19.6064Z" fill="#D1CAC8"/>
<path d="M29.7808 24.7524L30.4901 24.3285V19.8752L29.7808 20.3008V24.7524Z" fill="#D1CAC8"/>
<path d="M26.3462 26.7146L27.0561 26.2924V21.8472L26.3462 22.271V26.7146Z" fill="#D1CAC8"/>
<path d="M22.9126 28.6685L23.6225 28.2481V23.8103L22.9126 24.2325V28.6685Z" fill="#D1CAC8"/>
<path d="M19.479 30.6141L20.1883 30.1953V25.7661L19.479 26.186V30.6141Z" fill="#D1CAC8"/>
<path d="M29.0708 24.1491L29.7807 24.5924V20.4011L29.0708 20.8153V24.1491Z" fill="#A4B1BA"/>
<path d="M29.0708 24.1489L29.7807 24.5922L27.0562 26.1527V25.2667L29.0708 24.1489Z" fill="#E6E6E6"/>
<path d="M25.6372 26.1209L26.3465 26.5642V22.3804L25.6372 22.7928V26.1209Z" fill="#A4B1BA"/>
<path d="M25.6372 26.1208L26.3466 26.5642L23.6226 28.1184V27.2334L25.6372 26.1208Z" fill="#E6E6E6"/>
<path d="M22.2056 28.0893L22.9149 28.5326V24.3562L22.2056 24.7669V28.0893Z" fill="#A4B1BA"/>
<path d="M22.2057 28.0894L22.915 28.5327L20.191 30.0806L20.1904 29.1974L22.2057 28.0894Z" fill="#E6E6E6"/>
<path d="M28.0205 24.732L28.2779 24.5884V21.2152L28.0205 21.1929V24.732Z" fill="#D1CAC8"/>
<path d="M24.5854 26.7244L24.8434 26.582V23.2144L24.5854 23.1921V26.7244Z" fill="#D1CAC8"/>
<path d="M21.1099 28.7052L21.3678 28.5633V25.2015L21.1099 25.1792V28.7052Z" fill="#D1CAC8"/>
<path d="M8.12793 28.2211L8.57068 27.9963V21.1628L8.12793 21.3876V28.2211Z" fill="#CACAC8"/>
<path d="M8.12765 28.2211L7.89941 28.077V21.6182L8.12765 21.4878V28.2211Z" fill="#F4F5F7"/>
<path d="M16.5606 26.4891V24.9377L5.01709 23.0317L13.1245 28.4386L16.5606 26.4891Z" fill="#CACAC8"/>
<path d="M13.1308 26.1989L5.01709 21.4802V23.0316L13.1245 28.4384L13.1308 26.1989Z" fill="#F4F5F7"/>
<path d="M16.5602 24.9377L8.35561 19.4817L4.91943 21.4312L13.124 26.8872L16.5602 24.9377Z" fill="#DCDEE2"/>
<path d="M16.6582 24.8778V24.542L8.40099 19.6724L4.91504 21.119V21.4548L13.1723 26.9051L16.6582 24.8778Z" fill="#EBF2FA"/>
<path d="M8.40137 19.7209L13.1727 26.6185L13.1601 26.9462L13.1727 26.9543L16.6586 24.927V24.5912L8.40137 19.7209Z" fill="#CACAC8"/>
<path d="M16.6582 24.5418L8.40099 19.0916L4.91504 21.1188L13.1723 26.5691L16.6582 24.5418Z" fill="white"/>
<path d="M15.6342 24.5425L8.35056 19.7065L5.93945 21.1189L13.2231 25.9548L15.6342 24.5425Z" fill="#D4D4D4"/>
<path d="M8.35056 19.7065L5.93945 21.1189L6.27295 21.3488L8.35056 20.1321V19.7065Z" fill="#C7C7C7"/>
<path d="M8.3501 20.1321L15.2482 24.761L15.6337 24.5425L8.3501 19.7065V20.1321Z" fill="#F4F5F7"/>
<path d="M6.39502 23.2671L6.35269 23.4673L6.21826 23.3763L6.39902 22.6069L6.57006 22.7231L6.74167 23.7293L6.60209 23.6349L6.55976 23.3775L6.39502 23.2671ZM6.54146 23.2161L6.50714 23.0039C6.49741 22.9444 6.48769 22.8718 6.47911 22.8129L6.47739 22.8117C6.46824 22.8586 6.45966 22.9198 6.44993 22.965L6.41447 23.1303L6.54146 23.2161Z" fill="#00A200"/>
<path d="M7.35803 23.8069C7.35689 23.6994 7.35574 23.5701 7.35689 23.442L7.3546 23.4403C7.33515 23.5404 7.30998 23.6491 7.2871 23.7377L7.21331 24.034L7.11206 23.966L7.05428 23.5833C7.03655 23.4672 7.01825 23.3281 7.00566 23.204L7.00395 23.2029C6.99937 23.3196 6.99536 23.454 6.99022 23.561L6.97706 23.8893L6.85693 23.8081L6.90155 22.9495L7.07488 23.0673L7.12808 23.3996C7.14524 23.5141 7.16183 23.6359 7.17327 23.7474L7.17555 23.7492C7.19271 23.6582 7.21388 23.5552 7.23333 23.47L7.29797 23.2195L7.46786 23.335L7.48903 24.2348L7.36204 24.149L7.35803 23.8069Z" fill="#00A200"/>
<path d="M7.6519 23.4717C7.68622 23.4843 7.75544 23.5237 7.82065 23.5678C7.90016 23.6221 7.94878 23.6667 7.98997 23.7325C8.02944 23.792 8.05804 23.8715 8.05689 23.9505C8.05575 24.0283 8.02486 24.0803 7.95965 24.0729V24.0752C8.02486 24.1467 8.07234 24.2548 8.07062 24.3675C8.06948 24.4464 8.04488 24.4928 8.00827 24.5128C7.96594 24.5351 7.89558 24.5168 7.78175 24.4396C7.71768 24.3967 7.6702 24.3578 7.6416 24.332L7.6519 23.4717ZM7.77088 24.2828C7.78346 24.2943 7.79891 24.3046 7.82122 24.3194C7.88014 24.3589 7.93219 24.3606 7.93391 24.2685C7.93505 24.1804 7.88357 24.1101 7.81893 24.066L7.77431 24.0357L7.77088 24.2828ZM7.7766 23.8944L7.8195 23.9236C7.88757 23.9699 7.92476 23.9522 7.9259 23.887C7.92704 23.8206 7.89387 23.7634 7.83495 23.7234C7.80692 23.7039 7.79033 23.6959 7.77946 23.6908L7.7766 23.8944Z" fill="#00A200"/>
<path d="M8.34902 23.9345L8.34101 24.4355C8.33872 24.5854 8.37476 24.6872 8.44112 24.7319C8.50919 24.7776 8.54809 24.7313 8.55037 24.5774L8.55895 24.0775L8.6888 24.1656L8.68022 24.6523C8.67565 24.9201 8.58355 24.9876 8.43425 24.8863C8.28953 24.7885 8.20658 24.6094 8.21059 24.3314L8.21802 23.8452L8.34902 23.9345Z" fill="#00A200"/>
<path d="M8.85342 24.2778L8.98441 24.3665L8.97069 25.0672L9.19892 25.2211L9.19549 25.3853L8.8374 25.1439L8.85342 24.2778Z" fill="#00A200"/>
<path d="M9.46681 25.3446L9.42105 25.538L9.28662 25.4476L9.48111 24.7051L9.65215 24.8212L9.81003 25.8005L9.67045 25.7067L9.63098 25.4562L9.46681 25.3446ZM9.61611 25.2977L9.58465 25.0912C9.5755 25.0334 9.56692 24.9625 9.55948 24.9059L9.55776 24.9047C9.54804 24.9499 9.53831 25.0094 9.52745 25.0529L9.48912 25.2125L9.61611 25.2977Z" fill="#00A200"/>
<path d="M9.93701 25.8864L9.95818 25.0295L10.1103 25.1331L10.2219 25.5272C10.2539 25.6405 10.2848 25.7697 10.3077 25.8836L10.31 25.8853C10.3043 25.7669 10.3048 25.6496 10.3083 25.5221L10.3151 25.2727L10.4347 25.3539L10.4112 26.2062L10.2751 26.1147L10.1612 25.7022C10.1298 25.5878 10.0949 25.4523 10.0692 25.3327L10.0669 25.3321C10.0674 25.4471 10.0663 25.569 10.0623 25.7085L10.056 25.9665L9.93701 25.8864Z" fill="#00A200"/>
<path d="M10.9973 26.5768C10.9727 26.5785 10.919 26.5613 10.8492 26.5139C10.6513 26.3806 10.554 26.1283 10.5609 25.8858C10.5689 25.5952 10.7136 25.5288 10.8881 25.6472C10.9556 25.693 11.0059 25.7479 11.0288 25.7811L10.9979 25.9155C10.9722 25.8812 10.9356 25.8411 10.8898 25.8097C10.7863 25.7393 10.7039 25.7771 10.6982 25.9664C10.693 26.1369 10.7582 26.2896 10.8738 26.368C10.9127 26.3943 10.9567 26.4109 10.9825 26.4132L10.9973 26.5768Z" fill="#00A200"/>
<path d="M11.4857 26.5658L11.2746 26.4228L11.2683 26.6236L11.504 26.7826L11.4988 26.9388L11.1333 26.6922L11.1596 25.8462L11.5148 26.0876L11.5097 26.2438L11.2855 26.0916L11.2797 26.2672L11.4914 26.4102L11.4857 26.5658Z" fill="#00A200"/>
<path opacity="0.2" d="M11.6816 22.1135V22.3675L12.9533 23.221V22.9578L11.6816 22.1135Z" fill="#435A5E"/>
<g opacity="0.5">
<path d="M9.85753 17.5266L9.55664 17.3384L10.0457 14.3667L10.3758 14.5806L9.85753 17.5266Z" fill="#BDCAD3"/>
</g>
<g opacity="0.5">
<path d="M13.5715 19.9685L12.9795 19.5881L13.4686 16.6169L13.8621 16.8812L13.8593 18.2129L13.5715 19.9685Z" fill="#BDCAD3"/>
</g>
<g opacity="0.5">
<path d="M17.0082 22.2405L16.689 22.0345L17.1763 19.0789L17.3028 19.1475L17.2999 20.4792L17.0082 22.2405Z" fill="#BDCAD3"/>
</g>
<g opacity="0.4">
<path d="M13.633 25.7148L11.3346 24.2332L11.6418 24.0582L12.0068 24.2841L13.0421 23.7784L12.4644 23.4055L12.9117 23.2081L11.6887 22.3604L10.8461 22.7368L9.8525 21.9422L8.80683 22.4399L9.64256 22.9553L9.65572 23.1509L6.57763 21.166L5.93066 21.1128L9.65572 23.5891V23.8751L10.0464 24.1983L10.6007 24.2046L13.2189 25.9573L13.633 25.7148Z" fill="#C6BA95"/>
</g>
<path d="M11.7566 21.8056L10.6549 21.0785V19.748L9.51484 18.958L8.9451 19.3218L9.55602 20.3692L8.49262 19.6439L7.91602 19.9974L8.41483 21.3485L9.41645 22.0098L10.0777 24.2281L10.6549 23.8746V22.6081L11.18 23.6355L11.7566 23.282V21.8056Z" fill="#008035"/>
<path d="M9.0105 23.3998V22.1556C9.0105 22.131 8.99849 22.1082 8.97789 22.0944L7.98828 21.4343V20.1347L8.89609 20.7404C8.9081 20.7485 8.92241 20.753 8.93671 20.753C8.94872 20.753 8.96016 20.7502 8.97103 20.7444C8.99505 20.7319 9.00993 20.7067 9.00993 20.6798V19.4517L10.003 20.1398V21.432C10.003 21.4566 10.0156 21.4795 10.0361 21.4932L11.1053 22.1991V23.4993L10.1174 22.8472C10.1054 22.8392 10.0911 22.8352 10.0768 22.8352C10.0647 22.8352 10.0527 22.8381 10.0419 22.8438C10.0178 22.8564 10.0035 22.8815 10.0035 22.9084V24.0885L9.0105 23.3998Z" fill="#00B535"/>
<path d="M9.0837 19.5918L9.9303 20.1781V21.432C9.9303 21.4812 9.9549 21.5276 9.99608 21.5544L11.032 22.2386V23.3626L10.158 22.7855C10.1334 22.7694 10.1053 22.7614 10.0773 22.7614C10.0533 22.7614 10.0298 22.7672 10.0075 22.7792C9.96004 22.8049 9.9303 22.8547 9.9303 22.9084V23.9484L9.0837 23.3621V22.1562C9.0837 22.107 9.0591 22.0613 9.01848 22.0344L8.06148 21.396V20.2725L8.85546 20.8022C8.88005 20.8188 8.90865 20.8268 8.93668 20.8268C8.96014 20.8268 8.98416 20.8211 9.0059 20.8097C9.05338 20.7839 9.0837 20.7342 9.0837 20.6804V19.5918ZM8.93726 19.3115V20.6798L7.91504 19.998V21.4738L8.93726 22.1557V23.4381L10.0773 24.2281V22.9079L11.179 23.6355V22.1597L10.0773 21.432V20.1015L8.93726 19.3115Z" fill="white"/>
<path d="M11.1799 22.1598L11.5506 21.9608L10.4489 21.2332L10.0776 21.4322L11.1799 22.1598Z" fill="#00B535"/>
<path d="M10.0855 20.0981L10.6546 19.748L9.51456 18.958L8.94482 19.3218L10.0855 20.0981Z" fill="#00B535"/>
<path d="M8.94233 20.7092L8.94005 19.9466L8.49272 19.644L7.91211 19.9993L8.94233 20.7092Z" fill="#00B535"/>
<path opacity="0.4" d="M19.3046 19.4805L30.613 12.9651L30.4151 12.8301L19.2954 19.2351L19.3046 19.4805Z" fill="white"/>
<path opacity="0.4" d="M19.2986 26.1209L30.6071 19.6055L30.4091 19.4705L19.29 25.8755L19.2986 26.1209Z" fill="white"/>
<path opacity="0.3" d="M6.82705 31.464C6.82191 31.464 6.81733 31.464 6.81218 31.4634L5.50281 31.3896C5.36037 31.3816 5.25168 31.2598 5.25969 31.1174C5.2677 30.9749 5.39126 30.8657 5.53198 30.8743L6.84135 30.948C6.98379 30.9561 7.09247 31.0779 7.08447 31.2203C7.07703 31.3582 6.9632 31.464 6.82705 31.464Z" fill="#382C36"/>
<path opacity="0.3" d="M12.5624 35.3C12.5573 35.3 12.5527 35.3 12.5475 35.2994L11.2382 35.2256C11.0957 35.2176 10.987 35.0957 10.995 34.9533C11.0031 34.8109 11.1243 34.7016 11.2673 34.7102L12.5767 34.784C12.7191 34.792 12.8278 34.9138 12.8198 35.0563C12.8124 35.1936 12.6985 35.3 12.5624 35.3Z" fill="#382C36"/>
<path d="M5.68592 28.4242C5.74427 28.3744 5.78202 28.3018 5.78202 28.2188C5.78202 28.0695 5.66132 27.9482 5.51145 27.9482C5.36215 27.9482 5.24088 28.0695 5.24088 28.2188C5.24088 28.3018 5.27864 28.3744 5.33756 28.4242C5.22201 28.4865 5.14307 28.6072 5.14307 28.7474V31.0709C5.14307 31.2746 5.30838 31.3787 5.51203 31.3787C5.71567 31.3787 5.88098 31.2752 5.88098 31.0709V28.7474C5.88041 28.6066 5.8009 28.4865 5.68592 28.4242Z" fill="#4C4949"/>
<path d="M11.4555 32.276C11.5138 32.2262 11.5516 32.153 11.5516 32.0706C11.5516 31.9213 11.4303 31.8 11.281 31.8C11.1317 31.8 11.0104 31.9213 11.0104 32.0706C11.0104 32.1536 11.0482 32.2262 11.1071 32.276C10.9915 32.3383 10.9126 32.459 10.9126 32.5992V34.9228C10.9126 35.1264 11.0779 35.2299 11.2816 35.2299C11.4852 35.2299 11.6505 35.1264 11.6505 34.9228V32.5992C11.6505 32.459 11.571 32.3383 11.4555 32.276Z" fill="#4C4949"/>
<path d="M20.0817 8.77323L21.7188 9.85379L20.3253 10.6781L18.6796 9.59123L16.7364 10.725L15.3367 9.80574L17.2839 8.66969L15.6673 7.60228L17.0602 6.77799L18.6859 7.85169L20.6331 6.71564L22.0334 7.63489L20.0817 8.77323ZM18.7025 5.44287C15.8 5.44287 13.4473 6.91928 13.4473 8.74062C13.4473 10.562 15.8 12.0384 18.7025 12.0384C21.605 12.0384 23.9577 10.562 23.9577 8.74062C23.9583 6.91928 21.6055 5.44287 18.7025 5.44287Z" fill="#00B535"/>
<path opacity="0.95" d="M20.082 8.77341L21.7191 9.85397L20.3257 10.6783L18.6799 9.59141L16.7368 10.7257L15.3364 9.80649L17.2842 8.66987L15.6671 7.60247L17.0605 6.77874L18.6862 7.85187L20.6334 6.71582L22.0337 7.6345L20.082 8.77341Z" fill="white"/>
</g>
<defs>
<clipPath id="clip0_161_846">
<rect width="37" height="38.3883" fill="white" transform="translate(0 0.56958)"/>
</clipPath>
</defs>
</svg>
