<svg width="30" height="42" viewBox="0 0 30 42" fill="none" xmlns="http://www.w3.org/2000/svg">
<g clip-path="url(#clip0_185_3063)">
<path d="M26.7911 23.8801H3.70166C3.70166 23.8801 5.74731 24.8514 8.79573 25.6164C9.17392 27.47 12.1335 41.4802 15.5401 41.4802C18.8492 41.4802 21.465 28.1806 21.8833 25.7281C25.0492 24.9431 26.7911 23.8801 26.7911 23.8801Z" fill="#AAAAA9" stroke="#002036" stroke-width="0.311575" stroke-miterlimit="10" stroke-linecap="round"/>
<path d="M6.30322 23.8801C7.46071 24.4302 8.56662 25.1608 9.84157 25.4158C10.9475 25.6364 12.0906 25.7367 13.2166 25.6994C14.2394 25.6679 15.2279 25.3585 16.2564 25.4817C17.0529 25.5762 17.4827 26.1349 17.3595 26.9314C17.2506 27.6362 16.7406 28.0459 16.2679 28.4986C16.606 28.6361 16.8724 28.8252 17.0873 29.1633C17.6431 30.0429 16.8581 30.8623 16.4484 31.5871C16.477 31.61 16.52 31.6416 16.583 31.6874C16.9612 31.971 17.4139 32.3951 17.4827 32.8936C17.56 33.4494 17.5085 33.8878 17.3394 34.4207C17.1876 34.902 17.4082 35.2372 17.5772 35.7013C17.9583 36.75 18.0184 37.8902 17.6001 38.9417C17.1704 40.0133 16.5086 40.847 15.6662 41.4744C18.9123 41.1306 21.468 28.1519 21.8805 25.731C25.0493 24.9459 26.7912 23.883 26.7912 23.883H6.30322V23.8801Z" fill="#C6C6C6"/>
<path d="M21.7886 0.529785C19.7 0.529785 17.8177 2.42645 14.9985 2.42645C12.1792 2.42645 10.2969 0.529785 8.20828 0.529785C4.07973 0.529785 -0.395485 6.42034 0.211907 11.1477C0.489817 13.3337 1.97678 21.2642 3.60986 21.6309C6.13398 24.9143 23.2727 24.3298 26.4902 21.6395C27.9399 21.141 29.5386 13.0272 29.7879 11.1505C30.4096 6.42321 25.8112 0.529785 21.7886 0.529785Z" fill="#F3FAFF" stroke="#002036" stroke-width="0.311575" stroke-miterlimit="10"/>
<path opacity="0.7" d="M9.44912 21.3329C11.3773 21.4876 11.5377 19.6998 15.523 19.4649C17.8122 19.3302 19.0872 21.2011 21.0956 21.0808C23.104 20.9604 28.3699 16.5511 28.221 11.0617C28.1522 8.55188 27.0893 5.7298 25.9089 3.52084C25.1324 2.07112 23.5824 1.24025 21.9494 1.30042C19.9266 1.37491 18.1216 2.72149 16.4055 3.64977C14.0962 4.9018 12.3973 2.80458 10.3172 2.24016C8.32888 1.70153 6.49238 2.23156 5.17732 3.87611C3.58721 5.86159 3.56143 8.80114 4.1373 11.1705C4.55847 12.901 7.52094 21.1753 9.44912 21.3329Z" fill="white"/>
<path d="M14.8551 4.89052C16.2217 5.03663 17.3563 4.70142 18.6599 4.33183C19.9234 3.97083 21.3158 3.75309 22.5363 4.38913C25.0318 5.69273 26.2122 8.91592 26.6849 11.5231C26.9686 13.0903 27.1691 14.689 26.9313 16.2734C26.8597 16.7547 26.7479 17.2246 26.6133 17.6887C27.5989 15.4339 28.2779 13.0416 28.2234 11.059C28.1547 8.54919 27.0918 5.72711 25.9114 3.51815C25.1349 2.06844 23.5849 1.23757 21.9518 1.29774C19.9291 1.37223 18.1241 2.7188 16.408 3.64708C14.0959 4.90198 12.3969 2.80475 10.3168 2.24034C10.0762 2.17444 9.83552 2.12574 9.60059 2.09136C10.9414 3.56972 12.9269 4.68423 14.8551 4.89052Z" fill="white"/>
<path d="M11.0851 3.08269C12.1251 3.92502 13.4745 4.15995 14.7752 3.92788C16.3338 3.65284 18.0615 2.82484 18.6373 1.49259C17.5601 1.96246 16.394 2.4266 14.9987 2.4266C12.3285 2.4266 10.4949 0.724753 8.53516 0.547119C9.38894 1.38658 10.1453 2.32059 11.0851 3.08269Z" fill="#E6F5FE"/>
<path d="M24.9807 20.293C22.8434 21.3416 18.9125 21.3416 16.7351 19.5538C16.185 19.104 14.2597 18.9264 12.83 19.8776C11.1367 21.0064 6.43518 21.0064 5.23472 20.3732C3.42114 19.4106 3.09166 16.9867 0.163574 10.6406C1.50729 20.5537 3.42974 21.3416 3.42974 21.3416C3.42974 21.3416 8.8848 22.459 15.4257 22.2899C20.9295 22.1639 26.4877 21.6396 26.4877 21.6396C26.4877 21.6396 27.8372 21.3416 29.3155 13.775C27.9603 16.5484 26.0494 19.7687 24.9807 20.293Z" fill="#E6F5FE"/>
<path d="M11.3602 11.5517C11.3602 12.3911 10.6812 13.0702 9.84172 13.0702C9.00226 13.0702 8.32324 12.3911 8.32324 11.5517C8.32324 10.7122 9.00226 10.0332 9.84172 10.0332C10.6812 10.0332 11.3602 10.7122 11.3602 11.5517Z" fill="#002036"/>
<path d="M10.8558 11.9987C10.8558 12.2451 10.6553 12.4457 10.4089 12.4457C10.1625 12.4457 9.96191 12.2451 9.96191 11.9987C9.96191 11.7523 10.1625 11.5518 10.4089 11.5518C10.6553 11.5518 10.8558 11.7523 10.8558 11.9987Z" fill="white"/>
<path d="M10.2482 11.2623C10.2482 11.4227 10.1192 11.5516 9.9588 11.5516C9.79836 11.5516 9.66943 11.4227 9.66943 11.2623C9.66943 11.1018 9.79836 10.9729 9.9588 10.9729C10.1192 10.9729 10.2482 11.1018 10.2482 11.2623Z" fill="white"/>
<path d="M19.3535 11.5517C19.3535 12.3911 20.0325 13.0702 20.872 13.0702C21.7115 13.0702 22.3905 12.3911 22.3905 11.5517C22.3905 10.7122 21.7115 10.0332 20.872 10.0332C20.0325 10.0332 19.3535 10.7122 19.3535 11.5517Z" fill="#002036"/>
<path d="M19.8574 11.9987C19.8574 12.2451 20.058 12.4457 20.3044 12.4457C20.5508 12.4457 20.7513 12.2451 20.7513 11.9987C20.7513 11.7523 20.5508 11.5518 20.3044 11.5518C20.058 11.5518 19.8574 11.7523 19.8574 11.9987Z" fill="white"/>
<path d="M20.4648 11.2623C20.4648 11.4227 20.5938 11.5516 20.7542 11.5516C20.9147 11.5516 21.0436 11.4227 21.0436 11.2623C21.0436 11.1018 20.9147 10.9729 20.7542 10.9729C20.5938 10.9729 20.4648 11.1018 20.4648 11.2623Z" fill="white"/>
<path d="M23.4163 8.63502C22.8433 6.64667 21.0068 6.93891 21.0068 6.93891" stroke="#002036" stroke-width="0.467348" stroke-miterlimit="10" stroke-linecap="round" stroke-linejoin="round"/>
<path d="M6.896 8.63502C7.46901 6.64667 9.30551 6.93891 9.30551 6.93891" stroke="#002036" stroke-width="0.467348" stroke-miterlimit="10" stroke-linecap="round" stroke-linejoin="round"/>
<path d="M18.0416 1.92806C18.0416 1.92806 17.9499 1.95958 17.7866 2.01401C17.7064 2.04267 17.6033 2.07132 17.4973 2.11716C17.3884 2.16013 17.2681 2.2117 17.1334 2.26614C16.8641 2.37215 16.5518 2.51826 16.2051 2.64433C16.0332 2.70736 15.8556 2.78185 15.6722 2.84202C15.486 2.89932 15.2998 2.95948 15.1107 3.01678C14.9244 3.08268 14.7296 3.11133 14.5405 3.15717C14.3514 3.19442 14.1681 3.25172 13.9847 3.27177C13.8013 3.29469 13.6266 3.31762 13.4575 3.34054C13.2914 3.35773 13.1338 3.39211 12.9848 3.38924C12.3975 3.40357 12.0078 3.41503 12.0078 3.41503C12.0078 3.41503 12.3975 3.38638 12.9819 3.34054C13.128 3.33767 13.2828 3.2947 13.4489 3.26891C13.6122 3.24026 13.787 3.20874 13.9675 3.17723C14.148 3.14858 14.3256 3.08268 14.5119 3.03684C14.6952 2.97954 14.8872 2.94516 15.0677 2.87067C15.2511 2.80477 15.4316 2.73601 15.6121 2.67011C15.7897 2.60422 15.9616 2.52113 16.1278 2.4495C16.463 2.30625 16.7638 2.14867 17.0331 2.02548C17.1678 1.96244 17.2938 1.90514 17.4027 1.85357C17.5116 1.79914 17.609 1.77049 17.6892 1.7361C17.8497 1.67307 17.9385 1.63869 17.9385 1.63869C18.0187 1.60718 18.1104 1.64729 18.1419 1.72751C18.1734 1.80773 18.1333 1.89941 18.0531 1.93093C18.0502 1.93093 18.0474 1.93379 18.0474 1.93379L18.0416 1.92806Z" fill="#002036"/>
<path d="M5.87056 2.40352C5.62416 2.38633 5.3262 2.60981 5.14283 2.75593C4.88498 2.95934 4.72167 3.19428 4.57269 3.48365C4.56409 3.50084 4.58701 3.51517 4.59847 3.49798C4.75319 3.24585 4.98525 3.03384 5.21732 2.8562C5.42074 2.70149 5.71871 2.64132 5.89348 2.46369C5.9164 2.4379 5.89921 2.40639 5.87056 2.40352Z" fill="#002036"/>
<path d="M6.14539 2.62706C5.83883 2.6815 5.50075 2.84481 5.34604 3.12845C5.33744 3.14277 5.35463 3.16569 5.37182 3.15423C5.62395 2.97374 5.8904 2.862 6.19409 2.80756C6.31443 2.78464 6.26285 2.60701 6.14539 2.62706Z" fill="#002036"/>
<path d="M5.84458 23.3387C5.72425 23.184 5.56667 23.078 5.43488 22.9319C5.27157 22.7543 5.14837 22.5337 5.10253 22.2959C5.09967 22.2815 5.08248 22.2873 5.08248 22.2987C5.03377 22.7313 5.35752 23.3387 5.83312 23.3674C5.84745 23.3702 5.85318 23.3502 5.84458 23.3387Z" fill="#002036"/>
<path d="M6.42906 23.1036C6.19985 22.9002 5.87897 22.8171 5.68987 22.5621C5.67841 22.5449 5.65263 22.5564 5.65549 22.5764C5.73572 22.9088 6.07952 23.1351 6.41187 23.138C6.43192 23.138 6.44338 23.1151 6.42906 23.1036Z" fill="#002036"/>
<path d="M25.1868 21.0293C25.0493 21.3043 25.0006 21.6138 24.8602 21.8917C24.7227 22.161 24.525 22.3902 24.3645 22.6452C24.3617 22.6509 24.3674 22.6595 24.3731 22.6567C24.8201 22.3558 25.3043 21.608 25.2728 21.0522C25.2699 21.0121 25.2069 20.9863 25.1868 21.0293Z" fill="#002036"/>
<path d="M24.9429 20.5767C24.9343 20.5509 24.9028 20.5451 24.8856 20.5681C24.7882 20.7113 24.7796 20.8775 24.7452 21.0437C24.7108 21.2098 24.6621 21.3875 24.5991 21.5451C24.579 21.5938 24.6535 21.6167 24.6793 21.5794C24.8627 21.3216 25.0632 20.9004 24.9429 20.5767Z" fill="#002036"/>
<path d="M22.3558 1.36372C22.0493 1.14024 21.5737 1.18895 21.2442 1.33507C21.2299 1.3408 21.2384 1.36658 21.2528 1.36658C21.4189 1.36658 21.5823 1.34939 21.7484 1.34653C21.9518 1.34366 22.1438 1.40096 22.3444 1.41529C22.373 1.41529 22.3759 1.37804 22.3558 1.36372Z" fill="#002036"/>
<path d="M22.7543 1.83633C22.5051 1.62145 22.1699 1.60426 21.869 1.70454C21.8346 1.716 21.8404 1.7733 21.8776 1.77043C22.1011 1.74465 22.3131 1.79049 22.5108 1.89363C22.5738 1.92515 22.7457 2.06553 22.7772 1.92228C22.783 1.89077 22.7772 1.85638 22.7543 1.83633Z" fill="#002036"/>
<path d="M22.7798 14.7577C22.7798 15.1731 22.1265 15.5112 21.3186 15.5112C20.5135 15.5112 19.8574 15.1731 19.8574 14.7577C19.8574 14.3422 20.5107 14.0042 21.3186 14.0042C22.1237 14.0042 22.7798 14.3422 22.7798 14.7577Z" fill="#F8C2C0"/>
<path d="M11.1309 14.7577C11.1309 15.1731 10.4776 15.5112 9.66967 15.5112C8.86173 15.5112 8.2085 15.1731 8.2085 14.7577C8.2085 14.3422 8.86173 14.0042 9.66967 14.0042C10.4776 14.0042 11.1309 14.3422 11.1309 14.7577Z" fill="#F8C2C0"/>
<path d="M15.3167 17.9122C15.1505 17.9494 14.9929 17.9723 14.8239 17.9752C14.7752 17.9752 14.5861 17.9723 14.5718 18.0526C14.5546 18.1643 14.6921 18.2388 14.7838 18.2646C14.9843 18.3162 15.2107 18.3133 15.4055 18.2359C15.6032 18.1557 15.5316 17.8635 15.3167 17.9122Z" fill="#002036"/>
<path d="M19.5279 13.8982C19.462 13.8982 19.462 14.0013 19.5279 14.0013C19.5938 14.0042 19.5938 13.8982 19.5279 13.8982Z" fill="#002036"/>
<path d="M20.0414 13.8096C19.7922 13.8096 19.7922 14.1964 20.0414 14.1964C20.2878 14.1964 20.2878 13.8096 20.0414 13.8096Z" fill="#002036"/>
<path d="M21.0955 13.7351C20.9695 13.7351 20.9695 13.9299 21.0955 13.9299C21.2216 13.9299 21.2216 13.7351 21.0955 13.7351Z" fill="#002036"/>
<path d="M20.6972 14.1245C20.5052 14.1245 20.5052 14.4225 20.6972 14.4225C20.8892 14.4225 20.8892 14.1245 20.6972 14.1245Z" fill="#002036"/>
<path d="M21.5454 14.2192C21.3306 14.2192 21.3306 14.5516 21.5454 14.5516C21.7603 14.5544 21.7603 14.2192 21.5454 14.2192Z" fill="#002036"/>
<path d="M22.0809 13.5715C21.9118 13.5715 21.9118 13.8351 22.0809 13.8351C22.2528 13.838 22.2528 13.5715 22.0809 13.5715Z" fill="#002036"/>
<path d="M22.8635 13.7751C22.7317 13.7751 22.7317 13.9814 22.8635 13.9814C22.9953 13.9814 22.9953 13.7751 22.8635 13.7751Z" fill="#002036"/>
<path d="M22.803 14.4341C22.7486 14.4341 22.7486 14.5172 22.803 14.5172C22.8575 14.52 22.8575 14.4341 22.803 14.4341Z" fill="#002036"/>
<path d="M19.9265 14.7664C19.809 14.7664 19.809 14.9469 19.9265 14.9469C20.0439 14.9469 20.0439 14.7664 19.9265 14.7664Z" fill="#002036"/>
<path d="M19.3993 14.2993C19.2933 14.2993 19.2933 14.4626 19.3993 14.4626C19.5053 14.4655 19.5053 14.2993 19.3993 14.2993Z" fill="#002036"/>
<path d="M20.7258 14.9241C20.6943 14.9241 20.6943 14.9728 20.7258 14.9728C20.7544 14.9728 20.7544 14.9241 20.7258 14.9241Z" fill="#002036"/>
<path d="M21.3445 14.769C21.2901 14.769 21.2901 14.855 21.3445 14.855C21.399 14.855 21.399 14.769 21.3445 14.769Z" fill="#002036"/>
<path d="M8.22862 13.8982C8.16273 13.8982 8.16273 14.0013 8.22862 14.0013C8.29452 14.0042 8.29452 13.8982 8.22862 13.8982Z" fill="#002036"/>
<path d="M8.74114 13.8096C8.49188 13.8096 8.49188 14.1964 8.74114 14.1964C8.9904 14.1964 8.9904 13.8096 8.74114 13.8096Z" fill="#002036"/>
<path d="M9.79572 13.7351C9.66966 13.7351 9.66966 13.9299 9.79572 13.9299C9.92178 13.9299 9.92178 13.7351 9.79572 13.7351Z" fill="#002036"/>
<path d="M9.39739 14.1245C9.20543 14.1245 9.20543 14.4225 9.39739 14.4225C9.58935 14.4225 9.58935 14.1245 9.39739 14.1245Z" fill="#002036"/>
<path d="M10.2481 14.2192C10.0332 14.2192 10.0332 14.5516 10.2481 14.5516C10.4601 14.5544 10.4601 14.2192 10.2481 14.2192Z" fill="#002036"/>
<path d="M10.7842 13.5715C10.6123 13.5715 10.6123 13.8351 10.7842 13.8351C10.9532 13.838 10.9532 13.5715 10.7842 13.5715Z" fill="#002036"/>
<path d="M11.5632 13.7751C11.4314 13.7751 11.4314 13.9814 11.5632 13.9814C11.6979 13.9814 11.6979 13.7751 11.5632 13.7751Z" fill="#002036"/>
<path d="M11.5032 14.4341C11.4488 14.4341 11.4488 14.5172 11.5032 14.5172C11.5577 14.52 11.5577 14.4341 11.5032 14.4341Z" fill="#002036"/>
<path d="M8.62716 14.7664C8.5097 14.7664 8.5097 14.9469 8.62716 14.9469C8.74463 14.9469 8.74463 14.7664 8.62716 14.7664Z" fill="#002036"/>
<path d="M8.09952 14.2993C7.99352 14.2993 7.99352 14.4626 8.09952 14.4626C8.20553 14.4655 8.20553 14.2993 8.09952 14.2993Z" fill="#002036"/>
<path d="M9.42647 14.9241C9.39495 14.9241 9.39495 14.9728 9.42647 14.9728C9.45798 14.9728 9.45798 14.9241 9.42647 14.9241Z" fill="#002036"/>
<path d="M10.0447 14.769C9.9903 14.769 9.9903 14.855 10.0447 14.855C10.0992 14.855 10.0992 14.769 10.0447 14.769Z" fill="#002036"/>
<path d="M27.4703 22.7083C27.5419 23.373 27.0777 23.9747 26.4331 24.0406C18.7691 24.8543 11.0449 24.8543 3.38087 24.0406C2.73623 23.9718 2.27209 23.373 2.34372 22.7083C2.41534 22.0436 2.97976 21.5652 3.60721 21.6311C11.1222 22.4276 18.6917 22.4276 26.2039 21.6311C26.8342 21.5652 27.4015 22.0436 27.4703 22.7083Z" fill="#C6C6C6" stroke="#002036" stroke-width="0.311575" stroke-miterlimit="10"/>
<path d="M27.4187 22.4534C26.8916 22.6425 26.3501 22.7657 25.7914 22.8545C25.3731 22.9605 24.9376 23.0493 24.4849 23.1238C21.8519 23.5536 19.1044 23.7742 16.4399 23.9145C13.5863 24.0664 10.7069 24.0549 7.86475 23.7369C6.64137 23.5994 5.40939 23.4619 4.19747 23.2413C3.5557 23.1238 2.91966 22.9576 2.35238 22.6625C2.34951 22.6768 2.34665 22.6912 2.34665 22.7055C2.27502 23.3702 2.73916 23.9718 3.3838 24.0377C11.0478 24.8514 18.772 24.8514 26.436 24.0377C27.0807 23.969 27.5448 23.3702 27.4732 22.7055C27.4617 22.6195 27.4445 22.5336 27.4187 22.4534Z" fill="#C6C6C6"/>
<path d="M22.7889 22.2526C22.3362 22.1208 19.368 22.605 16.311 22.6566C12.1739 22.7282 7.60697 22.3243 6.80762 22.3987C6.77897 22.4016 6.77897 22.4389 6.80762 22.4417C9.54088 22.7712 12.2426 23.1952 15.0017 23.1952C18.4913 23.1952 22.1615 22.8199 22.7889 22.6509C22.9895 22.5993 22.9837 22.3099 22.7889 22.2526Z" fill="white"/>
<path d="M21.3849 28.3723C19.4797 29.5871 12.0105 31.0941 10.0021 30.7389C8.25151 30.4266 7.50659 28.189 9.39753 28.3379C12.8299 28.6044 20.0383 26.788 21.8806 25.7307C23.4621 24.8225 22.7859 27.4784 21.3849 28.3723Z" fill="#C6C6C6" stroke="#002036" stroke-width="0.311575" stroke-miterlimit="10" stroke-linecap="round"/>
<path d="M20.7604 28.209C19.5742 28.57 18.3222 28.613 17.1046 28.8164C15.4027 29.1029 13.7267 29.6387 12.0162 29.8335C11.2341 29.9223 10.4548 29.9137 9.6726 29.8077C9.26004 29.7533 8.82741 29.5842 8.40625 29.547C8.64118 30.0713 9.21993 30.5985 10.005 30.736C12.0134 31.0912 19.4826 29.5871 21.3878 28.3694C21.7431 28.1431 22.0496 27.805 22.2846 27.4412C21.8319 27.7764 21.3219 28.0371 20.7604 28.209Z" fill="#C6C6C6"/>
<path d="M20.2273 32.9108C19.0956 34.0281 13.9758 35.6641 11.2654 35.1999C9.51202 34.902 8.56655 32.1143 10.4031 32.5899C12.7725 33.203 18.9409 31.2032 20.8433 30.0371C22.3933 29.0859 21.4077 31.7447 20.2273 32.9108Z" fill="#C6C6C6" stroke="#002036" stroke-width="0.311575" stroke-miterlimit="10" stroke-linecap="round"/>
<path d="M16.4227 33.6184C14.1679 34.1656 11.7355 34.9449 9.57812 33.8276C9.86463 34.4407 10.4835 35.0681 11.2656 35.1999C13.976 35.6612 19.0987 34.0281 20.2275 32.9107C20.6315 32.5096 21.0154 31.9338 21.279 31.3894C19.878 32.5068 18.1905 33.1887 16.4227 33.6184Z" fill="#C6C6C6"/>
<path d="M18.9123 37.6554C17.5571 38.6753 14.9069 39.1739 13.0532 39.1739C11.6637 39.1739 10.936 37.0709 12.1565 37.3058C14.1305 37.6898 17.9897 36.1312 19.4308 35.4092C20.6141 34.8132 19.7661 37.0136 18.9123 37.6554Z" fill="#C6C6C6" stroke="#002036" stroke-width="0.311575" stroke-miterlimit="10" stroke-linecap="round"/>
<path d="M11.5405 37.8386C11.6064 38.3944 12.2052 39.1737 13.0504 39.1737C14.907 39.1737 17.5543 38.6752 18.9095 37.6553C19.3965 37.2914 19.8807 36.4204 19.9867 35.8474C17.5428 37.6352 14.3712 38.7984 11.5405 37.8386Z" fill="#C6C6C6"/>
<path d="M20.8288 26.5903C20.293 26.5416 19.8002 26.8195 19.3246 27.0373C18.5253 27.4011 17.7145 27.6647 16.8635 27.8767C15.2476 28.2836 13.6174 28.6188 11.9987 29.0027C11.9844 29.0056 11.9872 29.0342 12.0015 29.0314C13.5802 28.8852 15.1416 28.6016 16.6888 28.2693C17.4767 28.1002 18.2502 27.8825 18.9923 27.5702C19.6111 27.3095 20.293 27.0917 20.8746 26.7594C20.9577 26.7107 20.9147 26.5961 20.8288 26.5903Z" fill="white"/>
<path d="M19.2702 31.0914C18.7029 31.1143 18.1958 31.3721 17.6744 31.5813C16.9982 31.8563 16.3192 32.1199 15.6316 32.3663C14.3223 32.839 13.0187 32.9794 11.6721 33.2659C11.6119 33.2774 11.6119 33.3748 11.6721 33.3863C12.9098 33.6097 14.3051 33.2115 15.4826 32.8534C16.1788 32.6414 16.8578 32.3778 17.5368 32.1142C18.1528 31.8764 18.829 31.693 19.3447 31.2747C19.4163 31.2146 19.3562 31.0885 19.2702 31.0914Z" fill="white"/>
<path d="M17.3481 36.7813C16.7092 36.7584 16.0817 36.999 15.4829 37.1996C14.7151 37.4517 13.9845 37.6322 13.1938 37.7869C13.188 37.7869 13.188 37.7984 13.1938 37.8013C13.8183 37.9273 14.4458 37.7927 15.056 37.6351C15.8267 37.4374 16.629 37.2741 17.3853 37.0363C17.5257 36.9905 17.4971 36.787 17.3481 36.7813Z" fill="white"/>
<path d="M15.5833 40.6178C15.3169 40.6063 15.1536 40.5175 14.9587 40.337C14.7983 40.188 14.6264 39.9932 14.4201 39.913C14.3399 39.8814 14.2482 39.976 14.2768 40.0562C14.4717 40.5977 15.0332 41.1764 15.6463 41.0848C15.9243 41.0447 15.8383 40.6321 15.5833 40.6178Z" fill="white"/>
<path d="M15.477 36.0049C14.9814 35.8359 14.3539 36.0766 13.8468 36.1396C13.311 36.2084 12.8096 36.0365 12.3226 35.833C12.2882 35.8187 12.2681 35.8645 12.2796 35.8903C12.5289 36.4548 12.9443 36.6467 13.546 36.6811C14.119 36.7126 15.0329 36.6209 15.52 36.343C15.6661 36.2599 15.6231 36.0565 15.477 36.0049Z" fill="white"/>
<path d="M12.8957 31.7991C12.3456 31.6988 11.7869 31.8793 11.234 31.7303C11.1738 31.7131 10.8014 31.3349 10.7441 31.3979C10.6209 31.5383 10.8243 31.9681 10.9675 32.0426C11.5291 32.3348 12.2797 32.3893 12.8929 32.2632C13.1221 32.2116 13.1278 31.842 12.8957 31.7991Z" fill="white"/>
<path d="M10.7128 27.1176C10.2973 27.0603 10.071 26.8913 9.91627 26.4988C9.79594 26.1951 9.72431 25.8427 9.48365 25.6049C9.41775 25.5418 9.28023 25.5819 9.29169 25.6851C9.3318 26.0976 9.46646 26.5417 9.63836 26.9199C9.82746 27.3354 10.22 27.5302 10.6526 27.5846C10.9162 27.6219 10.9792 27.1549 10.7128 27.1176Z" fill="white"/>
<path d="M16.1814 15.6945C16.1814 16.6285 15.7144 17.3849 15.1357 17.3849C14.5598 17.3849 14.0928 16.6285 14.0928 15.6945C14.0928 14.7605 14.5598 14.0042 15.1357 14.0042C15.7115 14.0042 16.1814 14.7605 16.1814 15.6945Z" fill="#002036"/>
</g>
<defs>
<clipPath id="clip0_185_3063">
<rect width="30" height="41.2597" fill="white" transform="translate(0 0.375244)"/>
</clipPath>
</defs>
</svg>
