<svg width="51" height="42" viewBox="0 0 51 42" fill="none" xmlns="http://www.w3.org/2000/svg">
<g clip-path="url(#clip0_185_2240)">
<path d="M7.36726 11.8448C4.20435 12.0544 3.90128 12.4155 3.72717 16.1781C3.72395 16.2232 3.66913 16.2232 3.66913 16.1781C3.49181 12.4123 3.18873 12.0544 0.0290409 11.8448C-0.00642508 11.8416 -0.00642508 11.7771 0.0290409 11.7739C3.19196 11.5643 3.49503 11.2032 3.66913 7.44059C3.67236 7.39545 3.72717 7.39545 3.72717 7.44059C3.9045 11.2064 4.20435 11.5643 7.36726 11.7739C7.40273 11.7771 7.40273 11.8416 7.36726 11.8448Z" fill="#A1FFFF"/>
<path d="M9.89188 8.24022C8.25723 8.34984 8.09924 8.53362 8.00896 10.481C8.00896 10.5036 7.97995 10.5036 7.97995 10.481C7.88967 8.53362 7.73169 8.34984 6.09703 8.24022C6.07768 8.24022 6.07768 8.20475 6.09703 8.20475C7.73169 8.09513 7.88967 7.91135 7.97995 5.96395C7.97995 5.94138 8.00896 5.94138 8.00896 5.96395C8.09924 7.91135 8.25723 8.09513 9.89188 8.20475C9.908 8.20475 9.908 8.23699 9.89188 8.24022Z" fill="#A1FFFF"/>
<path d="M10.2012 14.9238C9.10498 14.998 9.00181 15.1205 8.94055 16.4263C8.94055 16.4424 8.9212 16.4424 8.9212 16.4263C8.85994 15.1205 8.75677 14.998 7.66055 14.9238C7.64765 14.9238 7.64765 14.9013 7.66055 14.9013C8.75677 14.8271 8.85994 14.7046 8.9212 13.3988C8.9212 13.3827 8.94055 13.3827 8.94055 13.3988C9.00181 14.7046 9.10498 14.8271 10.2012 14.9013C10.2141 14.8981 10.2141 14.9206 10.2012 14.9238Z" fill="#A1FFFF"/>
<path d="M9.62086 11.7901C9.80249 11.7901 9.94972 11.6428 9.94972 11.4612C9.94972 11.2796 9.80249 11.1323 9.62086 11.1323C9.43923 11.1323 9.29199 11.2796 9.29199 11.4612C9.29199 11.6428 9.43923 11.7901 9.62086 11.7901Z" fill="#A1FFFF"/>
<path d="M0.996323 8.54978C1.15124 8.54978 1.27683 8.42419 1.27683 8.26927C1.27683 8.11435 1.15124 7.98877 0.996323 7.98877C0.841406 7.98877 0.71582 8.11435 0.71582 8.26927C0.71582 8.42419 0.841406 8.54978 0.996323 8.54978Z" fill="#A1FFFF"/>
<path d="M31.7452 10.5744C30.9746 18.3737 29.8236 27.5045 26.3834 27.9914C22.9464 28.4782 23.8492 22.1879 20.8797 21.0497L19.6384 21.2238C19.3096 21.4721 19.071 21.7816 18.8904 22.1363V22.1395C17.8103 24.2771 18.9485 28.0236 17.1171 29.1327C17.1171 29.136 17.1171 29.136 17.1171 29.136L17.101 29.1424C16.9882 29.2101 16.8592 29.2682 16.7238 29.3133C16.5851 29.3584 16.44 29.3939 16.2756 29.4165C15.3728 29.5454 14.4604 29.0586 13.5512 28.1429L13.477 28.0688C12.4195 26.9758 11.3652 25.3056 10.3431 23.3453C10.3431 23.3453 10.3431 23.3453 10.3431 23.3421C10.3431 23.3389 10.3431 23.3389 10.3399 23.3325C9.94978 22.5812 9.55966 21.7881 9.17921 20.9691C8.16359 18.7928 7.19311 16.4198 6.29679 14.1661C3.39504 6.88593 5.98727 3.86811 8.86324 2.52685C10.1174 1.94005 11.5844 2.11738 12.9257 2.51718H12.9289C14.6668 3.03627 16.1982 3.92937 16.7947 4.05188C17.1203 4.11959 17.4782 4.14216 17.849 4.09057C19.4289 3.86811 22.9174 -0.391029 26.0545 0.0990453C26.4156 0.153856 26.78 0.234461 27.1379 0.344083C29.1078 0.930882 30.9553 2.37209 31.6066 5.65107C31.8709 6.97299 31.9387 8.59152 31.7452 10.5744Z" fill="white"/>
<path opacity="0.46" d="M10.0691 7.08908C10.5076 6.52162 11.075 5.90258 10.9299 5.20293C10.7784 4.4517 9.80469 4.10027 9.09215 4.37432C8.3796 4.64838 7.91855 5.35447 7.65417 6.07346C7.38333 6.80857 7.27694 7.5985 7.32852 8.37875C7.35754 8.8398 7.47361 10.3519 7.97013 10.5776C8.62142 10.8743 8.83099 9.72645 8.93739 9.36212C9.17598 8.53996 9.54353 7.76938 10.0691 7.08908Z" fill="white"/>
<path opacity="0.46" d="M10.2238 6.11195C10.904 6.11195 11.4555 5.56053 11.4555 4.88032C11.4555 4.2001 10.904 3.64868 10.2238 3.64868C9.54361 3.64868 8.99219 4.2001 8.99219 4.88032C8.99219 5.56053 9.54361 6.11195 10.2238 6.11195Z" fill="white"/>
<path opacity="0.4" d="M31.7452 10.5744C30.9746 18.3737 29.8236 27.5045 26.3834 27.9914C22.9464 28.4782 23.8492 22.1879 20.8797 21.0497L19.6384 21.2239C19.3096 21.4721 19.071 21.7816 18.8904 22.1363V22.1395C17.8103 24.2771 18.9485 28.0236 17.1171 29.1328C17.1171 29.136 17.1171 29.136 17.1171 29.136L17.101 29.1424C16.9882 29.2101 16.8592 29.2682 16.7238 29.3133C16.5851 29.3584 16.44 29.3939 16.2756 29.4165C15.3728 29.5454 14.4604 29.0586 13.5512 28.1429L13.477 28.0688C12.4195 26.9758 11.3652 25.3057 10.3431 23.3454C10.3431 23.3454 10.3431 23.3454 10.3431 23.3421C10.3431 23.3389 10.3431 23.3389 10.3399 23.3325C9.94978 22.5812 9.55965 21.7881 9.1792 20.9691C14.5861 22.175 20.6282 20.3017 24.3038 16.1329C25.6709 14.5821 26.6865 12.7346 27.3184 10.7711C28.4017 7.40181 28.3824 3.65855 27.1346 0.337646C29.1046 0.924446 30.9521 2.36565 31.6033 5.64464C31.8709 6.973 31.9387 8.59153 31.7452 10.5744Z" fill="#97E6FF"/>
<path d="M48.8752 27.2595C44.9804 34.0625 40.1958 41.9231 36.8587 40.959C33.5217 39.995 36.92 34.6268 34.676 32.3731L33.4734 32.0249C33.0736 32.1184 32.7254 32.3021 32.4158 32.5536V32.5568C30.5587 34.0658 30.0622 37.9509 27.9375 38.2121C27.9375 38.2153 27.9375 38.2153 27.9375 38.2153H27.9181C27.7859 38.2314 27.6473 38.2314 27.5022 38.2185C27.3571 38.2024 27.2088 38.1766 27.0508 38.1282C26.1738 37.8767 25.5387 37.0578 25.0841 35.852L25.0454 35.7552C24.5263 34.3237 24.249 32.3731 24.12 30.1645C24.12 30.1645 24.12 30.1645 24.12 30.1613C24.12 30.1581 24.12 30.1581 24.12 30.1516C24.0717 29.3069 24.0394 28.4235 24.0298 27.5207C23.9943 25.1187 24.0781 22.5587 24.1813 20.1341C24.5134 12.3026 28.1116 10.6099 31.2841 10.5615C32.6673 10.539 33.9344 11.2999 34.9952 12.2123H34.9984C36.3719 13.3988 37.4036 14.84 37.9002 15.1947C38.171 15.3881 38.487 15.5558 38.8481 15.6622C40.3763 16.1039 45.3061 13.6438 47.966 15.3752C48.2723 15.5751 48.5722 15.7976 48.8559 16.0426C50.4132 17.3839 51.5094 19.4538 50.7614 22.7134C50.4615 24.0225 49.8618 25.5314 48.8752 27.2595Z" fill="white"/>
<path opacity="0.46" d="M30.5197 15.2141C31.1517 14.8755 31.9222 14.5435 32.077 13.8438C32.2446 13.0958 31.4999 12.3768 30.7357 12.3381C29.9716 12.2962 29.2623 12.754 28.7271 13.2989C28.179 13.8567 27.7598 14.537 27.4858 15.2689C27.3246 15.7009 26.8119 17.1292 27.173 17.5387C27.647 18.0739 28.3079 17.1163 28.553 16.8262C29.1108 16.1717 29.762 15.6171 30.5197 15.2141Z" fill="white"/>
<path opacity="0.46" d="M31.5646 14.4916C32.2449 14.4916 32.7963 13.9402 32.7963 13.26C32.7963 12.5797 32.2449 12.0283 31.5646 12.0283C30.8844 12.0283 30.333 12.5797 30.333 13.26C30.333 13.9402 30.8844 14.4916 31.5646 14.4916Z" fill="white"/>
<path opacity="0.4" d="M48.8753 27.2594C44.9805 34.0624 40.1958 41.923 36.8588 40.959C33.5218 39.9949 36.92 34.6267 34.676 32.373L33.4734 32.0248C33.0736 32.1183 32.7254 32.302 32.4159 32.5535V32.5568C30.5587 34.0657 30.0622 37.9508 27.9375 38.212C27.9375 38.2152 27.9375 38.2152 27.9375 38.2152H27.9181C27.7859 38.2313 27.6473 38.2313 27.5022 38.2184C27.3571 38.2023 27.2088 38.1765 27.0508 38.1281C26.1739 37.8766 25.5387 37.0577 25.0841 35.8519L25.0454 35.7551C24.5263 34.3236 24.249 32.373 24.1201 30.1644C24.1201 30.1644 24.1201 30.1644 24.1201 30.1612C24.1201 30.158 24.1201 30.158 24.1201 30.1515C24.0717 29.3068 24.0395 28.4234 24.0298 27.5206C28.4695 30.8318 34.7502 31.596 39.8089 29.2939C41.6918 28.4395 43.3716 27.1692 44.7548 25.6345C47.1213 23.0035 48.6335 19.5762 48.8559 16.0393C50.4132 17.3806 51.5094 19.4505 50.7614 22.7101C50.4616 24.0224 49.8619 25.5313 48.8753 27.2594Z" fill="#D6F5FF"/>
<path d="M43.3976 23.9451C41.0504 24.0999 40.8247 24.3675 40.6957 27.1628C40.6957 27.1951 40.6538 27.1951 40.6538 27.1628C40.5216 24.3675 40.2992 24.0999 37.952 23.9451C37.9262 23.9419 37.9262 23.8967 37.952 23.8935C40.2992 23.7388 40.5249 23.4712 40.6538 20.6758C40.6538 20.6436 40.6957 20.6436 40.6957 20.6758C40.8279 23.4712 41.0504 23.7388 43.3976 23.8935C43.4266 23.8967 43.4266 23.9451 43.3976 23.9451Z" fill="#A1FFFF"/>
<path d="M45.2707 21.2689C44.0552 21.3495 43.9391 21.4882 43.8746 22.9326C43.8746 22.9487 43.852 22.9487 43.852 22.9326C43.7843 21.4882 43.6683 21.3495 42.456 21.2689C42.4431 21.2689 42.4431 21.2431 42.456 21.2431C43.6715 21.1625 43.7875 21.0239 43.852 19.5795C43.852 19.5634 43.8746 19.5634 43.8746 19.5795C43.9423 21.0239 44.0584 21.1625 45.2707 21.2431C45.2836 21.2431 45.2836 21.2689 45.2707 21.2689Z" fill="#A1FFFF"/>
<path d="M45.4994 26.231C44.6869 26.2858 44.6095 26.3761 44.5643 27.3466C44.5643 27.3562 44.5482 27.3562 44.5482 27.3466C44.5031 26.3793 44.4257 26.2858 43.6132 26.231C43.6035 26.231 43.6035 26.2149 43.6132 26.2117C44.4257 26.1569 44.5031 26.0666 44.5482 25.0961C44.5482 25.0832 44.5611 25.0832 44.5643 25.0961C44.6095 26.0634 44.6869 26.1569 45.4994 26.2117C45.509 26.2149 45.509 26.231 45.4994 26.231Z" fill="white"/>
<path d="M45.0707 23.9063C45.206 23.9063 45.3158 23.7966 45.3158 23.6613C45.3158 23.526 45.206 23.4163 45.0707 23.4163C44.9354 23.4163 44.8257 23.526 44.8257 23.6613C44.8257 23.7966 44.9354 23.9063 45.0707 23.9063Z" fill="white"/>
<path d="M38.6676 21.5012C38.7833 21.5012 38.8772 21.4073 38.8772 21.2916C38.8772 21.1759 38.7833 21.082 38.6676 21.082C38.5518 21.082 38.458 21.1759 38.458 21.2916C38.458 21.4073 38.5518 21.5012 38.6676 21.5012Z" fill="#A1FFFF"/>
</g>
<defs>
<clipPath id="clip0_185_2240">
<rect width="51" height="40.9793" fill="white" transform="translate(0 0.0605469)"/>
</clipPath>
</defs>
</svg>
