<svg width="271" height="230" viewBox="0 0 271 230" fill="none" xmlns="http://www.w3.org/2000/svg">
<g clip-path="url(#clip0_123_412)">
<path d="M19.6211 174.582C-12.1931 135.281 -4.21596 67.1646 35.5696 29.4338C83.4445 -15.9729 154.159 4.65792 164.368 7.63977C216.589 22.8738 265.916 68.6407 270.61 124.635C273.261 156.26 262.45 200.385 235.407 211.232C215.579 219.186 204.431 202.269 160.642 202.588C127.901 202.83 124.128 212.36 98.0054 210.913C92.827 210.63 46.1921 207.412 19.6211 174.582Z" fill="#088380"/>
</g>
<g clip-path="url(#clip1_123_412)">
<path fill-rule="evenodd" clip-rule="evenodd" d="M59.415 67.1493C51.548 86.4489 55.4069 94.1667 57.3364 97.4289C59.2658 100.696 60.6035 100.989 60.6035 100.989L62.9805 96.9814L62.16 101.288C62.16 101.288 65.0592 105.853 82.8122 105.918C100.565 105.853 103.464 101.288 103.464 101.288L102.649 96.9814L105.026 100.989C105.026 100.989 106.364 100.691 108.293 97.4289C110.223 94.1618 114.081 86.4439 106.214 67.1493C103.171 54.8266 84.9158 57.6512 84.9158 57.6512L82.8172 59.8392L80.7187 57.6512C80.7137 57.6462 62.4584 54.8266 59.415 67.1493Z" fill="#07243E"/>
<path fill-rule="evenodd" clip-rule="evenodd" d="M82.8176 137.097C71.4746 137.097 71.947 126.953 71.947 115.127C71.947 107.37 66.2332 99.3386 72.1608 96.514C75.2689 95.0321 78.914 94.2712 82.8176 94.2712C87.144 94.2712 91.1571 95.2061 94.469 97.0212C99.8397 99.9651 92.828 106.082 92.828 113.402C92.828 125.227 94.1657 137.097 82.8176 137.097Z" fill="#6AA089"/>
<path fill-rule="evenodd" clip-rule="evenodd" d="M74.0801 95.2161C53.7014 97.8915 47.1372 117.45 47.1372 119.349C47.1372 121.249 53.5273 125.565 53.5273 125.565C53.5273 125.565 76.8847 111.104 76.8847 109.548C76.8897 107.991 74.0801 95.2161 74.0801 95.2161Z" fill="white"/>
<path fill-rule="evenodd" clip-rule="evenodd" d="M76.6318 90.7355C78.3226 96.6283 82.818 100.159 82.818 100.159C82.818 100.159 77.4275 104.431 75.2593 100.462C73.0961 96.499 73.6282 91.4715 76.6318 90.7355Z" fill="#93C2A7"/>
<path fill-rule="evenodd" clip-rule="evenodd" d="M88.815 90.3477C87.1243 96.2405 82.8228 100.159 82.8228 100.159C82.8228 100.159 88.2133 104.431 90.3815 100.462C92.5447 96.4991 91.8186 91.0836 88.815 90.3477Z" fill="#93C2A7"/>
<path fill-rule="evenodd" clip-rule="evenodd" d="M92.5647 96.335C106.877 101.82 116.569 116.236 116.569 118.136C116.569 120.036 108.97 124.785 108.97 124.785C108.97 124.785 89.0737 112.357 89.0737 110.806C89.0737 109.254 92.5647 96.335 92.5647 96.335Z" fill="white"/>
<path fill-rule="evenodd" clip-rule="evenodd" d="M79.6503 141.454C71.1815 142.03 65.4976 140.275 60.48 135.322C67.4768 119.001 67.626 121.413 63.8466 104.063C66.8701 101.328 69.8936 98.5926 72.9121 95.8575C75.5029 104.61 78.0938 113.357 80.6846 122.109L79.6503 141.454Z" fill="white"/>
<path fill-rule="evenodd" clip-rule="evenodd" d="M85.9106 141.454C94.3794 142.03 99.1583 138.977 104.176 134.029C97.1791 117.708 97.5471 121.418 101.326 104.068C98.303 101.333 95.2845 98.5976 92.261 95.8625C89.6701 104.615 88.5065 113.362 85.9156 122.114V141.454H85.9106Z" fill="white"/>
<path d="M66.4521 117.947C66.3179 117.947 66.2085 117.838 66.2085 117.703C66.2085 116.301 65.3183 107.305 63.6425 103.963C63.5828 103.844 63.6325 103.695 63.7519 103.635C63.8762 103.575 64.0204 103.625 64.0801 103.745C65.7858 107.156 66.6958 116.286 66.6958 117.703C66.7008 117.838 66.5914 117.947 66.4521 117.947Z" fill="#C4C4C4"/>
<path d="M98.7505 118.365C98.6162 118.365 98.5068 118.255 98.5068 118.121C98.5068 116.699 99.4169 107.569 101.123 104.157C101.182 104.038 101.331 103.988 101.451 104.048C101.57 104.108 101.62 104.257 101.56 104.376C99.8893 107.718 98.9992 116.714 98.9992 118.116C98.9942 118.255 98.8848 118.365 98.7505 118.365Z" fill="#C4C4C4"/>
<path fill-rule="evenodd" clip-rule="evenodd" d="M74.2746 94.2861C74.6425 99.075 80.8586 122.114 80.8586 122.114L69.2868 104.669L72.7429 101.905L68.2524 98.9705C68.2524 98.9705 72.723 94.2861 74.2746 94.2861Z" fill="#C4C4C4"/>
<path fill-rule="evenodd" clip-rule="evenodd" d="M91.525 94.3508C90.7691 98.1053 85.9106 122.114 85.9106 122.114L96.0552 104.669L92.5991 101.905L97.0896 98.9706C97.0946 98.9706 93.0765 94.3508 91.525 94.3508Z" fill="#C4C4C4"/>
<path fill-rule="evenodd" clip-rule="evenodd" d="M111.566 102.675C109.542 108.608 101.849 117.191 106.752 123.173C111.655 129.156 119.134 124.307 119.94 113.994C120.746 103.685 118.697 103.392 118.697 103.392L111.566 102.675Z" fill="white"/>
<path d="M94.2899 128.365C94.1855 128.365 94.086 128.295 94.0562 128.186C94.0164 128.057 94.096 127.917 94.2253 127.883C97.9549 126.809 100.337 125.088 100.362 125.073C100.471 124.993 100.625 125.018 100.705 125.128C100.784 125.237 100.76 125.391 100.65 125.471C100.551 125.545 98.1737 127.256 94.3595 128.355C94.3347 128.365 94.3098 128.365 94.2899 128.365Z" fill="#C4C4C4"/>
<path d="M106.2 120.404C106.081 120.404 105.976 120.314 105.956 120.19C105.593 117.539 105.733 114.183 109.154 107.618C109.219 107.499 109.363 107.449 109.487 107.514C109.607 107.579 109.656 107.723 109.592 107.847C106.235 114.292 106.096 117.559 106.444 120.13C106.464 120.264 106.369 120.389 106.235 120.409C106.22 120.404 106.21 120.404 106.2 120.404Z" fill="#C4C4C4"/>
<path d="M103.351 118.076C103.326 118.076 103.301 118.071 103.276 118.066C103.147 118.026 103.077 117.887 103.117 117.758C103.848 115.49 106.608 113.929 106.727 113.864C106.847 113.8 106.996 113.839 107.061 113.959C107.125 114.078 107.085 114.227 106.966 114.292C106.941 114.307 104.256 115.823 103.585 117.907C103.55 118.012 103.455 118.076 103.351 118.076Z" fill="#C4C4C4"/>
<path d="M116.514 113.029C114.624 113.029 111.063 112.303 109.204 107.23C109.159 107.101 109.224 106.962 109.348 106.917C109.477 106.872 109.616 106.937 109.661 107.061C111.685 112.581 115.683 112.696 117.309 112.487C118.955 112.278 120.109 111.512 120.149 111.099C120.164 110.965 120.283 110.866 120.417 110.881C120.552 110.895 120.651 111.015 120.636 111.149C120.557 111.94 119.09 112.76 117.369 112.979C117.16 113.004 116.867 113.029 116.514 113.029Z" fill="#C4C4C4"/>
<path d="M83.2758 104.343C83.7761 104.137 84.0145 103.564 83.8084 103.064C83.6022 102.564 83.0296 102.325 82.5293 102.531C82.0291 102.737 81.7906 103.31 81.9968 103.81C82.2029 104.311 82.7756 104.549 83.2758 104.343Z" fill="#93C2A7"/>
<path fill-rule="evenodd" clip-rule="evenodd" d="M82.9025 108.429C83.4445 108.429 83.8822 107.991 83.8822 107.449C83.8822 106.907 83.4445 106.47 82.9025 106.47C82.3654 106.47 81.9229 106.912 81.9229 107.449C81.9229 107.991 82.3605 108.429 82.9025 108.429Z" fill="#93C2A7"/>
<path fill-rule="evenodd" clip-rule="evenodd" d="M82.9025 112.442C83.4445 112.442 83.8822 112.004 83.8822 111.462C83.8822 110.925 83.4445 110.483 82.9025 110.483C82.3654 110.483 81.9229 110.92 81.9229 111.462C81.9229 112.004 82.3605 112.442 82.9025 112.442Z" fill="#93C2A7"/>
<path fill-rule="evenodd" clip-rule="evenodd" d="M82.8131 100.87C78.442 100.87 75.1201 96.4145 75.1201 91.934C75.1201 87.4535 78.442 84.6488 82.8131 84.6488C87.1842 84.6488 90.5061 87.4535 90.5061 91.934C90.5061 96.4096 87.1842 100.87 82.8131 100.87Z" fill="#D6806B"/>
<path fill-rule="evenodd" clip-rule="evenodd" d="M56.9494 74.907C59.948 73.5395 63.8417 75.3596 65.6419 78.9698C67.447 82.5801 66.4773 86.6131 63.4787 87.9806C60.4801 89.3482 56.5863 87.5281 54.7862 83.9178C52.981 80.3075 53.9507 76.2746 56.9494 74.907Z" fill="#EAC19E"/>
<path fill-rule="evenodd" clip-rule="evenodd" d="M109.636 75.0462C106.637 73.6787 102.744 75.4987 100.943 79.109C99.1383 82.7193 100.108 86.7523 103.107 88.1198C106.105 89.4873 109.999 87.6673 111.799 84.057C113.604 80.4467 112.635 76.4137 109.636 75.0462Z" fill="#EAC19E"/>
<path fill-rule="evenodd" clip-rule="evenodd" d="M109.512 79.2334C109.855 81.1678 109.512 82.6895 107.786 84.1714C106.06 85.6583 105.195 85.5191 105.573 84.619C105.891 83.8681 106.095 82.8039 104.877 82.7144C104.643 82.6945 103.818 82.8934 103.47 83.2067C101.664 84.8229 102.987 80.9938 103.987 79.6511C104.986 78.3035 105.886 77.8211 105.886 77.8211C105.886 77.8211 108.716 76.7818 109.512 79.2334Z" fill="#D6806B"/>
<path fill-rule="evenodd" clip-rule="evenodd" d="M56.3826 79.2334C56.0395 81.1678 56.3826 82.6895 58.1082 84.1714C59.8338 85.6583 60.6991 85.5191 60.3211 84.619C59.9432 83.7189 59.1823 82.237 61.5643 82.6845C63.9463 83.1321 62.912 80.9938 61.9075 79.6461C60.9079 78.2985 60.0078 77.8161 60.0078 77.8161C60.0078 77.8161 57.1783 76.7818 56.3826 79.2334Z" fill="#D6806B"/>
<path d="M60.3702 85.1808C60.2608 85.1808 60.1564 85.1261 60.0917 85.0266C59.1767 83.5696 59.8132 82.8734 60.032 82.6994C60.594 82.2369 61.5637 82.3264 62.3245 82.8635C62.3295 82.8386 62.3345 82.8187 62.3345 82.7988C62.3544 82.6944 62.3693 82.5949 62.3892 82.5253C62.7174 81.2821 62.3345 80.0339 61.3349 79.094C60.3851 78.2039 59.1021 77.816 58.1424 78.1343C57.0931 78.4774 56.2079 79.7455 56.74 81.7147C56.7848 81.8888 56.6853 82.0678 56.5063 82.1175C56.3322 82.1673 56.1532 82.0628 56.1035 81.8888C55.467 79.5118 56.6058 77.9553 57.9335 77.5177C59.117 77.1248 60.6636 77.5724 61.7825 78.6216C62.961 79.7306 63.4136 81.2174 63.0207 82.6944C63.0058 82.7491 62.9959 82.8286 62.9809 82.9082C62.9163 83.2762 62.8666 83.5994 62.5881 83.689C62.4439 83.7387 62.2947 83.6989 62.1753 83.5845C61.5736 83.0126 60.7829 82.9231 60.4448 83.2016C60.1464 83.4503 60.216 83.9973 60.6437 84.6736C60.7382 84.8277 60.6934 85.0266 60.5393 85.1261C60.4895 85.1659 60.4299 85.1808 60.3702 85.1808Z" fill="#07243E"/>
<path d="M105.549 85.1809C105.489 85.1809 105.429 85.166 105.375 85.1312C105.221 85.0367 105.176 84.8328 105.27 84.6786C105.693 84.0023 105.768 83.4503 105.469 83.2067C105.131 82.9282 104.335 83.0177 103.739 83.5896C103.619 83.704 103.47 83.7388 103.326 83.694C103.047 83.5995 102.993 83.2813 102.933 82.9133C102.918 82.8287 102.908 82.7541 102.893 82.6994C102.5 81.2175 102.953 79.7307 104.132 78.6267C105.25 77.5724 106.797 77.1299 107.981 77.5227C109.308 77.9603 110.452 79.5168 109.811 81.8938C109.766 82.0679 109.582 82.1723 109.408 82.1226C109.234 82.0778 109.129 81.8938 109.174 81.7198C109.701 79.7505 108.816 78.4825 107.772 78.1393C106.812 77.8211 105.524 78.209 104.579 79.0991C103.58 80.039 103.197 81.2872 103.525 82.5304C103.545 82.6 103.56 82.6994 103.58 82.8039C103.585 82.8238 103.585 82.8437 103.59 82.8685C104.355 82.3314 105.32 82.2419 105.882 82.7044C106.101 82.8834 106.737 83.5747 105.822 85.0317C105.763 85.1262 105.658 85.1809 105.549 85.1809Z" fill="#07243E"/>
<path fill-rule="evenodd" clip-rule="evenodd" d="M82.8129 51.0621C70.4653 51.0621 61.0815 63.6534 61.0815 76.3043C61.0815 88.9552 70.4703 96.8769 82.8129 96.8769C95.1604 96.8769 104.539 88.9552 104.539 76.3043C104.544 63.6534 95.1604 51.0621 82.8129 51.0621Z" fill="#EAC19E"/>
<path fill-rule="evenodd" clip-rule="evenodd" d="M68.5057 57.5916C64.7612 61.53 62.1902 66.856 61.3647 72.4454C61.4344 73.3107 61.5338 74.2058 61.6581 75.1208C64.7662 75.1208 68.9135 71.1475 69.3412 68.9048C69.7738 66.657 68.9085 71.4111 79.0979 72.53C89.2873 73.6538 89.1132 72.8731 89.1132 72.8731L85.314 70.8889C85.314 70.8889 89.889 73.3057 95.9359 73.435C100.591 73.5345 103.251 72.6891 104.226 72.2913C104.196 72.1023 104.166 71.9133 104.131 71.7244C101.729 70.0485 91.5151 63.191 82.2954 61.0029C75.234 59.3271 71.3104 57.7606 68.5057 57.5916Z" fill="#D6806B"/>
<path fill-rule="evenodd" clip-rule="evenodd" d="M59.406 69.6855C58.0136 77.637 61.9919 82.5502 61.9919 82.5502L63.8368 67.0946L59.406 69.6855Z" fill="#07243E"/>
<path fill-rule="evenodd" clip-rule="evenodd" d="M105.832 69.6855C107.632 77.637 103.455 82.5502 103.455 82.5502L101.073 67.0946L105.832 69.6855Z" fill="#07243E"/>
<path fill-rule="evenodd" clip-rule="evenodd" d="M53.9355 72.0825C55.2484 73.8826 60.2361 75.6132 63.8315 73.813C66.4025 72.525 67.7899 67.5124 68.1579 64.0861C68.2275 63.4546 67.9739 61.9926 68.2573 62.3904C71.3156 66.6223 73.8269 69.3026 79.4711 70.9735C87.6365 73.3953 89.5759 73.1864 89.5759 73.1864L82.7233 68.6164C82.7233 68.6164 91.4457 72.4902 99.1238 72.4206C106.807 72.351 112.69 68.7507 112.69 68.7507C112.69 68.7507 107.428 67.6417 107.155 58.0939C106.876 48.541 81.689 34.9801 67.2926 51.1717C66.6312 51.9126 65.6565 51.6491 64.7018 51.3308C61.4794 50.2616 58.4608 54.399 57.521 57.0545C54.5373 65.5084 62.4292 68.8253 53.9355 72.0825Z" fill="#07243E"/>
<path fill-rule="evenodd" clip-rule="evenodd" d="M71.5349 47.4221C77.0398 49.9782 83.4399 51.7634 90.2328 51.3407C90.8793 51.3009 91.5108 51.2512 92.1275 51.2015C95.6681 50.8932 98.8259 50.3611 101.626 49.7047C104.644 52.0618 106.668 54.8018 107.076 57.333C104.828 57.6413 102.536 57.8104 100.218 57.8452C88.92 58.0192 77.1194 55.0803 67.9346 50.4854C69.0833 49.2919 70.2867 48.2774 71.5349 47.4221Z" fill="#1A4968"/>
<path fill-rule="evenodd" clip-rule="evenodd" d="M74.0357 82.3812C76.5768 82.3812 78.6505 80.4517 78.6505 78.0846C78.6505 75.7175 76.5768 73.7881 74.0357 73.7881C71.4946 73.7881 69.4209 75.7175 69.4209 78.0846C69.4209 80.4517 71.4946 82.3812 74.0357 82.3812Z" fill="white"/>
<path fill-rule="evenodd" clip-rule="evenodd" d="M91.7291 82.3812C94.2702 82.3812 96.3439 80.4517 96.3439 78.0846C96.3439 75.7175 94.2702 73.7881 91.7291 73.7881C89.1879 73.7881 87.1143 75.7175 87.1143 78.0846C87.1143 80.4517 89.1879 82.3812 91.7291 82.3812Z" fill="white"/>
<path d="M69.6497 80.0438C69.3364 79.4272 69.1772 78.7707 69.1772 78.0845C69.1772 75.5782 71.3553 73.5393 74.0357 73.5393C76.7161 73.5393 78.8942 75.5782 78.8942 78.0845H78.4019C78.4019 75.8517 76.4426 74.0316 74.0357 74.0316C71.6289 74.0316 69.6696 75.8517 69.6696 78.0845C69.6696 78.6912 69.8088 79.273 70.0873 79.82L69.6497 80.0438Z" fill="#07243E"/>
<path d="M95.8967 80.1781C95.8569 80.1781 95.8221 80.1681 95.7873 80.1532C95.668 80.0935 95.6182 79.9443 95.6829 79.82C95.9614 79.278 96.1006 78.6912 96.1006 78.0845C96.1006 75.8517 94.1413 74.0316 91.7344 74.0316C89.3276 74.0316 87.3633 75.8517 87.3633 78.0845C87.3633 78.2188 87.2539 78.3282 87.1196 78.3282C86.9854 78.3282 86.876 78.2188 86.876 78.0845C86.876 75.5782 89.0541 73.5393 91.7344 73.5393C94.4148 73.5393 96.5929 75.5782 96.5929 78.0845C96.5929 78.7707 96.4338 79.4272 96.1205 80.0438C96.0757 80.1283 95.9862 80.1781 95.8967 80.1781Z" fill="#07243E"/>
<path fill-rule="evenodd" clip-rule="evenodd" d="M91.1421 81.1975C92.7632 81.1975 94.081 79.8797 94.081 78.2585C94.081 76.6424 92.7632 75.3196 91.1421 75.3196C89.5209 75.3196 88.2031 76.6374 88.2031 78.2585C88.2031 79.8747 89.5209 81.1975 91.1421 81.1975Z" fill="#07243E"/>
<path fill-rule="evenodd" clip-rule="evenodd" d="M89.3717 77.7514C89.9138 77.7514 90.3514 77.3138 90.3514 76.7718C90.3514 76.2347 89.9138 75.7921 89.3717 75.7921C88.8347 75.7921 88.3921 76.2297 88.3921 76.7718C88.3921 77.3088 88.8347 77.7514 89.3717 77.7514Z" fill="white"/>
<path fill-rule="evenodd" clip-rule="evenodd" d="M74.7222 81.1975C76.3433 81.1975 77.6611 79.8797 77.6611 78.2585C77.6611 76.6424 76.3433 75.3196 74.7222 75.3196C73.101 75.3196 71.7832 76.6374 71.7832 78.2585C71.7832 79.8747 73.101 81.1975 74.7222 81.1975Z" fill="#07243E"/>
<path fill-rule="evenodd" clip-rule="evenodd" d="M72.5094 77.7514C73.0515 77.7514 73.4891 77.3138 73.4891 76.7718C73.4891 76.2347 73.0515 75.7921 72.5094 75.7921C71.9724 75.7921 71.5298 76.2297 71.5298 76.7718C71.5298 77.3088 71.9674 77.7514 72.5094 77.7514Z" fill="white"/>
<path d="M70.3011 71.8088C70.1768 71.8088 70.0475 71.764 69.9431 71.6795C69.7094 71.4806 69.6795 71.1275 69.8784 70.8938C70.9277 69.6456 72.6582 68.9892 74.4982 69.1334C74.8065 69.1583 75.0353 69.4268 75.0104 69.7351C74.9855 70.0434 74.717 70.2722 74.4087 70.2473C72.9218 70.1329 71.5493 70.6402 70.7288 71.6149C70.6194 71.7441 70.4603 71.8088 70.3011 71.8088Z" fill="#07243E"/>
<path d="M95.3097 71.8089C95.1506 71.8089 94.9914 71.7393 94.882 71.61C94.0764 70.6552 92.7288 70.143 91.2668 70.2375C90.9585 70.2574 90.6949 70.0236 90.675 69.7203C90.6551 69.412 90.8888 69.1484 91.1922 69.1285C93.0023 69.0092 94.703 69.6706 95.7324 70.8939C95.9313 71.1276 95.9015 71.4807 95.6628 71.6796C95.5633 71.7691 95.439 71.8089 95.3097 71.8089Z" fill="#07243E"/>
<path fill-rule="evenodd" clip-rule="evenodd" d="M76.9204 85.8621C88.6265 85.8621 89.074 85.8621 89.074 85.8621C88.0745 93.3164 78.1238 93.739 76.9204 85.8621Z" fill="#07243E"/>
<path fill-rule="evenodd" clip-rule="evenodd" d="M87.3431 89.7012C85.0108 92.2075 80.9828 92.2871 78.6406 89.7012C80.9878 87.1153 85.0158 87.1949 87.3431 89.7012Z" fill="#BC3C34"/>
<path fill-rule="evenodd" clip-rule="evenodd" d="M81.2212 82.595C84.6475 82.595 84.7817 82.595 84.7817 82.595C84.4834 84.7731 81.5693 84.9024 81.2212 82.595Z" fill="#D6806B"/>
<path d="M71.0917 87.2396C73.0115 87.2396 74.5678 86.4003 74.5678 85.3649C74.5678 84.3295 73.0115 83.4901 71.0917 83.4901C69.172 83.4901 67.6157 84.3295 67.6157 85.3649C67.6157 86.4003 69.172 87.2396 71.0917 87.2396Z" fill="#D6806B"/>
<path d="M96.3095 87.2396C98.2293 87.2396 99.7855 86.4003 99.7855 85.3649C99.7855 84.3295 98.2293 83.4901 96.3095 83.4901C94.3898 83.4901 92.8335 84.3295 92.8335 85.3649C92.8335 86.4003 94.3898 87.2396 96.3095 87.2396Z" fill="#D6806B"/>
<path fill-rule="evenodd" clip-rule="evenodd" d="M83.6683 79.6759C83.8523 79.6759 84.0512 80.1135 84.1109 80.6556C84.1706 81.1976 84.0711 81.6352 83.8871 81.6352C83.7031 81.6352 83.5042 81.1976 83.4446 80.6556C83.3849 80.1135 83.4843 79.6759 83.6683 79.6759Z" fill="white"/>
<path fill-rule="evenodd" clip-rule="evenodd" d="M119.736 96.5637C123.769 101.745 125.738 102.78 125.141 104.65C124.545 106.519 120.487 109.836 118.189 110.085C115.892 110.334 112.729 103.938 113.545 101.094C114.36 98.2495 116.976 97.6926 119.736 96.5637Z" fill="#D6806B"/>
<path fill-rule="evenodd" clip-rule="evenodd" d="M110.696 101.387C111.099 98.523 110.686 94.2066 110.696 94.2016C111.332 93.9033 112.272 93.8038 113.088 94.8531C114.157 96.2305 114.813 99.4927 114.813 99.4927C114.813 99.4927 121.502 104.167 118.866 109.503C118.006 111.249 109.681 108.573 110.696 101.387Z" fill="#EAC19E"/>
<path d="M119.607 106.907C119.457 106.907 119.333 106.793 119.323 106.639C119.129 103.859 117.284 100.875 115.206 99.985C115.061 99.9253 114.992 99.7562 115.056 99.612C115.116 99.4678 115.285 99.3982 115.429 99.4629C117.687 100.428 119.686 103.63 119.89 106.604C119.9 106.763 119.781 106.897 119.627 106.907C119.622 106.907 119.617 106.907 119.607 106.907Z" fill="#D6806B"/>
<path fill-rule="evenodd" clip-rule="evenodd" d="M114.331 100.075C116.629 101.367 118.036 104.58 117.469 107.22C117.429 107.404 114.391 99.9005 114.331 100.075Z" fill="#EAC19E"/>
<path d="M123.327 107.951C123.058 107.951 122.79 107.817 122.636 107.574L108.533 85.4345C108.289 85.0515 108.403 84.5443 108.781 84.3056C109.164 84.0619 109.671 84.1763 109.91 84.5543L124.013 106.693C124.257 107.076 124.142 107.583 123.764 107.822C123.63 107.912 123.476 107.951 123.327 107.951Z" fill="#EAEBEB"/>
<path fill-rule="evenodd" clip-rule="evenodd" d="M107.563 85.3599C109.239 85.3599 110.601 83.9973 110.601 82.3215C110.601 80.6456 109.239 79.2831 107.563 79.2831C105.887 79.2831 104.524 80.6506 104.524 82.3215C104.524 83.9973 105.887 85.3599 107.563 85.3599Z" fill="#EAEBEB"/>
<path fill-rule="evenodd" clip-rule="evenodd" d="M107.563 84.1416C108.563 84.1416 109.383 83.3261 109.383 82.3265C109.383 81.327 108.568 80.5065 107.563 80.5065C106.564 80.5065 105.743 81.322 105.743 82.3265C105.743 83.3261 106.564 84.1416 107.563 84.1416Z" fill="#B8CFED"/>
<path d="M123.714 110.328C123.157 110.328 122.615 110.045 122.307 109.533L113.192 94.3209C112.729 93.5451 112.978 92.5406 113.754 92.0732C114.53 91.6057 115.534 91.8593 116.001 92.6351L125.117 107.847C125.584 108.623 125.331 109.627 124.555 110.095C124.291 110.254 123.998 110.328 123.714 110.328Z" fill="#07243E"/>
<path fill-rule="evenodd" clip-rule="evenodd" d="M118.19 92.9434C114.669 95.6586 113.699 97.2748 115.634 98.4981C116.892 99.2937 118.926 97.777 120.194 96.2056C122.029 93.933 120.363 92.1527 118.19 92.9434Z" fill="#EAC19E"/>
<path fill-rule="evenodd" clip-rule="evenodd" d="M120.721 95.7829C117.111 98.3738 115.54 100.139 117.434 101.432C118.667 102.273 121.288 100.641 122.616 99.1148C124.525 96.9068 122.924 95.0669 120.721 95.7829Z" fill="#EAC19E"/>
<path fill-rule="evenodd" clip-rule="evenodd" d="M122.804 99.3733C119.273 100.93 117.627 102.148 119.005 103.58C119.9 104.515 122.421 103.595 123.813 102.536C125.832 101.004 124.798 99.1545 122.804 99.3733Z" fill="#EAC19E"/>
<path fill-rule="evenodd" clip-rule="evenodd" d="M123.858 102.422C120.83 103.635 119.408 104.615 120.527 105.868C121.258 106.683 123.411 105.977 124.624 105.127C126.375 103.884 125.554 102.292 123.858 102.422Z" fill="#EAC19E"/>
<path d="M117.065 99.1544C116.986 99.1544 116.906 99.1196 116.852 99.055C116.747 98.9356 116.762 98.7566 116.876 98.6522C118.02 97.6576 120.074 96.1558 120.094 96.1409C120.223 96.0464 120.402 96.0762 120.492 96.2055C120.586 96.3348 120.556 96.5138 120.427 96.6034C120.407 96.6183 118.373 98.1051 117.249 99.0848C117.2 99.1296 117.13 99.1544 117.065 99.1544Z" fill="#D6806B"/>
<path d="M118.97 101.86C118.881 101.86 118.786 101.815 118.732 101.735C118.642 101.606 118.677 101.427 118.811 101.338C119.995 100.542 122.024 99.418 122.108 99.3683C122.247 99.2937 122.422 99.3434 122.496 99.4827C122.571 99.6219 122.521 99.796 122.382 99.8706C122.362 99.8805 120.288 101.029 119.125 101.81C119.08 101.845 119.025 101.86 118.97 101.86Z" fill="#D6806B"/>
<path d="M120.74 104.386C120.651 104.386 120.556 104.341 120.502 104.262C120.412 104.132 120.447 103.953 120.581 103.864C121.765 103.068 123.794 101.944 123.878 101.895C124.018 101.82 124.192 101.87 124.266 102.004C124.341 102.143 124.291 102.317 124.152 102.392C124.132 102.402 122.058 103.551 120.895 104.331C120.85 104.371 120.795 104.386 120.74 104.386Z" fill="#D6806B"/>
<path fill-rule="evenodd" clip-rule="evenodd" d="M92.6884 125.64C82.8174 122.179 71.8125 119.608 62.5779 120.498C39.847 122.686 35.5853 141.568 39.658 159.197C43.8303 177.238 56.69 194.131 63.9504 204.39C76.661 222.352 81.9123 227.325 91.0275 212.128C100.148 196.931 104.29 203.838 110.372 214.892C116.449 225.947 127.23 219.035 141.318 179.799C159.33 129.653 130.502 89.1989 92.6884 125.64Z" fill="#EAEBEB"/>
<path fill-rule="evenodd" clip-rule="evenodd" d="M82.0371 158.341C76.1691 159.207 73.6131 161.539 77.4322 168.381C80.9629 174.702 88.8847 178.76 95.6776 178.68C108.532 178.536 114.092 170.952 116.772 159.231C117.812 154.686 114.52 151.782 108.488 154.139C104.4 155.735 99.3078 157.262 95.4041 157.829C91.3661 158.411 86.438 157.695 82.0371 158.341Z" fill="#07243E"/>
<path fill-rule="evenodd" clip-rule="evenodd" d="M82.9219 174.408C86.7112 177.153 91.4155 178.73 95.6722 178.68C105.051 178.576 110.551 174.508 113.878 167.76C109.984 164.721 103.748 163.433 97.2039 164.786C90.5204 166.168 85.2193 169.948 82.9219 174.408Z" fill="#BC3C34"/>
<path fill-rule="evenodd" clip-rule="evenodd" d="M126.767 149.743C122.307 150.738 119.129 153.493 119.666 155.9C120.203 158.306 124.251 159.45 128.712 158.456C133.172 157.461 136.35 154.706 135.813 152.299C135.276 149.892 131.228 148.749 126.767 149.743Z" fill="#CB726E"/>
<path fill-rule="evenodd" clip-rule="evenodd" d="M56.7399 129.653C49.1414 131.209 42.0601 140.877 44.825 154.865C47.5899 168.854 55.3624 156.939 63.9953 146.576C72.6281 136.212 68.3117 127.062 56.7399 129.653Z" fill="white"/>
<path fill-rule="evenodd" clip-rule="evenodd" d="M64.8758 167.546C69.4309 167.546 73.1506 165.542 73.1506 163.085C73.1506 160.629 69.4359 158.625 64.8758 158.625C60.3207 158.625 56.606 160.629 56.606 163.085C56.601 165.537 60.3207 167.546 64.8758 167.546Z" fill="#CB726E"/>
<path d="M87.795 150.38H85.1743C85.1743 147.341 82.479 144.87 79.1622 144.87C75.8453 144.87 73.15 147.341 73.15 150.38H70.5293C70.5293 145.894 74.4031 142.244 79.1622 142.244C83.9212 142.249 87.795 145.899 87.795 150.38Z" fill="#07243E"/>
<path d="M102.486 147.446C101.551 143.06 104.574 138.684 109.234 137.689C111.471 137.212 113.754 137.575 115.664 138.718C117.603 139.877 118.921 141.697 119.378 143.84L116.812 144.387C116.509 142.965 115.624 141.752 114.316 140.966C112.978 140.166 111.367 139.912 109.781 140.25C106.538 140.941 104.415 143.925 105.052 146.899L102.486 147.446Z" fill="#07243E"/>
<path fill-rule="evenodd" clip-rule="evenodd" d="M93.8872 182.375C91.6196 182.708 90.63 183.613 92.1069 186.259C93.4745 188.7 96.5377 190.272 99.1634 190.242C104.136 190.187 106.285 187.253 107.319 182.723C107.722 180.963 106.449 179.844 104.116 180.754C102.535 181.37 100.566 181.962 99.059 182.181C97.4975 182.4 95.5879 182.126 93.8872 182.375Z" fill="#C4C4C4"/>
<path fill-rule="evenodd" clip-rule="evenodd" d="M130.547 119.066C127.225 115.749 118.09 113.357 110.248 117.29C102.411 121.219 114.549 124.491 124.336 125.978C134.123 127.46 136.271 123.934 130.547 119.066Z" fill="white"/>
<path fill-rule="evenodd" clip-rule="evenodd" d="M83.0815 198.213C70.7986 201.873 62.2652 199.869 53.687 189.591C57.3968 195.324 61.1065 200.367 63.951 204.39C76.6615 222.352 81.9129 227.325 91.0281 212.128C100.148 196.93 104.291 203.838 110.372 214.892C115.987 225.102 125.614 219.985 138.161 188.208C126.047 199.685 120.04 196.856 108.095 192.823C102.167 190.819 100.611 191.361 93.1664 193.464C91.1474 194.036 86.0005 197.343 83.0815 198.213Z" fill="#C4C4C4"/>
<path fill-rule="evenodd" clip-rule="evenodd" d="M171.414 176.358C166.635 196.96 168.366 220.278 168.366 220.278L178.038 219.935C178.038 219.935 181.494 185.394 191.853 187.467C202.216 189.541 201.525 219.935 201.525 219.935L212.331 220.402C212.331 220.402 216.379 182.634 205.672 168.471C197.566 157.755 176.069 156.283 171.414 176.358Z" fill="#1A4968"/>
<path d="M198.451 189.049C198.391 189.049 198.326 189.034 198.272 188.994C195.318 187.065 188.56 187.02 183.816 188.895C183.647 188.964 183.458 188.88 183.393 188.711C183.328 188.541 183.408 188.352 183.577 188.283C188.49 186.343 195.527 186.418 198.635 188.442C198.784 188.541 198.829 188.745 198.729 188.895C198.665 188.994 198.555 189.049 198.451 189.049Z" fill="#07243E"/>
<path fill-rule="evenodd" clip-rule="evenodd" d="M168.282 220.303C163.279 222.377 155.482 228.051 158.371 228.747C162.399 229.717 178.203 228.608 178.203 228.608C178.203 228.608 178.894 220.542 177.944 219.985C177.68 219.831 169.177 219.935 168.282 220.303Z" fill="#07243E"/>
<path d="M158.579 227.3C158.4 227.3 158.251 227.156 158.251 226.972C158.251 226.793 158.395 226.643 158.579 226.643C159.559 226.643 177.998 226.26 178.182 226.255H178.187C178.366 226.255 178.51 226.4 178.515 226.579C178.52 226.758 178.376 226.907 178.197 226.912C177.436 226.927 159.564 227.3 158.579 227.3Z" fill="#0D3153"/>
<path fill-rule="evenodd" clip-rule="evenodd" d="M211.67 220.303C216.672 222.377 224.47 228.051 221.58 228.747C217.552 229.717 201.749 228.608 201.749 228.608C201.749 228.608 201.057 220.542 202.007 219.985C202.276 219.831 210.774 219.935 211.67 220.303Z" fill="#07243E"/>
<path d="M201.828 227.3C201.729 227.3 201.659 227.3 201.619 227.3C201.44 227.3 201.291 227.151 201.296 226.967C201.296 226.788 201.44 226.638 201.629 226.643C202.604 226.653 221.048 226.509 221.232 226.509C221.411 226.509 221.56 226.653 221.56 226.832C221.56 227.011 221.416 227.16 221.237 227.16C220.506 227.17 204.076 227.3 201.828 227.3Z" fill="#0D3153"/>
<path fill-rule="evenodd" clip-rule="evenodd" d="M190.48 177.243C179.132 177.243 179.61 167.098 179.61 155.273C179.61 147.515 173.896 139.484 179.823 136.66C182.931 135.178 186.582 134.417 190.48 134.417C194.807 134.417 198.82 135.352 202.132 137.167C207.502 140.111 200.491 146.227 200.491 153.547C200.486 165.368 201.823 177.243 190.48 177.243Z" fill="#6AA089"/>
<path fill-rule="evenodd" clip-rule="evenodd" d="M190.48 140.19C186.109 140.19 182.782 135.735 182.782 131.254C182.782 126.774 186.104 123.969 190.48 123.969C194.851 123.969 198.173 126.774 198.173 131.254C198.173 135.735 194.851 140.19 190.48 140.19Z" fill="#D6806B"/>
<path fill-rule="evenodd" clip-rule="evenodd" d="M181.737 135.362C161.358 138.037 154.799 157.595 154.799 159.495C154.799 161.395 161.189 165.711 161.189 165.711C161.189 165.711 184.547 151.245 184.547 149.693C184.547 148.137 181.737 135.362 181.737 135.362Z" fill="white"/>
<path fill-rule="evenodd" clip-rule="evenodd" d="M184.288 130.881C185.979 136.774 190.474 140.305 190.474 140.305C190.474 140.305 185.084 144.576 182.916 140.608C180.752 136.64 181.284 131.617 184.288 130.881Z" fill="#93C2A7"/>
<path fill-rule="evenodd" clip-rule="evenodd" d="M196.473 130.493C194.782 136.386 190.48 140.305 190.48 140.305C190.48 140.305 195.871 144.576 198.039 140.608C200.207 136.64 199.481 131.229 196.473 130.493Z" fill="#93C2A7"/>
<path fill-rule="evenodd" clip-rule="evenodd" d="M200.222 136.481C214.534 141.966 224.226 156.382 224.226 158.282C224.226 160.181 216.627 164.93 216.627 164.93C216.627 164.93 196.731 152.503 196.731 150.952C196.731 149.4 200.222 136.481 200.222 136.481Z" fill="white"/>
<path fill-rule="evenodd" clip-rule="evenodd" d="M187.312 181.599C178.843 182.176 173.154 180.421 168.142 175.468C175.138 159.147 175.288 161.559 171.508 144.208C174.532 141.473 177.55 138.738 180.574 136.003C183.165 144.755 185.755 153.503 188.346 162.255L187.312 181.599Z" fill="white"/>
<path fill-rule="evenodd" clip-rule="evenodd" d="M193.568 181.599C202.037 182.176 206.816 179.128 211.833 174.175C204.836 157.854 205.204 161.564 208.984 144.213C205.96 141.478 202.937 138.743 199.918 136.008C197.327 144.76 196.164 153.508 193.573 162.26V181.599H193.568Z" fill="white"/>
<path d="M174.114 158.093C173.98 158.093 173.871 157.983 173.871 157.849C173.871 156.447 172.98 147.451 171.305 144.109C171.245 143.99 171.295 143.84 171.414 143.781C171.533 143.721 171.683 143.771 171.742 143.89C173.448 147.302 174.358 156.432 174.358 157.849C174.358 157.983 174.249 158.093 174.114 158.093Z" fill="#C4C4C4"/>
<path d="M206.408 158.51C206.273 158.51 206.164 158.401 206.164 158.267C206.164 156.844 207.074 147.719 208.78 144.308C208.839 144.189 208.989 144.139 209.108 144.199C209.227 144.258 209.277 144.407 209.217 144.527C207.547 147.868 206.656 156.864 206.656 158.267C206.656 158.401 206.547 158.51 206.408 158.51Z" fill="#C4C4C4"/>
<path fill-rule="evenodd" clip-rule="evenodd" d="M181.932 134.432C182.3 139.226 188.516 162.26 188.516 162.26L176.945 144.815L180.401 142.05L175.91 139.116C175.91 139.116 180.381 134.432 181.932 134.432Z" fill="#C4C4C4"/>
<path fill-rule="evenodd" clip-rule="evenodd" d="M199.182 134.496C198.426 138.251 193.568 162.26 193.568 162.26L203.712 144.815L200.256 142.05L204.747 139.116C204.752 139.116 200.739 134.496 199.182 134.496Z" fill="#C4C4C4"/>
<path fill-rule="evenodd" clip-rule="evenodd" d="M219.228 142.821C217.204 148.754 209.511 157.337 214.414 163.319C219.317 169.301 226.796 164.453 227.602 154.139C228.408 143.831 226.359 143.542 226.359 143.542L219.228 142.821Z" fill="white"/>
<path fill-rule="evenodd" clip-rule="evenodd" d="M172.414 166.432C166.69 163.274 165.591 144.024 160.201 149.057C147.286 161.106 158.485 172.728 168.421 174.742C171.703 175.408 170.28 177.178 171.046 173.324L172.414 166.432Z" fill="white"/>
<path fill-rule="evenodd" clip-rule="evenodd" d="M205.935 148.003C205.935 148.341 205.662 148.614 205.323 148.614C204.985 148.614 204.712 148.341 204.712 148.003C204.712 146.784 204.697 145.099 204.602 143.448C204.508 141.797 204.329 140.156 204.006 139.002C203.379 136.744 201.708 134.765 199.391 133.348C197.078 131.935 194.125 131.09 190.902 131.09C187.416 131.09 184.244 132.08 181.857 133.706C179.489 135.317 177.908 137.555 177.585 140.051C177.54 140.384 177.237 140.618 176.904 140.578C176.57 140.533 176.337 140.23 176.376 139.897C176.749 137.038 178.525 134.506 181.17 132.701C183.751 130.941 187.163 129.872 190.902 129.872C194.353 129.872 197.526 130.787 200.027 132.313C202.608 133.89 204.468 136.123 205.184 138.684C205.532 139.937 205.721 141.662 205.821 143.388C205.92 145.099 205.935 146.794 205.935 148.003Z" fill="#07243E"/>
<path d="M174.208 154.785H172.11C171.19 154.785 170.538 154.517 170.18 153.985C169.733 153.323 169.952 152.558 170.021 152.354L172.945 141.438C172.99 141.264 173.104 141.12 173.259 141.035C173.318 141.006 174.696 140.24 176.7 139.315C177.028 139.166 177.416 139.305 177.57 139.638C177.724 139.966 177.58 140.354 177.252 140.508C175.77 141.195 174.616 141.796 174.139 142.055L171.279 152.727C171.274 152.751 171.264 152.776 171.255 152.796C171.22 152.886 171.175 153.129 171.264 153.254C171.299 153.308 171.468 153.478 172.11 153.478H174.208C174.571 153.478 174.865 153.771 174.865 154.134C174.865 154.492 174.571 154.785 174.208 154.785Z" fill="#07243E"/>
<path d="M181.847 154.786H179.748C179.385 154.786 179.092 154.492 179.092 154.129C179.092 153.766 179.385 153.473 179.748 153.473H181.847C182.488 153.473 182.657 153.304 182.692 153.249C182.777 153.125 182.732 152.886 182.697 152.786C182.692 152.767 182.682 152.742 182.677 152.722L179.818 142.05C179.34 141.791 178.187 141.19 176.705 140.504C176.377 140.354 176.232 139.961 176.387 139.633C176.541 139.305 176.929 139.161 177.257 139.31C179.266 140.235 180.643 141.001 180.703 141.031C180.857 141.115 180.972 141.264 181.016 141.433L183.94 152.349C184.01 152.553 184.229 153.319 183.781 153.98C183.418 154.517 182.767 154.786 181.847 154.786Z" fill="#07243E"/>
<path d="M180.007 168.128C179.107 168.128 176.143 167.974 172.772 166.149C172.652 166.084 172.608 165.935 172.672 165.815C172.737 165.696 172.886 165.651 173.005 165.716C176.849 167.795 180.221 167.631 180.251 167.626C180.385 167.621 180.504 167.72 180.509 167.859C180.519 167.994 180.415 168.113 180.281 168.118C180.256 168.123 180.161 168.128 180.007 168.128Z" fill="#C4C4C4"/>
<path fill-rule="evenodd" clip-rule="evenodd" d="M205.418 153.518C207.312 153.518 208.859 151.971 208.859 150.076C208.859 148.182 207.312 146.635 205.418 146.635C203.523 146.635 201.977 148.182 201.977 150.076C201.977 151.971 203.523 153.518 205.418 153.518Z" fill="#AFB0B0"/>
<path fill-rule="evenodd" clip-rule="evenodd" d="M205.419 151.966C206.458 151.966 207.308 151.116 207.308 150.076C207.308 149.037 206.458 148.187 205.419 148.187C204.379 148.187 203.529 149.037 203.529 150.076C203.524 151.121 204.374 151.966 205.419 151.966Z" fill="#07243E"/>
<path fill-rule="evenodd" clip-rule="evenodd" d="M174.935 155.074C175.621 155.074 176.178 154.517 176.178 153.831C176.178 153.145 175.621 152.588 174.935 152.588C174.249 152.588 173.692 153.145 173.692 153.831C173.692 154.517 174.249 155.074 174.935 155.074Z" fill="#07243E"/>
<path d="M174.934 155.174C174.194 155.174 173.592 154.572 173.592 153.831C173.592 153.09 174.194 152.488 174.934 152.488C175.675 152.488 176.277 153.09 176.277 153.831C176.277 154.572 175.675 155.174 174.934 155.174ZM174.934 152.687C174.303 152.687 173.791 153.199 173.791 153.831C173.791 154.462 174.303 154.975 174.934 154.975C175.566 154.975 176.078 154.462 176.078 153.831C176.078 153.199 175.566 152.687 174.934 152.687Z" fill="#07243E"/>
<path fill-rule="evenodd" clip-rule="evenodd" d="M178.823 155.074C179.51 155.074 180.066 154.517 180.066 153.831C180.066 153.145 179.51 152.588 178.823 152.588C178.137 152.588 177.58 153.145 177.58 153.831C177.58 154.517 178.137 155.074 178.823 155.074Z" fill="#07243E"/>
<path d="M178.824 155.174C178.083 155.174 177.481 154.572 177.481 153.831C177.481 153.09 178.083 152.488 178.824 152.488C179.565 152.488 180.166 153.09 180.166 153.831C180.161 154.572 179.56 155.174 178.824 155.174ZM178.824 152.687C178.192 152.687 177.68 153.199 177.68 153.831C177.68 154.462 178.192 154.975 178.824 154.975C179.455 154.975 179.967 154.462 179.967 153.831C179.967 153.199 179.455 152.687 178.824 152.687Z" fill="#07243E"/>
<path d="M201.947 168.511C201.843 168.511 201.743 168.441 201.713 168.332C201.674 168.202 201.753 168.063 201.882 168.028C205.612 166.954 207.994 165.234 208.019 165.219C208.128 165.139 208.283 165.164 208.362 165.273C208.442 165.383 208.417 165.537 208.307 165.617C208.208 165.691 205.836 167.402 202.017 168.501C201.992 168.511 201.972 168.511 201.947 168.511Z" fill="#C4C4C4"/>
<path d="M169.265 162.494C169.176 162.494 169.086 162.444 169.047 162.359C167.366 159.003 165.357 156.879 163.527 156.536C163.393 156.511 163.303 156.382 163.328 156.248C163.353 156.113 163.482 156.029 163.616 156.054C165.6 156.427 167.739 158.645 169.484 162.141C169.544 162.26 169.494 162.409 169.375 162.469C169.335 162.484 169.3 162.494 169.265 162.494Z" fill="#C4C4C4"/>
<path d="M168.485 160.873C168.351 160.873 168.241 160.763 168.241 160.624C168.241 158.51 167.635 155.358 166.73 154.03C166.655 153.916 166.685 153.766 166.794 153.687C166.909 153.612 167.058 153.637 167.137 153.751C168.177 155.278 168.734 158.724 168.734 160.619C168.734 160.763 168.624 160.873 168.485 160.873Z" fill="#C4C4C4"/>
<path d="M213.857 160.549C213.738 160.549 213.628 160.46 213.614 160.335C213.146 156.924 214.131 153.279 217.005 147.764C217.07 147.645 217.214 147.6 217.338 147.66C217.458 147.724 217.507 147.873 217.443 147.993C213.952 154.701 213.773 157.859 214.101 160.271C214.121 160.405 214.026 160.529 213.892 160.549C213.882 160.549 213.867 160.549 213.857 160.549Z" fill="#C4C4C4"/>
<path d="M211.008 158.222C210.983 158.222 210.958 158.217 210.933 158.212C210.804 158.172 210.734 158.033 210.774 157.904C211.505 155.636 214.265 154.075 214.384 154.01C214.503 153.945 214.653 153.985 214.717 154.104C214.782 154.224 214.742 154.373 214.623 154.438C214.598 154.453 211.913 155.969 211.241 158.053C211.211 158.152 211.112 158.222 211.008 158.222Z" fill="#C4C4C4"/>
<path d="M224.201 156.521C221.227 156.521 217.741 154.806 215.956 149.902C215.911 149.773 215.975 149.634 216.105 149.589C216.234 149.544 216.373 149.609 216.418 149.733C218.298 154.895 222.127 156.342 225.081 155.974C226.438 155.805 227.234 155.273 227.269 154.97C227.284 154.835 227.403 154.736 227.537 154.751C227.672 154.766 227.771 154.885 227.756 155.019C227.686 155.686 226.612 156.277 225.14 156.461C224.837 156.501 224.524 156.521 224.201 156.521Z" fill="#C4C4C4"/>
<path d="M164.859 173.822C164.795 173.822 164.725 173.797 164.68 173.742C163.79 172.772 163.681 170.052 164.431 167.551C164.924 165.9 166.202 163.021 169.205 162.27C169.335 162.24 169.469 162.315 169.504 162.449C169.539 162.578 169.459 162.712 169.325 162.747C166.56 163.438 165.366 166.144 164.904 167.69C164.153 170.202 164.372 172.673 165.048 173.409C165.138 173.508 165.133 173.663 165.033 173.757C164.978 173.797 164.919 173.822 164.859 173.822Z" fill="#C4C4C4"/>
<path d="M190.684 176.099C190.505 176.099 190.356 175.955 190.356 175.771V140.558C190.356 140.379 190.5 140.23 190.684 140.23C190.863 140.23 191.012 140.374 191.012 140.558V175.771C191.012 175.955 190.863 176.099 190.684 176.099Z" fill="#07243E"/>
<path fill-rule="evenodd" clip-rule="evenodd" d="M166.993 166.193C164.577 172.002 167.595 178.819 174.254 175.856C174.975 175.537 174.875 174.224 174.95 173.384C174.96 173.245 175.457 172.902 175.577 172.389C175.79 171.47 175.338 171.136 175.422 171.087C176.173 170.634 176.397 169.863 176.178 169.053C176.039 168.536 175.676 168.217 175.681 168.202C175.681 168.202 176.447 168.033 176.656 167.074C177.267 164.229 172.304 165.885 172.881 164.065C173.02 163.622 173.249 162.931 173.403 161.842C173.96 157.834 167.913 163.98 166.993 166.193Z" fill="#EAC19E"/>
<path d="M175.929 168.506C175.919 168.506 175.909 168.506 175.899 168.506C174.467 168.361 172.025 168.327 172.005 168.327C171.851 168.327 171.732 168.197 171.732 168.048C171.732 167.894 171.856 167.77 172.01 167.775C172.035 167.775 174.497 167.809 175.954 167.954C176.108 167.969 176.217 168.103 176.203 168.257C176.193 168.401 176.068 168.506 175.929 168.506Z" fill="#D6806B"/>
<path d="M171.618 171.803C171.478 171.803 171.359 171.698 171.344 171.559C171.329 171.405 171.439 171.271 171.588 171.251C171.682 171.241 173.91 170.987 175.293 170.957C175.442 170.947 175.571 171.072 175.576 171.226C175.581 171.38 175.457 171.504 175.307 171.509C173.955 171.544 171.677 171.798 171.652 171.803C171.638 171.803 171.628 171.803 171.618 171.803Z" fill="#D6806B"/>
<path d="M171.374 174.145C171.235 174.145 171.115 174.04 171.1 173.901C171.086 173.747 171.195 173.613 171.344 173.593C171.439 173.583 173.666 173.329 175.049 173.299C175.203 173.304 175.327 173.419 175.332 173.568C175.337 173.722 175.213 173.846 175.064 173.851C173.711 173.886 171.434 174.14 171.409 174.145C171.394 174.145 171.384 174.145 171.374 174.145Z" fill="#D6806B"/>
<path fill-rule="evenodd" clip-rule="evenodd" d="M164.616 114.232C167.615 112.865 171.509 114.685 173.309 118.295C175.114 121.905 174.144 125.938 171.146 127.306C168.147 128.673 164.253 126.853 162.453 123.243C160.648 119.628 161.618 115.595 164.616 114.232Z" fill="#EAC19E"/>
<path fill-rule="evenodd" clip-rule="evenodd" d="M217.309 114.366C214.31 112.999 210.416 114.819 208.616 118.429C206.811 122.039 207.781 126.072 210.779 127.44C213.778 128.808 217.672 126.987 219.472 123.377C221.277 119.767 220.307 115.734 217.309 114.366Z" fill="#EAC19E"/>
<path fill-rule="evenodd" clip-rule="evenodd" d="M217.179 118.554C217.527 120.488 217.179 122.01 215.454 123.492C213.728 124.978 212.863 124.839 213.246 123.939C213.564 123.188 213.768 122.124 212.544 122.03C212.311 122.01 211.485 122.209 211.137 122.522C209.332 124.138 210.655 120.309 211.654 118.966C212.654 117.619 213.554 117.136 213.554 117.136C213.554 117.136 216.388 116.102 217.179 118.554Z" fill="#D6806B"/>
<path fill-rule="evenodd" clip-rule="evenodd" d="M164.049 118.554C163.701 120.488 164.049 122.01 165.775 123.492C167.5 124.978 168.366 124.839 167.988 123.939C167.61 123.039 166.849 121.557 169.231 122.005C171.613 122.452 170.579 120.314 169.579 118.966C168.579 117.619 167.679 117.136 167.679 117.136C167.679 117.136 164.845 116.102 164.049 118.554Z" fill="#D6806B"/>
<path d="M168.037 124.501C167.928 124.501 167.823 124.446 167.759 124.347C166.844 122.89 167.48 122.194 167.699 122.02C168.261 121.557 169.231 121.647 169.996 122.184C170.001 122.159 170.006 122.139 170.006 122.119C170.026 122.015 170.041 121.915 170.061 121.846C170.389 120.602 170.006 119.354 169.007 118.414C168.057 117.524 166.774 117.136 165.814 117.455C164.765 117.803 163.88 119.071 164.412 121.035C164.457 121.209 164.357 121.388 164.178 121.438C164.004 121.483 163.825 121.383 163.775 121.204C163.139 118.827 164.278 117.271 165.605 116.833C166.789 116.44 168.335 116.888 169.454 117.937C170.633 119.046 171.085 120.533 170.693 122.015C170.678 122.069 170.668 122.149 170.653 122.228C170.588 122.596 170.538 122.92 170.26 123.009C170.116 123.059 169.967 123.019 169.847 122.905C169.245 122.333 168.455 122.243 168.117 122.522C167.813 122.766 167.888 123.318 168.316 123.994C168.41 124.148 168.365 124.347 168.211 124.446C168.156 124.486 168.097 124.501 168.037 124.501Z" fill="#07243E"/>
<path d="M213.216 124.501C213.156 124.501 213.096 124.486 213.042 124.451C212.888 124.357 212.843 124.153 212.937 123.999C213.365 123.323 213.435 122.771 213.136 122.527C212.798 122.248 212.002 122.338 211.406 122.91C211.286 123.024 211.137 123.059 210.993 123.014C210.714 122.92 210.66 122.602 210.6 122.229C210.585 122.144 210.575 122.069 210.56 122.015C210.167 120.533 210.62 119.051 211.799 117.942C212.917 116.888 214.464 116.445 215.648 116.838C216.975 117.276 218.119 118.832 217.478 121.209C217.433 121.383 217.249 121.488 217.075 121.443C216.901 121.398 216.796 121.214 216.841 121.04C217.368 119.071 216.483 117.803 215.439 117.46C214.479 117.141 213.191 117.529 212.246 118.419C211.247 119.359 210.864 120.607 211.192 121.851C211.212 121.92 211.227 122.02 211.247 122.124C211.252 122.144 211.252 122.164 211.257 122.189C212.022 121.652 212.987 121.562 213.554 122.025C213.773 122.204 214.409 122.895 213.494 124.357C213.435 124.446 213.325 124.501 213.216 124.501Z" fill="#07243E"/>
<path fill-rule="evenodd" clip-rule="evenodd" d="M190.48 90.3824C178.132 90.3824 168.749 102.974 168.749 115.625C168.749 128.276 178.137 136.197 190.48 136.197C202.827 136.197 212.206 128.276 212.206 115.625C212.211 102.974 202.827 90.3824 190.48 90.3824Z" fill="#EAC19E"/>
<path fill-rule="evenodd" clip-rule="evenodd" d="M175.9 97.2102C171.697 101.775 169.042 108.111 168.773 114.551C172.279 115.008 175.73 112.263 176.844 109.006C178.053 105.465 175.681 108.702 184.527 111.079C193.379 113.456 196.487 112.372 196.487 112.372L192.902 110.04C192.902 110.04 203.996 113.889 208.705 113.581C213.41 113.272 211.266 113.287 212.077 113.024C211.933 111.572 211.669 110.135 211.296 108.732C204.255 106.345 183.22 99.2491 175.9 97.2102Z" fill="#D6806B"/>
<path fill-rule="evenodd" clip-rule="evenodd" d="M167.073 109.006C165.681 116.957 169.659 121.871 169.659 121.871L171.499 106.415L167.073 109.006Z" fill="#07243E"/>
<path fill-rule="evenodd" clip-rule="evenodd" d="M213.499 109.006C215.304 116.957 211.122 121.871 211.122 121.871L208.74 106.415L213.499 109.006Z" fill="#07243E"/>
<path fill-rule="evenodd" clip-rule="evenodd" d="M161.603 111.403C162.915 113.203 167.898 114.933 171.498 113.133C174.069 111.845 175.457 106.833 175.825 103.406C175.894 102.775 175.641 101.313 175.924 101.711C178.983 105.942 181.494 108.623 187.138 110.294C195.303 112.715 197.243 112.507 197.243 112.507L190.39 107.937C190.39 107.937 199.113 111.81 206.791 111.741C214.474 111.671 220.357 108.071 220.357 108.071C220.357 108.071 215.095 106.962 214.822 97.4141C214.543 87.8612 189.356 74.3003 174.96 90.4919C174.298 91.2328 173.324 90.9692 172.369 90.651C169.146 89.5818 166.128 93.7192 165.188 96.3747C162.204 104.834 170.096 108.145 161.603 111.403Z" fill="#07243E"/>
<path fill-rule="evenodd" clip-rule="evenodd" d="M179.202 86.7473C184.706 89.3034 191.106 91.0886 197.899 90.6659C198.541 90.6261 199.177 90.5764 199.794 90.5267C203.335 90.2184 206.492 89.6863 209.287 89.0298C212.306 91.387 214.33 94.127 214.737 96.6582C212.49 96.9665 210.197 97.1356 207.88 97.1704C196.577 97.3444 184.781 94.4105 175.596 89.8106C176.75 88.6121 177.953 87.5977 179.202 86.7473Z" fill="#1A4968"/>
<path fill-rule="evenodd" clip-rule="evenodd" d="M166.829 107.419C166.113 107.966 165.094 107.827 164.547 107.111C164 106.395 164.139 105.376 164.855 104.829L164.94 104.764C164.974 104.739 165.009 104.714 165.044 104.689C171.056 100.174 181.156 97.3942 191.077 97.4937C201.167 97.5931 211.152 100.641 216.667 107.817L216.672 107.822L216.732 107.902C217.279 108.618 217.139 109.637 216.428 110.184C215.712 110.731 214.693 110.592 214.146 109.876L214.086 109.796C209.248 103.511 200.237 100.835 191.052 100.746C181.797 100.656 172.454 103.183 166.988 107.295C166.963 107.315 166.939 107.335 166.914 107.355L166.829 107.419Z" fill="#D8D8D8"/>
<path fill-rule="evenodd" clip-rule="evenodd" d="M190.48 107.161C194.378 107.161 197.561 103.978 197.561 100.079C197.561 96.1808 194.378 92.9982 190.48 92.9982C186.581 92.9982 183.398 96.1808 183.398 100.079C183.398 103.978 186.581 107.161 190.48 107.161Z" fill="white"/>
<path fill-rule="evenodd" clip-rule="evenodd" d="M190.48 104.103C192.697 104.103 194.503 102.292 194.503 100.08C194.503 97.8617 192.697 96.0565 190.48 96.0565C188.262 96.0565 186.457 97.8666 186.457 100.08C186.452 102.297 188.262 104.103 190.48 104.103Z" fill="#B8CFED"/>
<path fill-rule="evenodd" clip-rule="evenodd" d="M193.2 97.8219C195.209 100.318 192.717 104.744 188.833 102.486C188.978 102.496 190.121 102.591 190.32 102.586C192.702 102.536 193.543 99.8956 192.404 98.6921C192.165 98.4733 192.15 98.1004 192.369 97.8567C192.588 97.618 192.961 97.6031 193.2 97.8219Z" fill="white"/>
<path fill-rule="evenodd" clip-rule="evenodd" d="M181.703 121.706C184.244 121.706 186.318 119.777 186.318 117.41C186.318 115.043 184.244 113.113 181.703 113.113C179.162 113.113 177.088 115.043 177.088 117.41C177.088 119.772 179.162 121.706 181.703 121.706Z" fill="white"/>
<path fill-rule="evenodd" clip-rule="evenodd" d="M199.397 121.706C201.938 121.706 204.011 119.777 204.011 117.41C204.011 115.043 201.938 113.113 199.397 113.113C196.855 113.113 194.782 115.043 194.782 117.41C194.787 119.772 196.86 121.706 199.397 121.706Z" fill="white"/>
<path d="M177.316 119.364C177.003 118.748 176.844 118.091 176.844 117.405C176.844 114.899 179.022 112.86 181.702 112.86C184.383 112.86 186.561 114.899 186.561 117.405H186.068C186.068 115.172 184.109 113.352 181.702 113.352C179.295 113.352 177.336 115.167 177.336 117.405C177.336 118.012 177.475 118.593 177.754 119.14L177.316 119.364Z" fill="#07243E"/>
<path d="M203.569 119.498C203.529 119.498 203.494 119.489 203.459 119.474C203.34 119.414 203.29 119.265 203.35 119.14C203.628 118.593 203.768 118.012 203.768 117.405C203.768 115.172 201.808 113.352 199.396 113.352C196.99 113.352 195.03 115.167 195.03 117.405C195.03 117.539 194.921 117.649 194.787 117.649C194.652 117.649 194.543 117.539 194.543 117.405C194.543 114.899 196.721 112.86 199.401 112.86C202.082 112.86 204.26 114.899 204.26 117.405C204.26 118.091 204.101 118.748 203.787 119.364C203.743 119.449 203.658 119.498 203.569 119.498Z" fill="#07243E"/>
<path fill-rule="evenodd" clip-rule="evenodd" d="M198.81 120.518C200.426 120.518 201.749 119.195 201.749 117.579C201.749 115.963 200.431 114.64 198.81 114.64C197.188 114.64 195.871 115.963 195.871 117.579C195.871 119.195 197.193 120.518 198.81 120.518Z" fill="#07243E"/>
<path fill-rule="evenodd" clip-rule="evenodd" d="M197.039 117.072C197.576 117.072 198.018 116.629 198.018 116.092C198.018 115.55 197.576 115.112 197.039 115.112C196.502 115.112 196.059 115.55 196.059 116.092C196.059 116.629 196.502 117.072 197.039 117.072Z" fill="white"/>
<path fill-rule="evenodd" clip-rule="evenodd" d="M182.389 120.518C184.01 120.518 185.328 119.195 185.328 117.579C185.328 115.963 184.01 114.64 182.389 114.64C180.772 114.64 179.45 115.963 179.45 117.579C179.45 119.195 180.768 120.518 182.389 120.518Z" fill="#07243E"/>
<path fill-rule="evenodd" clip-rule="evenodd" d="M180.176 117.072C180.713 117.072 181.156 116.629 181.156 116.092C181.156 115.55 180.713 115.112 180.176 115.112C179.634 115.112 179.197 115.55 179.197 116.092C179.197 116.629 179.634 117.072 180.176 117.072Z" fill="white"/>
<path d="M177.969 111.134C177.844 111.134 177.715 111.089 177.611 111.005C177.377 110.806 177.347 110.453 177.546 110.219C178.595 108.971 180.321 108.315 182.166 108.459C182.474 108.484 182.703 108.752 182.678 109.056C182.653 109.364 182.384 109.593 182.076 109.568C180.589 109.448 179.217 109.961 178.396 110.935C178.287 111.065 178.128 111.134 177.969 111.134Z" fill="#07243E"/>
<path d="M202.977 111.134C202.818 111.134 202.659 111.064 202.55 110.935C201.744 109.98 200.391 109.468 198.934 109.563C198.626 109.583 198.362 109.349 198.342 109.045C198.323 108.737 198.556 108.474 198.86 108.454C200.67 108.334 202.366 108.996 203.4 110.219C203.599 110.453 203.569 110.806 203.335 111.005C203.231 111.089 203.106 111.134 202.977 111.134Z" fill="#07243E"/>
<path fill-rule="evenodd" clip-rule="evenodd" d="M184.592 125.182C196.298 125.182 196.746 125.182 196.746 125.182C195.746 132.637 185.796 133.059 184.592 125.182Z" fill="white"/>
<path fill-rule="evenodd" clip-rule="evenodd" d="M188.889 121.915C192.315 121.915 192.45 121.915 192.45 121.915C192.151 124.098 189.242 124.223 188.889 121.915Z" fill="#D6806B"/>
<path fill-rule="evenodd" clip-rule="evenodd" d="M178.759 126.56C180.674 126.56 182.235 125.719 182.235 124.685C182.235 123.651 180.674 122.81 178.759 122.81C176.845 122.81 175.283 123.651 175.283 124.685C175.288 125.719 176.85 126.56 178.759 126.56Z" fill="#CB726E"/>
<path fill-rule="evenodd" clip-rule="evenodd" d="M203.977 126.56C205.891 126.56 207.453 125.719 207.453 124.685C207.453 123.651 205.891 122.81 203.977 122.81C202.062 122.81 200.5 123.651 200.5 124.685C200.5 125.719 202.062 126.56 203.977 126.56Z" fill="#D6806B"/>
<path fill-rule="evenodd" clip-rule="evenodd" d="M191.335 118.996C191.519 118.996 191.718 119.434 191.777 119.976C191.837 120.518 191.738 120.956 191.554 120.956C191.37 120.956 191.171 120.518 191.111 119.976C191.051 119.439 191.151 118.996 191.335 118.996Z" fill="white"/>
<path fill-rule="evenodd" clip-rule="evenodd" d="M178.759 126.56C180.674 126.56 182.235 125.719 182.235 124.685C182.235 123.651 180.674 122.81 178.759 122.81C176.845 122.81 175.283 123.651 175.283 124.685C175.288 125.719 176.85 126.56 178.759 126.56Z" fill="#D6806B"/>
<path fill-rule="evenodd" clip-rule="evenodd" d="M188.889 131.752C192.315 131.752 192.45 131.752 192.45 131.752C192.151 133.935 189.242 134.059 188.889 131.752Z" fill="#D6806B"/>
<path d="M195.786 127.898H185.626C185.492 127.898 185.383 127.788 185.383 127.649C185.383 127.515 185.492 127.405 185.626 127.405H195.786C195.92 127.405 196.03 127.515 196.03 127.649C196.03 127.788 195.92 127.898 195.786 127.898Z" fill="#C4C4C4"/>
<path fill-rule="evenodd" clip-rule="evenodd" d="M226.767 140.519C230.666 145.531 232.575 146.531 231.994 148.341C231.417 150.151 227.493 153.359 225.27 153.597C223.047 153.836 219.989 147.65 220.78 144.905C221.565 142.15 224.097 141.608 226.767 140.519Z" fill="#D6806B"/>
<path fill-rule="evenodd" clip-rule="evenodd" d="M212.958 125.446C213.917 124.635 214.807 123.73 215.429 122.462C217.667 125.759 219.91 129.051 222.147 132.348C220.835 132.438 219.905 132.667 218.408 133.442C216.588 130.777 214.773 128.111 212.958 125.446Z" fill="white"/>
<path fill-rule="evenodd" clip-rule="evenodd" d="M216.279 123.715L216.622 124.218C215.856 124.755 214.728 125.526 213.564 126.257C213.549 126.267 213.539 126.271 213.524 126.276L213.186 125.779C213.201 125.764 213.221 125.749 213.241 125.734C214.409 125.013 215.523 124.248 216.279 123.715ZM217.179 125.043L214.061 127.072L215.628 129.37L218.711 127.301L218.368 126.799L215.374 128.808L214.583 127.46L217.517 125.55L217.179 125.043ZM219.939 129.101L220.287 129.613L216.836 131.145L216.488 130.633L219.939 129.101ZM220.874 130.479L217.129 131.573L217.493 132.1L221.232 131.006L220.874 130.479Z" fill="#D8D8D8"/>
<path fill-rule="evenodd" clip-rule="evenodd" d="M211.773 125.869C211.475 125.401 211.614 124.785 212.082 124.486C212.549 124.188 213.166 124.327 213.464 124.795C230.422 151.414 232.097 154.119 232.102 154.129C232.396 154.602 232.252 155.218 231.779 155.512C231.307 155.805 230.69 155.661 230.397 155.189C230.387 155.179 228.452 152.046 211.773 125.869Z" fill="#07243E"/>
<path fill-rule="evenodd" clip-rule="evenodd" d="M218.024 145.188C218.417 142.418 218.014 138.241 218.024 138.236C218.641 137.948 219.551 137.848 220.342 138.863C221.376 140.195 222.012 143.348 222.012 143.348C222.012 143.348 228.482 147.868 225.931 153.03C225.096 154.721 217.04 152.135 218.024 145.188Z" fill="#EAC19E"/>
<path d="M226.642 150.524C226.498 150.524 226.378 150.415 226.368 150.265C226.179 147.575 224.394 144.691 222.385 143.83C222.246 143.771 222.181 143.607 222.241 143.467C222.301 143.328 222.465 143.264 222.604 143.323C224.787 144.253 226.722 147.351 226.92 150.226C226.93 150.38 226.816 150.509 226.662 150.519C226.657 150.524 226.652 150.524 226.642 150.524Z" fill="#D6806B"/>
<path fill-rule="evenodd" clip-rule="evenodd" d="M225.269 137.018C221.863 139.643 220.923 141.205 222.793 142.393C224.011 143.164 225.976 141.692 227.204 140.176C228.984 137.978 227.373 136.252 225.269 137.018Z" fill="#EAC19E"/>
<path fill-rule="evenodd" clip-rule="evenodd" d="M227.721 139.763C224.23 142.269 222.708 143.975 224.538 145.223C225.727 146.034 228.268 144.457 229.546 142.98C231.401 140.852 229.849 139.072 227.721 139.763Z" fill="#EAC19E"/>
<path fill-rule="evenodd" clip-rule="evenodd" d="M229.73 143.234C226.319 144.741 224.723 145.919 226.055 147.307C226.921 148.212 229.357 147.321 230.71 146.297C232.664 144.815 231.66 143.025 229.73 143.234Z" fill="#EAC19E"/>
<path fill-rule="evenodd" clip-rule="evenodd" d="M230.755 146.183C227.826 147.356 226.448 148.306 227.532 149.514C228.239 150.3 230.322 149.624 231.491 148.793C233.187 147.6 232.391 146.063 230.755 146.183Z" fill="#EAC19E"/>
<path d="M224.18 143.025C224.106 143.025 224.026 142.995 223.972 142.93C223.872 142.816 223.882 142.642 223.996 142.538C225.1 141.573 227.09 140.121 227.109 140.106C227.234 140.016 227.408 140.041 227.497 140.166C227.587 140.29 227.562 140.464 227.438 140.553C227.418 140.568 225.449 142.005 224.364 142.955C224.31 143.005 224.245 143.025 224.18 143.025Z" fill="#D6806B"/>
<path d="M226.026 145.641C225.936 145.641 225.852 145.596 225.797 145.516C225.712 145.392 225.747 145.218 225.871 145.133C227.015 144.363 228.979 143.274 229.064 143.229C229.198 143.154 229.367 143.204 229.442 143.338C229.517 143.472 229.467 143.642 229.333 143.716C229.313 143.726 227.309 144.835 226.185 145.596C226.13 145.626 226.075 145.641 226.026 145.641Z" fill="#D6806B"/>
<path d="M227.741 148.087C227.651 148.087 227.567 148.043 227.512 147.963C227.428 147.839 227.462 147.665 227.587 147.58C228.73 146.809 230.695 145.72 230.779 145.675C230.914 145.601 231.083 145.651 231.157 145.785C231.232 145.919 231.182 146.088 231.048 146.163C231.028 146.173 229.024 147.282 227.9 148.043C227.845 148.072 227.791 148.087 227.741 148.087Z" fill="#D6806B"/>
<path fill-rule="evenodd" clip-rule="evenodd" d="M221.541 143.915C223.763 145.163 225.126 148.276 224.579 150.827C224.539 151.001 221.595 143.746 221.541 143.915Z" fill="#EAC19E"/>
</g>
<defs>
<clipPath id="clip0_123_412">
<rect width="271" height="212.975" fill="white" transform="translate(0 0.388916)"/>
</clipPath>
<clipPath id="clip1_123_412">
<rect width="194.145" height="185.497" fill="white" transform="translate(38.2905 43.6527)"/>
</clipPath>
</defs>
</svg>
