<svg width="12" height="9" viewBox="0 0 12 9" fill="none" xmlns="http://www.w3.org/2000/svg">
<path d="M11.6643 1.28581C11.4516 1.07437 11.1639 0.955688 10.8639 0.955688C10.564 0.955688 10.2763 1.07437 10.0636 1.28581L5.98803 5.30461L1.96923 1.28581C1.75652 1.07437 1.46879 0.955688 1.16887 0.955688C0.868957 0.955688 0.581225 1.07437 0.368521 1.28581C0.262115 1.39135 0.177659 1.51691 0.120023 1.65525C0.0623881 1.79359 0.0327148 1.94197 0.0327148 2.09184C0.0327148 2.24171 0.0623881 2.39009 0.120023 2.52843C0.177659 2.66677 0.262115 2.79234 0.368521 2.89787L5.182 7.71135C5.28753 7.81775 5.41309 7.90221 5.55143 7.95984C5.68977 8.01748 5.83816 8.04715 5.98803 8.04715C6.13789 8.04715 6.28628 8.01748 6.42462 7.95984C6.56296 7.90221 6.68852 7.81775 6.79406 7.71135L11.6643 2.89787C11.7707 2.79234 11.8552 2.66677 11.9128 2.52843C11.9704 2.39009 12.0001 2.24171 12.0001 2.09184C12.0001 1.94197 11.9704 1.79359 11.9128 1.65525C11.8552 1.51691 11.7707 1.39135 11.6643 1.28581Z" fill="#8B8B8B"/>
</svg>
