<svg width="12" height="9" viewBox="0 0 12 9" fill="none" xmlns="http://www.w3.org/2000/svg">
<path d="M11.6643 1.28578C11.4516 1.07434 11.1639 0.955658 10.8639 0.955658C10.564 0.955658 10.2763 1.07434 10.0636 1.28578L5.98803 5.30458L1.96923 1.28578C1.75652 1.07434 1.46879 0.955658 1.16887 0.955658C0.868957 0.955658 0.581225 1.07434 0.368521 1.28578C0.262115 1.39132 0.177659 1.51688 0.120023 1.65522C0.0623881 1.79356 0.0327148 1.94194 0.0327148 2.09181C0.0327148 2.24168 0.0623881 2.39006 0.120023 2.5284C0.177659 2.66674 0.262115 2.7923 0.368521 2.89784L5.182 7.71132C5.28753 7.81772 5.41309 7.90218 5.55143 7.95981C5.68977 8.01745 5.83816 8.04712 5.98803 8.04712C6.13789 8.04712 6.28628 8.01745 6.42462 7.95981C6.56296 7.90218 6.68852 7.81772 6.79406 7.71132L11.6643 2.89784C11.7707 2.7923 11.8552 2.66674 11.9128 2.5284C11.9704 2.39006 12.0001 2.24168 12.0001 2.09181C12.0001 1.94194 11.9704 1.79356 11.9128 1.65522C11.8552 1.51688 11.7707 1.39132 11.6643 1.28578Z" fill="#1F1F1F"/>
</svg>
