<svg width="20" height="19" viewBox="0 0 20 19" fill="none" xmlns="http://www.w3.org/2000/svg">
<g clip-path="url(#clip0_282_57)">
<path d="M19.2737 9.67784C19.2737 8.89942 19.2106 8.33138 19.0739 7.74231H10.1851V11.2557H15.4026C15.2974 12.1288 14.7294 13.4438 13.4671 14.3273L13.4494 14.445L16.2598 16.6222L16.4546 16.6416C18.2428 14.9901 19.2737 12.5601 19.2737 9.67784Z" fill="#4285F4"/>
<path d="M10.1851 18.9346C12.7412 18.9346 14.8871 18.0931 16.4546 16.6414L13.4671 14.3271C12.6676 14.8847 11.5946 15.2739 10.1851 15.2739C7.6815 15.2739 5.55662 13.6224 4.79916 11.3397L4.68813 11.3491L1.76576 13.6108L1.72754 13.717C3.28438 16.8097 6.48225 18.9346 10.1851 18.9346Z" fill="#34A853"/>
<path d="M4.79873 11.3398C4.59887 10.7508 4.4832 10.1196 4.4832 9.4674C4.4832 8.81516 4.59887 8.18403 4.78822 7.59495L4.78292 7.46949L1.82393 5.17151L1.72711 5.21756C1.08546 6.50093 0.717285 7.9421 0.717285 9.4674C0.717285 10.9927 1.08546 12.4338 1.72711 13.7172L4.79873 11.3398Z" fill="#FBBC05"/>
<path d="M10.1851 3.66069C11.9628 3.66069 13.162 4.4286 13.8458 5.07032L16.5177 2.46152C14.8767 0.936221 12.7412 0 10.1851 0C6.48225 0 3.28438 2.12488 1.72754 5.21753L4.78864 7.59492C5.55662 5.31224 7.6815 3.66069 10.1851 3.66069Z" fill="#EB4335"/>
</g>
<defs>
<clipPath id="clip0_282_57">
<rect width="18.5668" height="19" fill="white" transform="translate(0.716797)"/>
</clipPath>
</defs>
</svg>
