<svg width="51" height="36" viewBox="0 0 51 36" fill="none" xmlns="http://www.w3.org/2000/svg">
<g clip-path="url(#clip0_193_4300)">
<path d="M28.4881 12.2232C27.2621 11.2568 25.2809 11.4975 23.6261 10.193C21.9713 8.88856 21.7426 6.90597 20.5166 5.93956C18.0933 4.02929 12.7425 5.41758 10.91 8.47216C8.8677 11.8794 4.95979 23.9213 7.33608 25.7944C8.50993 26.7197 10.3406 24.3836 12.9122 22.3561C14.0878 21.4286 14.7434 21.7245 13.9388 23.3125C12.4274 26.2849 11.1634 28.8086 12.2615 29.6743C14.6395 31.5488 25.9816 24.3827 28.2702 22.1539C30.8215 19.6714 30.8492 14.0844 28.4881 12.2232Z" fill="white" stroke="#002036" stroke-width="0.232878" stroke-miterlimit="10"/>
<path d="M9.9521 20.8633C11.0123 21.8463 13.4781 18.2547 15.9261 19.9608C17.3321 20.941 17.3994 22.0766 16.7813 23.269C16.1272 24.5312 15.2408 25.493 16.4771 26.353C17.7116 27.2117 24.9353 24.6685 27.3891 21.3756C28.51 19.8706 29.1919 17.7223 29.5211 15.8795C29.7361 14.6693 29.2108 13.4644 28.2243 12.7441C27.0026 11.8519 25.32 11.8072 23.8818 11.5596C21.9457 11.2278 21.9188 9.21062 20.959 7.91689C20.0411 6.68071 18.7179 6.14208 17.185 6.49892C15.3317 6.93031 13.9577 8.64216 13.1994 10.2994C12.6459 11.5101 8.89489 19.88 9.9521 20.8633Z" fill="white"/>
<path d="M22.3984 11.5707C23.133 12.2888 23.9542 12.6171 24.8904 13.0033C25.7991 13.376 26.7173 13.8925 27.1394 14.8307C28.0011 16.7506 27.2025 19.1889 26.2736 20.9381C25.715 21.9893 25.0929 23.0206 24.2202 23.8406C23.9541 24.0917 23.6711 24.3158 23.3786 24.5243C25.0005 23.6567 26.5061 22.5666 27.3915 21.3776C28.5125 19.8725 29.1944 17.724 29.5236 15.8811C29.7387 14.6708 29.2133 13.4659 28.2268 12.7455C27.0049 11.8533 25.3223 11.8085 23.884 11.561C21.9478 11.2291 21.9209 9.21183 20.961 7.91802C20.8503 7.76798 20.7315 7.62802 20.6095 7.49913C20.7122 8.9844 21.3607 10.5591 22.3984 11.5707Z" fill="white"/>
<path d="M21.025 8.76759C21.2457 9.7433 21.6423 10.6067 22.5149 11.0737C23.5571 11.6334 25.2396 11.8444 26.1958 11.3302C25.346 11.1075 24.4467 10.8404 23.6277 10.1947C22.0602 8.95915 21.7713 7.11167 20.7031 6.10059C20.8142 6.98711 20.8247 7.88706 21.025 8.76759Z" fill="#EBDCDB"/>
<path d="M21.0894 9.58179C21.3687 10.241 21.5106 10.9882 21.3492 11.2863C22.7021 12.1783 24.5035 12.0413 25.7874 12.208C25.824 11.2551 23.9081 11.0047 22.9276 10.2318C21.0523 8.7536 21.6362 8.22397 20.3916 7.24292C20.0191 8.60451 20.8114 8.9209 21.0894 9.58179Z" fill="white"/>
<path d="M24.338 11.7008C23.7461 11.5178 22.9091 11.597 22.4359 11.1285C22.163 10.8589 21.9406 10.5772 21.8072 10.2103C21.7147 9.95741 21.6536 9.64747 21.5001 9.42014C21.3135 9.14488 21.098 8.89592 20.8948 8.63483C20.7365 8.43095 20.618 8.13848 20.4397 7.95982C20.3862 7.9067 20.3396 7.84817 20.2974 7.7876C20.2458 8.70405 20.8534 9.01943 21.0906 9.57995C21.3699 10.2392 21.5117 10.9863 21.3503 11.2845C22.5181 12.055 24.0235 12.0583 25.2393 12.1522C24.9784 11.9574 24.6816 11.808 24.338 11.7008Z" fill="#D6C1C0"/>
<path d="M18.6304 27.06C17.6581 27.3734 15.7864 27.2641 15.0536 26.2774C14.3336 25.3091 15.269 23.9632 15.6854 23.0753C15.8814 22.6572 16.318 21.9925 16.0688 21.5234C15.8197 21.0543 15.3145 20.7024 14.7902 20.6273C13.737 20.476 12.4803 20.8733 11.7003 21.6C10.9728 22.2808 9.96583 23.2676 8.95097 22.5004C8.41699 22.0985 8.60261 21.3096 8.5759 20.7105C8.53148 19.7429 9.40593 14.0572 10.6235 8.97729C8.52863 12.9321 5.06221 24.0022 7.33423 25.7932C8.50809 26.7185 10.3387 24.3823 12.9104 22.3548C14.0859 21.4273 14.7416 21.7233 13.9369 23.3113C12.4256 26.2836 11.1615 28.8074 12.2597 29.673C13.9767 31.0265 20.3745 27.6632 24.6568 24.8492C22.4458 25.9176 20.7588 26.3765 18.6304 27.06Z" fill="#EBDCDB"/>
<path d="M16.7559 14.0973C16.3622 12.1509 14.7923 13.0321 14.6106 12.6053C14.6001 12.5807 14.8296 12.6008 14.8587 12.55C14.8713 12.5272 14.669 12.4414 14.6885 12.4131C14.7199 12.3698 14.9292 12.3465 14.9753 12.2984C15.0211 12.2472 14.8859 12.1488 14.956 12.1222C15.6097 11.874 17.1855 12.4072 16.7559 14.0973Z" fill="#002036"/>
<path d="M16.0097 10.8479C17.2191 10.8877 17.0171 13.3026 17.6699 13.3046" stroke="#002036" stroke-width="0.349306" stroke-miterlimit="10" stroke-linecap="round" stroke-linejoin="round"/>
<path d="M21.3265 17.7007C23.311 17.6289 22.8208 19.3612 23.2782 19.4382C23.3047 19.4427 23.2315 19.2241 23.274 19.184C23.2933 19.1665 23.424 19.3432 23.4469 19.3176C23.4817 19.2769 23.4555 19.068 23.4915 19.0119C23.5306 18.9554 23.6578 19.0639 23.6673 18.9896C23.7543 18.2946 22.8679 16.8869 21.3265 17.7007Z" fill="#002036"/>
<path d="M24.6587 17.6654C24.3376 16.4988 22.0367 17.2592 21.8823 16.6248" stroke="#002036" stroke-width="0.349306" stroke-miterlimit="10" stroke-linecap="round" stroke-linejoin="round"/>
<path d="M18.2787 5.95623C18.142 5.83213 17.8637 5.82543 17.6884 5.82636C17.4429 5.82645 17.2383 5.8888 17.017 5.98972C17.004 5.99584 17.0108 6.01485 17.0255 6.01006C17.233 5.93365 17.4673 5.91658 17.6874 5.92102C17.8784 5.92433 18.0812 6.02688 18.266 6.00348C18.2883 5.99931 18.2942 5.97117 18.2787 5.95623Z" fill="#002036"/>
<path d="M18.3354 6.21636C18.1302 6.10646 17.8562 6.04588 17.6341 6.1408C17.6225 6.14523 17.6219 6.16664 17.6373 6.16786C17.8689 6.17857 18.077 6.23628 18.2804 6.34485C18.3617 6.38708 18.4149 6.25726 18.3354 6.21636Z" fill="#002036"/>
<path d="M8.57672 18.2329C8.57767 18.0864 8.53422 17.9513 8.52447 17.8045C8.51248 17.626 8.54056 17.4382 8.62369 17.2774C8.62864 17.2676 8.6159 17.263 8.60891 17.2684C8.38013 17.4999 8.28912 18.0062 8.55505 18.2431C8.56249 18.2544 8.57646 18.2436 8.57672 18.2329Z" fill="#002036"/>
<path d="M9.02856 18.3656C8.98814 18.1401 8.83822 17.9428 8.84521 17.7057C8.84644 17.6903 8.82733 17.6834 8.8184 17.6982C8.71171 17.9304 8.8088 18.2223 9.00256 18.3778C9.01434 18.3871 9.03034 18.3806 9.02856 18.3656Z" fill="#002036"/>
<path d="M20.9974 25.8284C20.7894 25.9262 20.6176 26.0853 20.4066 26.1835C20.2013 26.278 19.9792 26.321 19.767 26.3965C19.7627 26.3985 19.762 26.4062 19.7697 26.4068C20.1713 26.437 20.8016 26.2221 21.0389 25.8829C21.0555 25.8551 21.0291 25.8124 20.9974 25.8284Z" fill="#002036"/>
<path d="M21.0638 25.4498C21.0707 25.4307 21.0548 25.4127 21.0341 25.4182C20.9107 25.4572 20.8287 25.5508 20.7316 25.6324C20.6346 25.7141 20.5238 25.7958 20.4139 25.8591C20.3796 25.8784 20.4127 25.9264 20.4451 25.9164C20.6733 25.8482 20.9859 25.6938 21.0638 25.4498Z" fill="#002036"/>
<path d="M28.4381 12.9748C28.3616 12.7018 28.0598 12.5103 27.7988 12.4436C27.7878 12.4403 27.7809 12.4595 27.7893 12.4661C27.8868 12.543 27.9906 12.6084 28.0895 12.6837C28.2103 12.7761 28.2964 12.8986 28.4075 12.9998C28.4213 13.0134 28.4416 12.9912 28.4381 12.9748Z" fill="#002036"/>
<path d="M28.4516 13.4353C28.4047 13.1938 28.2159 13.0286 27.9929 12.9483C27.9674 12.9391 27.9443 12.9754 27.9675 12.991C28.1106 13.0792 28.2138 13.2042 28.2822 13.3563C28.3046 13.4039 28.3418 13.5642 28.4253 13.4964C28.4419 13.4822 28.4545 13.4594 28.4516 13.4353Z" fill="#002036"/>
<path d="M22.4879 21.0321C22.2957 21.276 21.7558 21.1722 21.2815 20.7983C20.8072 20.4245 20.5802 19.9237 20.7724 19.6799C20.9647 19.436 21.5046 19.5398 21.9788 19.9137C22.4531 20.2875 22.6801 20.7883 22.4879 21.0321Z" fill="white"/>
<path d="M15.65 15.642C15.4578 15.8859 14.9179 15.782 14.4436 15.4082C13.9693 15.0343 13.7423 14.5336 13.9345 14.2897C14.1268 14.0459 14.6667 14.1497 15.1409 14.5235C15.6152 14.8974 15.8422 15.3981 15.65 15.642Z" fill="white"/>
<path d="M13.7217 18.1951C13.4817 17.237 15.7188 16.2844 16.5926 16.646C17.4665 17.0076 17.2072 17.5476 17.8715 18.0713C18.5358 18.595 18.9819 18.1122 19.5135 18.9702C20.0464 19.8266 19.4284 21.5101 18.3982 22.1078C17.8959 22.399 17.4844 20.6103 16.4263 19.749C15.3141 18.8422 13.9552 19.1236 13.7217 18.1951Z" fill="#EA4C6D" stroke="#002036" stroke-width="0.232878" stroke-miterlimit="10" stroke-linecap="round"/>
<path d="M19.0264 19.9341C19.3005 20.1502 19.7463 19.3426 19.5145 18.969C18.9815 18.1126 18.5351 18.5924 17.8725 18.0701C17.2082 17.5464 17.4675 17.0064 16.5936 16.6448C16.2233 16.4919 15.4491 17.1143 15.6779 17.2946C15.6779 17.2946 18.0123 19.1347 18.1081 19.2103C18.2057 19.2871 18.4469 19.2128 18.4469 19.2128C18.4469 19.2128 18.4344 19.4674 18.5437 19.5536C18.6514 19.6385 19.0264 19.9341 19.0264 19.9341Z" fill="white" stroke="#002036" stroke-width="0.232878" stroke-miterlimit="10" stroke-linecap="round"/>
<path d="M20.9695 19.0003C20.9314 18.9703 20.8844 19.0299 20.9225 19.0599C20.9606 19.0899 21.0075 19.0303 20.9695 19.0003Z" fill="#002036"/>
<path d="M21.3119 19.1859C21.1656 19.0705 20.9879 19.2959 21.1342 19.4112C21.2776 19.5269 21.4565 19.2999 21.3119 19.1859Z" fill="#002036"/>
<path d="M21.9648 19.6299C21.8913 19.5719 21.8017 19.6856 21.8752 19.7436C21.9488 19.8016 22.0384 19.6879 21.9648 19.6299Z" fill="#002036"/>
<path d="M21.5528 19.6726C21.4401 19.5838 21.3022 19.7587 21.4149 19.8475C21.5263 19.938 21.6655 19.7614 21.5528 19.6726Z" fill="#002036"/>
<path d="M22.0072 20.1234C21.8811 20.024 21.7273 20.2191 21.8534 20.3185C21.9796 20.4179 22.1333 20.2228 22.0072 20.1234Z" fill="#002036"/>
<path d="M22.6208 19.9915C22.5216 19.9133 22.3996 20.068 22.4988 20.1463C22.5981 20.2245 22.72 20.0697 22.6208 19.9915Z" fill="#002036"/>
<path d="M22.9839 20.471C22.907 20.4104 22.8122 20.5307 22.8891 20.5914C22.9676 20.6533 23.0625 20.5329 22.9839 20.471Z" fill="#002036"/>
<path d="M22.6437 20.8299C22.6123 20.8051 22.5744 20.8531 22.6059 20.8779C22.6373 20.9026 22.6751 20.8547 22.6437 20.8299Z" fill="#002036"/>
<path d="M20.8034 19.6953C20.7348 19.6413 20.6518 19.7466 20.7203 19.8006C20.7872 19.8533 20.8702 19.748 20.8034 19.6953Z" fill="#002036"/>
<path d="M20.7085 19.1762C20.6466 19.1275 20.5715 19.2227 20.6334 19.2715C20.6952 19.3203 20.7704 19.225 20.7085 19.1762Z" fill="#002036"/>
<path d="M21.1984 20.1566C21.18 20.1421 21.1576 20.1705 21.176 20.185C21.1957 20.1979 21.2168 20.1711 21.1984 20.1566Z" fill="#002036"/>
<path d="M21.6325 20.3518C21.601 20.3271 21.5619 20.3767 21.5933 20.4015C21.6248 20.4263 21.6639 20.3766 21.6325 20.3518Z" fill="#002036"/>
<path d="M14.3357 13.7723C14.2976 13.7423 14.2507 13.8018 14.2887 13.8318C14.3268 13.8618 14.3737 13.8023 14.3357 13.7723Z" fill="#002036"/>
<path d="M14.6781 13.9578C14.5318 13.8425 14.3541 14.0679 14.5005 14.1832C14.6454 14.3002 14.8244 14.0732 14.6781 13.9578Z" fill="#002036"/>
<path d="M15.3315 14.4016C15.258 14.3437 15.1684 14.4573 15.2419 14.5153C15.3155 14.5733 15.4051 14.4596 15.3315 14.4016Z" fill="#002036"/>
<path d="M14.919 14.4445C14.8063 14.3557 14.6684 14.5306 14.7811 14.6195C14.8941 14.7113 15.0333 14.5347 14.919 14.4445Z" fill="#002036"/>
<path d="M15.3734 14.8956C15.2473 14.7962 15.0935 14.9913 15.2196 15.0907C15.3458 15.1901 15.4995 14.995 15.3734 14.8956Z" fill="#002036"/>
<path d="M15.9875 14.7633C15.8883 14.685 15.7663 14.8398 15.8655 14.918C15.9648 14.9962 16.0867 14.8415 15.9875 14.7633Z" fill="#002036"/>
<path d="M16.3516 15.2444C16.2747 15.1838 16.1798 15.3042 16.2567 15.3648C16.3336 15.4254 16.4285 15.3051 16.3516 15.2444Z" fill="#002036"/>
<path d="M16.0119 15.6033C15.9804 15.5785 15.9426 15.6265 15.974 15.6513C16.0055 15.6761 16.0433 15.6281 16.0119 15.6033Z" fill="#002036"/>
<path d="M14.1696 14.4675C14.101 14.4135 14.018 14.5188 14.0865 14.5728C14.1551 14.6269 14.2381 14.5216 14.1696 14.4675Z" fill="#002036"/>
<path d="M14.0762 13.9497C14.0143 13.9009 13.9392 13.9962 14.0011 14.0449C14.0629 14.0937 14.138 13.9984 14.0762 13.9497Z" fill="#002036"/>
<path d="M14.5646 14.9286C14.5462 14.9141 14.5238 14.9425 14.5422 14.957C14.5619 14.9698 14.583 14.9431 14.5646 14.9286Z" fill="#002036"/>
<path d="M14.9992 15.1241C14.9677 15.0993 14.9286 15.1489 14.96 15.1737C14.9931 15.1998 15.0323 15.1501 14.9992 15.1241Z" fill="#002036"/>
<path d="M21.2105 11.1196C21.2105 11.1196 21.215 11.055 21.2246 10.9425C21.2272 10.8873 21.2397 10.8127 21.2302 10.7452C21.2247 10.6726 21.2274 10.593 21.2138 10.5031C21.1954 10.4123 21.1883 10.314 21.1578 10.2109C21.129 10.1091 21.1008 9.99959 21.0558 9.89055C20.9763 9.66971 20.8593 9.44111 20.7409 9.2142C20.6209 8.98595 20.4961 8.75674 20.4079 8.52627C20.3579 8.41324 20.3303 8.29605 20.2977 8.18859C20.2829 8.07598 20.2554 7.97249 20.2634 7.87243C20.2637 7.8236 20.2627 7.77645 20.2633 7.73062C20.2704 7.68709 20.2791 7.64489 20.2852 7.60605C20.2913 7.56721 20.2977 7.53137 20.3041 7.49554C20.3139 7.46236 20.3258 7.43351 20.3333 7.4067C20.371 7.30007 20.3926 7.23804 20.3926 7.23804C20.3926 7.23804 20.3756 7.30104 20.3456 7.40828C20.3381 7.43509 20.328 7.46527 20.3212 7.49809C20.3191 7.53189 20.3144 7.56905 20.3113 7.60753C20.3082 7.64602 20.3038 7.68618 20.2998 7.72936C20.3034 7.77314 20.3058 7.81861 20.3098 7.86541C20.3105 7.9614 20.345 8.05948 20.3668 8.16668C20.4063 8.26874 20.4406 8.37753 20.4959 8.48383C20.5991 8.69881 20.7374 8.91421 20.8748 9.1343C21.0122 9.35439 21.1499 9.57749 21.2515 9.80486C21.3075 9.91717 21.3485 10.0313 21.3857 10.1397C21.426 10.2478 21.4452 10.3583 21.472 10.4558C21.4931 10.557 21.5001 10.6553 21.5114 10.7378C21.5265 10.826 21.5172 10.8896 21.521 10.9471C21.5221 11.0598 21.5206 11.124 21.5206 11.124C21.5215 11.2093 21.4521 11.2801 21.3652 11.2797C21.2799 11.2806 21.2092 11.2112 21.2095 11.1243C21.2099 11.1273 21.2109 11.1226 21.2105 11.1196Z" fill="#002036"/>
<path d="M20.9179 10.5808C20.9179 10.5808 20.9311 10.6022 20.9585 10.6401C20.9858 10.678 21.0221 10.7393 21.074 10.8048C21.127 10.8656 21.1821 10.9445 21.2676 11.0228C21.3461 11.1065 21.4461 11.1908 21.5614 11.2762C21.6764 11.3587 21.8097 11.442 21.9584 11.5129C22.1061 11.5884 22.2718 11.6481 22.4461 11.7037C22.7957 11.8102 23.1875 11.8736 23.5841 11.9136C24.373 11.9955 25.1907 11.9856 25.7744 12.1757C25.9202 12.2225 26.0437 12.2872 26.1492 12.354C26.2508 12.4258 26.3269 12.5022 26.3796 12.5737C26.4309 12.6469 26.4655 12.7069 26.4812 12.7493C26.4999 12.7913 26.5118 12.8143 26.5118 12.8143C26.5118 12.8143 26.4999 12.7913 26.4782 12.7496C26.4608 12.7059 26.4219 12.648 26.3696 12.5795C26.3129 12.513 26.2358 12.4413 26.1337 12.3772C26.0289 12.3164 25.9047 12.2594 25.76 12.2217C25.1829 12.0613 24.3758 12.1095 23.5718 12.0675C23.1683 12.0466 22.7633 12.0001 22.3894 11.9071C22.2034 11.8559 22.0234 11.804 21.859 11.729C21.6939 11.6616 21.5452 11.577 21.4114 11.4907C21.2807 11.404 21.1633 11.3142 21.0704 11.2246C20.9721 11.1417 20.8985 11.0482 20.8342 10.9811C20.7754 10.9103 20.7386 10.8567 20.7082 10.8192C20.6809 10.7812 20.6633 10.7619 20.6633 10.7619C20.611 10.6934 20.6254 10.5957 20.6925 10.545C20.7611 10.4927 20.8588 10.507 20.9095 10.5742C20.9145 10.5782 20.9162 10.5795 20.9179 10.5808Z" fill="#002036"/>
<path d="M16.0357 17.5766L16.5229 17.1453L16.2174 17.7198L16.0357 17.5766Z" fill="#002036"/>
<path d="M16.9505 18.2505L17.3369 17.9471L17.1338 18.395L16.9505 18.2505Z" fill="#002036"/>
<path d="M16.759 20.7996C16.6421 20.1348 15.9997 19.822 15.383 19.7776C15.3522 19.7752 15.3431 19.8144 15.369 19.8266C15.5794 19.9298 15.7809 20.034 15.9552 20.1933C16.1842 20.401 16.277 20.6187 16.4068 20.8901C16.4933 21.0674 16.7983 21.016 16.759 20.7996Z" fill="#002036"/>
<path d="M23.7444 12.5957C23.2937 12.524 22.8667 12.5883 22.4153 12.4588C21.94 12.3214 21.4771 12.0438 21.0725 11.7684C21.056 11.7582 21.0388 11.78 21.0539 11.792C21.7065 12.3582 22.8459 13.1336 23.7572 12.704C23.8062 12.6799 23.8003 12.6043 23.7444 12.5957Z" fill="#002036"/>
<path d="M23.5555 13.0497C23.4593 13.0229 23.3658 13.0447 23.2672 13.0487C23.1625 13.0535 23.0572 13.0523 22.9538 13.0553C22.9401 13.0554 22.9302 13.0749 22.9407 13.0859C23.0121 13.1613 23.1063 13.1837 23.2071 13.1977C23.3202 13.2133 23.4763 13.2054 23.5627 13.1235C23.5833 13.1043 23.5904 13.0608 23.5555 13.0497Z" fill="#002036"/>
<path d="M23.3541 20.9674C23.1822 21.3446 22.5946 21.6368 22.1987 21.4092C21.847 21.2083 21.8821 20.7833 22.2327 20.5634C23.0558 20.0451 23.1816 19.1763 23.1816 19.1763C23.1816 19.1763 23.7443 20.1161 23.3541 20.9674Z" fill="#B7E2FA"/>
<path d="M22.5615 20.7269C23.3154 19.9469 23.1831 19.1772 23.1831 19.1772C23.1831 19.1772 23.0559 20.0478 22.2342 20.5644C21.8836 20.7843 21.8498 21.2076 22.2001 21.4101C22.2737 21.4518 22.3528 21.4759 22.4348 21.4861C22.3792 21.2349 22.3862 20.9078 22.5615 20.7269Z" fill="#A1DAF8"/>
<path d="M23.2462 20.6128C23.1237 20.827 22.6423 21.0502 22.6296 21.1493C22.6177 21.2544 22.7135 21.3163 22.8074 21.3113C22.9572 21.3012 23.3308 20.9794 23.2462 20.6128Z" fill="white"/>
<path d="M13.2049 12.9671C12.8783 13.2223 12.7314 13.8619 13.0451 14.1938C13.3225 14.4888 13.7276 14.3554 13.8596 13.9631C14.1713 13.0418 14.9867 12.7165 14.9867 12.7165C14.9867 12.7165 13.9432 12.3902 13.2049 12.9671Z" fill="#B7E2FA"/>
<path d="M13.623 13.6812C14.2054 12.766 14.9847 12.7149 14.9847 12.7149C14.9847 12.7149 14.168 13.0418 13.8575 13.9615C13.7255 14.3537 13.3218 14.4854 13.0431 14.1921C12.9854 14.1303 12.9435 14.059 12.9145 13.9816C13.1716 13.9771 13.4881 13.8939 13.623 13.6812Z" fill="#A1DAF8"/>
<path d="M13.5763 12.9898C13.3966 13.159 13.292 13.6792 13.1986 13.7146C13.0992 13.7508 13.0167 13.6721 12.9996 13.5796C12.9728 13.4303 13.1984 12.9919 13.5763 12.9898Z" fill="white"/>
<path d="M30.4818 19.1856C30.4814 19.1826 30.4767 19.1816 30.4771 19.1846C30.2935 20.2616 29.9568 21.2423 29.3707 22.1656C29.3605 22.1821 29.3807 22.198 29.3943 22.1842C30.1482 21.4041 30.3732 20.2262 30.4818 19.1856Z" fill="#002036"/>
<path d="M30.536 20.9604C30.6394 20.7392 30.6972 20.5448 30.6369 20.3065C30.6362 20.3004 30.6269 20.2985 30.6262 20.3062C30.5791 20.539 30.4743 20.7618 30.3551 20.965C30.2576 21.1336 30.0958 21.3251 30.1063 21.5297C30.1089 21.5645 30.1555 21.5849 30.1818 21.5619C30.3483 21.4233 30.446 21.154 30.536 20.9604Z" fill="#002036"/>
<path d="M15.8681 4.70752C15.5272 4.64877 15.1724 4.75634 14.8439 4.84098C14.4991 4.92909 14.1163 5.00643 13.8062 5.18191C13.7906 5.19138 13.7981 5.21641 13.8152 5.21897C14.1401 5.24606 14.4728 5.13196 14.7856 5.0568C15.1475 4.97125 15.5316 4.94407 15.884 4.82915C15.9454 4.80664 15.927 4.7158 15.8681 4.70752Z" fill="#002036"/>
<path d="M15.639 4.40998C15.1905 4.37006 14.7313 4.45798 14.2993 4.57013C14.289 4.57288 14.2911 4.59092 14.3018 4.59118C14.7433 4.6365 15.2025 4.54858 15.6378 4.47722C15.6752 4.47126 15.6792 4.41437 15.639 4.40998Z" fill="#002036"/>
<path d="M23.1627 8.66391C23.1057 8.4526 22.9977 8.27478 22.8571 8.11759C22.9299 8.04951 22.9941 7.96108 22.9256 7.87161C22.8874 7.8197 22.8234 7.79374 22.7611 7.78282C22.4459 7.72254 22.632 7.41384 22.7285 7.2118C22.7588 7.14569 22.7198 7.07406 22.6598 7.04305C22.3241 6.87389 21.879 6.92659 22.1281 6.45489C22.1442 6.424 22.1331 6.36889 22.1019 6.34972C21.9229 6.2413 21.7742 6.17047 21.5625 6.17266C21.5488 6.17276 21.5483 6.19417 21.558 6.19911C21.9693 6.41422 21.8788 6.43561 21.745 6.81284C21.7221 6.87655 21.7495 6.92819 21.807 6.96256C22.0068 7.07919 22.2286 7.13679 22.442 7.2259C22.3491 7.41988 22.247 7.63936 22.3281 7.84781C22.3431 7.88416 22.3882 7.93066 22.4247 7.9431C22.5055 7.96861 22.6874 7.95928 22.6112 8.011C22.5406 8.059 22.5573 8.14851 22.6079 8.202C22.776 8.3727 22.8208 8.59613 22.9755 8.76994C23.0585 8.86533 23.1954 8.78508 23.1627 8.66391Z" fill="#002036"/>
<path d="M23.6486 7.99936C23.6607 7.97352 23.6471 7.93549 23.6186 7.92667C23.4718 7.88458 23.3482 7.8062 23.2278 7.71676C23.2708 7.56527 23.1749 7.43787 23.0317 7.37401C23.0253 7.37172 23.019 7.38313 23.0241 7.38711C23.1502 7.48654 23.1665 7.57305 23.0967 7.71704C23.0858 7.74119 23.0944 7.77525 23.1159 7.78947C23.2393 7.87856 23.3729 7.93746 23.5098 7.99902C23.4561 8.07399 23.4099 8.16028 23.4112 8.24857C23.4104 8.28068 23.4511 8.3018 23.4801 8.28921C23.5978 8.2402 23.5985 8.10441 23.6486 7.99936Z" fill="#002036"/>
<path d="M7.00345 17.5025C6.94842 17.3855 6.88121 17.2943 6.80054 17.1926C6.60547 16.9488 6.71272 16.747 6.83888 16.5247C6.86132 16.4824 6.83916 16.424 6.80384 16.3962C6.78534 16.3816 6.76516 16.3657 6.74498 16.3498C6.82636 16.2258 6.87864 16.1007 6.9294 15.9498C6.99658 15.7573 7.27037 15.7386 7.34463 15.5545C7.49907 15.1717 7.02255 14.9979 7.12903 14.5965C7.13194 14.5824 7.10947 14.5729 7.10187 14.586C6.97596 14.7976 6.98413 14.9567 7.13344 15.1617C7.34996 15.4578 6.99407 15.5945 6.82556 15.7425C6.67368 15.8764 6.6392 16.1519 6.51459 16.31C6.47879 16.3554 6.48698 16.4246 6.53239 16.4603C6.54921 16.4736 6.43012 16.936 6.43974 17.0172C6.46538 17.2338 6.70924 17.426 6.81757 17.6068C6.88116 17.706 7.0544 17.6108 7.00345 17.5025Z" fill="#002036"/>
<path d="M6.22965 17.1354C6.33512 16.9186 6.10746 16.7473 6.16613 16.5345C6.17266 16.5124 6.13744 16.4983 6.12586 16.5164C6.07293 16.5974 6.05415 16.6835 6.07891 16.7766C6.09194 16.8224 6.10932 16.866 6.11935 16.9121C6.13213 16.9686 6.11279 17.0242 6.0978 17.0778C6.08667 17.1127 6.09421 17.1377 6.11847 17.1623C6.12892 17.1733 6.13998 17.1765 6.15369 17.1764C6.18652 17.1832 6.21349 17.1663 6.22965 17.1354Z" fill="#002036"/>
<path d="M22.5415 26.9934C22.5271 26.9493 22.4619 26.9525 22.4451 26.991C22.318 27.308 22.0644 27.3426 21.801 27.4241C21.7069 27.4536 21.5791 27.4946 21.5693 27.6178C21.5629 27.7054 21.1337 27.8798 21.0459 27.9496C20.7948 28.1471 20.451 28.1405 20.1495 28.222C20.1051 28.2333 20.0862 28.292 20.1015 28.3314C20.1898 28.5618 20.0535 29.0461 19.773 29.0214C19.4464 28.993 19.1618 28.9077 18.8569 28.7928C18.8425 28.7869 18.8289 28.8007 18.8337 28.8154C18.9806 29.193 19.6669 29.1559 19.9968 29.2114C20.0467 29.2207 20.0819 29.183 20.0919 29.1392C20.1466 28.9314 20.2533 28.751 20.3034 28.5423C20.3517 28.3322 20.2555 28.3573 20.5466 28.3168C20.9622 28.2599 21.151 28.0516 21.5413 27.9474C21.6891 27.9086 21.7052 27.9158 21.7568 27.7847C21.8311 27.6005 22.07 27.6607 22.2157 27.6037C22.4986 27.494 22.622 27.2614 22.5415 26.9934Z" fill="#002036"/>
<path d="M21.8294 28.063C21.59 28.0761 21.2255 28.2687 21.3486 28.5103C21.1209 28.519 20.8703 28.5913 20.6514 28.6233C20.5869 28.6325 20.5869 28.7225 20.6509 28.7347C20.9 28.7784 21.2465 28.7298 21.4738 28.6144C21.5011 28.6005 21.5222 28.5599 21.4976 28.5323C21.2573 28.2802 21.7236 28.2387 21.8603 28.1829C21.9304 28.1563 21.9006 28.0592 21.8294 28.063Z" fill="#002036"/>
</g>
<g clip-path="url(#clip1_193_4300)">
<path d="M35.0215 6.83594C35.2589 6.83594 35.4921 6.86955 35.7253 6.92628C35.8409 6.9536 35.9018 7.23093 36.0195 7.26875C36.1435 7.30867 36.3199 7.11117 36.4439 7.1595C37.486 7.5713 38.5828 8.22473 40.001 8.22473C42.0684 8.22473 43.4488 6.83594 44.9804 6.83594C48.008 6.83594 51.2899 11.1557 50.8444 14.6224C50.3486 18.4883 46.0457 30.1407 43.0769 30.1407C41.6104 30.1407 41.6188 27.2286 40.8687 24.1044C40.5262 22.6757 39.8413 22.5055 39.4988 24.2178C38.858 27.4261 38.2991 30.1386 36.9271 30.1386C33.9563 30.1386 29.5693 17.7277 29.1596 14.6203C29.0104 13.4857 29.2709 12.2587 29.7941 11.1221C29.8193 11.0674 30.0168 11.0758 30.042 11.0212C30.0946 10.912 29.8046 10.8384 30.0357 10.6388C30.3614 10.2606 31.9204 9.95178 31.9204 9.95178C31.9204 9.95178 34.0571 6.86955 35.0215 6.83594Z" fill="#F3FAFF" stroke="#002036" stroke-width="0.228488" stroke-miterlimit="10"/>
<path d="M31.3324 11.803C31.3324 11.803 30.3365 10.826 30.0255 10.6474C30.0276 10.6453 30.0297 10.6432 30.0318 10.6411C30.3575 10.2629 31.9165 9.95407 31.9165 9.95407C31.9165 9.95407 34.0091 6.94118 34.9882 6.84033C35.0344 6.87395 35.0869 6.90336 35.1395 6.92858C35.2907 7.09456 35.4525 7.25004 35.6206 7.39711C35.65 7.44123 35.6731 7.47905 35.692 7.50846C35.7908 7.66814 35.8811 7.83202 35.9757 7.9938C36.0114 8.15348 35.7803 9.47714 35.7803 9.47714C35.7803 9.47714 35.9925 9.87003 36.5219 10.1915C36.5282 10.2944 35.5681 10.1053 35.4273 10.4247C35.2067 10.929 34.8789 11.1223 34.8789 11.1223L33.3809 11.6853L32.822 11.3702L31.3324 11.803Z" fill="#CFDCE4"/>
<path opacity="0.5" d="M31.2584 12.0402C31.3277 12.0738 31.397 12.1053 31.4727 12.1305C31.7416 12.2251 32.1282 12.1767 32.4097 12.1894C32.7228 12.2041 33.0358 12.2356 33.3489 12.2188C34.5822 12.1515 35.8365 11.1935 36.2399 10.0295C36.5026 9.26891 36.408 8.49782 36.076 7.82129C37.261 8.10283 38.3473 8.87391 39.3873 9.43909C41.0807 10.3593 42.3266 8.82138 43.852 8.40748C45.3101 8.01248 46.6569 8.40118 47.6213 9.60717C48.7873 11.0632 48.8063 13.2189 48.3839 14.9564C48.0751 16.2234 45.8837 24.9532 44.4697 25.0687C43.0557 25.1822 43.3372 20.9171 40.4147 20.7448C38.736 20.646 37.9943 21.4802 37.7464 22.7744C37.4837 24.1443 37.5825 25.4238 36.1097 25.3356C34.6368 25.2473 30.6133 18.9001 30.7226 14.8745C30.7457 13.9563 30.9516 12.9856 31.2584 12.0402Z" fill="white"/>
<path d="M36.1119 7.90137C37.1813 8.22913 38.1709 8.92037 39.1248 9.43723C40.8182 10.3575 42.0641 8.81952 43.5895 8.40562C43.766 8.35729 43.9425 8.32158 44.1147 8.29636C43.1315 9.3784 41.6754 10.1978 40.2614 10.347C39.2592 10.4541 38.4272 10.2083 37.4713 9.93728C37.0994 9.83222 36.7128 9.74398 36.3262 9.70406C36.4628 9.08005 36.3703 8.46024 36.1119 7.90137Z" fill="white"/>
<path d="M31.6409 19.7342C30.9181 18.0807 30.4202 16.3242 30.4601 14.8724C30.4853 13.9143 30.7101 12.8953 31.04 11.9099C31.166 12.0003 31.311 12.0759 31.4707 12.1305C31.7396 12.2251 32.1262 12.1767 32.4077 12.1894C32.4624 12.1915 32.5191 12.1957 32.5737 12.1978C32.0737 13.1579 31.7648 14.2421 31.5883 15.2127C31.3803 16.362 31.2333 17.5344 31.4077 18.6963C31.4623 19.0514 31.5442 19.3959 31.6409 19.7342Z" fill="white"/>
<path d="M42.8711 8.70586C42.1085 9.32356 41.121 9.49585 40.165 9.32566C39.022 9.12396 37.7551 8.51676 37.3328 7.53978C38.1228 7.88435 38.9779 8.22472 40.0011 8.22472C41.9593 8.22472 43.304 6.9767 44.7432 6.84644C44.115 7.46204 43.5603 8.14908 42.8711 8.70586Z" fill="#E6F5FE"/>
<path d="M33.6051 24.2557C34.1639 25.0878 35.6725 26.1404 36.8365 25.8252C37.9794 25.5164 38.0761 23.9112 38.2946 22.9741C38.3975 22.5329 38.4648 21.7555 38.9417 21.5454C39.4186 21.3353 40.0216 21.371 40.4713 21.6315C41.3747 22.1547 42.1017 23.2241 42.2592 24.2578C42.4063 25.2243 42.5828 26.5963 43.8308 26.6215C44.4864 26.6341 44.8225 25.9156 45.207 25.4701C45.8289 24.7516 48.6086 19.8394 50.7559 15.1855C49.968 19.5053 45.9151 30.1408 43.0766 30.1408C41.61 30.1408 41.6184 27.2287 40.8684 24.1045C40.5259 22.6758 39.841 22.5056 39.4985 24.2179C38.8577 27.4262 38.2988 30.1387 36.9268 30.1387C34.7816 30.1387 31.8948 23.659 30.3043 18.8918C31.3591 21.058 32.3802 22.4362 33.6051 24.2557Z" fill="#E6F5FE"/>
<path d="M42.6694 14.9165C42.6694 15.5321 43.1673 16.0301 43.7829 16.0301C44.3985 16.0301 44.8965 15.5321 44.8965 14.9165C44.8965 14.3009 44.3985 13.803 43.7829 13.803C43.1673 13.803 42.6694 14.3009 42.6694 14.9165Z" fill="#002036"/>
<path d="M43.0393 15.2443C43.0393 15.425 43.1864 15.572 43.3671 15.572C43.5478 15.572 43.6948 15.425 43.6948 15.2443C43.6948 15.0636 43.5478 14.9165 43.3671 14.9165C43.1864 14.9165 43.0393 15.0636 43.0393 15.2443Z" fill="white"/>
<path d="M43.4843 14.7044C43.4843 14.8221 43.5788 14.9166 43.6965 14.9166C43.8141 14.9166 43.9087 14.8221 43.9087 14.7044C43.9087 14.5867 43.8141 14.4922 43.6965 14.4922C43.5788 14.4943 43.4843 14.5888 43.4843 14.7044Z" fill="white"/>
<path d="M36.8096 14.9165C36.8096 15.5321 36.3116 16.0301 35.696 16.0301C35.0804 16.0301 34.5825 15.5321 34.5825 14.9165C34.5825 14.3009 35.0804 13.803 35.696 13.803C36.3095 13.803 36.8096 14.3009 36.8096 14.9165Z" fill="#002036"/>
<path d="M36.4375 15.2443C36.4375 15.425 36.2904 15.572 36.1097 15.572C35.929 15.572 35.782 15.425 35.782 15.2443C35.782 15.0636 35.929 14.9165 36.1097 14.9165C36.2904 14.9165 36.4375 15.0636 36.4375 15.2443Z" fill="white"/>
<path d="M35.9922 14.7044C35.9922 14.8221 35.8976 14.9166 35.78 14.9166C35.6623 14.9166 35.5678 14.8221 35.5678 14.7044C35.5678 14.5867 35.6623 14.4922 35.78 14.4922C35.8976 14.4943 35.9922 14.5888 35.9922 14.7044Z" fill="white"/>
<path d="M33.9333 13.2695C34.5804 13.2695 35.694 12.9586 36.1982 12.5657" stroke="#002036" stroke-width="0.342722" stroke-miterlimit="10" stroke-linecap="round" stroke-linejoin="round"/>
<path d="M45.1885 13.2695C44.5414 13.2695 43.4278 12.9586 42.9236 12.5657" stroke="#002036" stroke-width="0.342722" stroke-miterlimit="10" stroke-linecap="round" stroke-linejoin="round"/>
<path d="M37.9817 7.93274C37.9817 7.93274 38.0448 7.96005 38.154 8.00628C38.2654 8.0525 38.4188 8.11973 38.6037 8.20377C38.6982 8.2458 38.7991 8.28992 38.9083 8.33614C39.0155 8.38446 39.131 8.43279 39.2529 8.47481C39.3747 8.51683 39.4966 8.57146 39.6269 8.60717C39.7571 8.64499 39.8895 8.68281 40.0219 8.72063C40.1542 8.75845 40.2908 8.77736 40.4232 8.80677C40.5555 8.82989 40.6837 8.8656 40.814 8.87401C41.0703 8.89712 41.3056 8.93704 41.5115 8.93704C41.9212 8.94334 42.1943 8.94754 42.1943 8.94754C42.1943 8.94754 41.9233 8.92863 41.5157 8.90132C41.3119 8.88871 41.0787 8.83829 40.8266 8.80257C40.7005 8.78786 40.5744 8.74584 40.4442 8.71643C40.316 8.68071 40.1815 8.6555 40.0555 8.61138C39.9273 8.56726 39.8012 8.52313 39.6752 8.47901C39.5491 8.43699 39.4315 8.37816 39.3159 8.32984C39.1983 8.28151 39.089 8.22899 38.9839 8.17646C38.8789 8.12394 38.7801 8.07561 38.6898 8.02939C38.507 7.93484 38.3536 7.8571 38.2465 7.80458C38.1393 7.75205 38.0784 7.72264 38.0784 7.72264C38.0217 7.69532 37.9523 7.71843 37.925 7.77516C37.8977 7.83189 37.9208 7.90123 37.9775 7.92854C37.9775 7.93064 37.9775 7.93064 37.9817 7.93274Z" fill="#002036"/>
<path d="M46.6948 8.20821C46.8755 8.1956 47.094 8.35948 47.2285 8.46663C47.4176 8.61581 47.5373 8.78809 47.6466 9.0003C47.6529 9.0129 47.6361 9.02341 47.6277 9.0108C47.5142 8.82591 47.344 8.67043 47.1738 8.54017C47.0247 8.42671 46.8061 8.38259 46.678 8.25233C46.6612 8.23552 46.6738 8.21031 46.6948 8.20821Z" fill="#002036"/>
<path d="M46.4932 8.37379C46.718 8.41371 46.9659 8.53347 47.0794 8.74147C47.0857 8.75197 47.0731 8.76878 47.0605 8.76038C46.8756 8.62801 46.6802 8.54607 46.4575 8.50615C46.3692 8.48934 46.407 8.35698 46.4932 8.37379Z" fill="#002036"/>
<path d="M46.7138 23.5603C46.802 23.4469 46.9176 23.3691 47.0142 23.262C47.134 23.1317 47.2243 22.9699 47.258 22.7955C47.2601 22.785 47.2727 22.7892 47.2748 22.7976C47.3105 23.1149 47.0731 23.5603 46.7243 23.5813C46.7117 23.5855 46.7075 23.5687 46.7138 23.5603Z" fill="#002036"/>
<path d="M46.2851 23.3881C46.4532 23.2389 46.6885 23.178 46.8272 22.991C46.8356 22.9784 46.8545 22.9868 46.8524 23.0015C46.7935 23.2452 46.5414 23.4133 46.2977 23.4133C46.283 23.4133 46.2746 23.3986 46.2851 23.3881Z" fill="#002036"/>
<path d="M32.5293 21.8691C32.6301 22.0708 32.6658 22.2977 32.7688 22.5015C32.8696 22.699 33.0146 22.8671 33.1323 23.0541C33.1344 23.0583 33.1302 23.0646 33.126 23.0625C32.7982 22.8419 32.4431 22.2935 32.4662 21.8859C32.4683 21.8544 32.5145 21.8376 32.5293 21.8691Z" fill="#002036"/>
<path d="M32.7083 21.5371C32.7146 21.5182 32.7377 21.514 32.7503 21.5308C32.8217 21.6358 32.828 21.7577 32.8533 21.8796C32.8785 22.0014 32.9142 22.1317 32.9604 22.2472C32.9751 22.283 32.9205 22.2998 32.9016 22.2725C32.7671 22.0813 32.62 21.7724 32.7083 21.5371Z" fill="#002036"/>
<path d="M34.2944 17.2679C34.2944 17.5726 34.7735 17.8205 35.366 17.8205C35.9564 17.8205 36.4375 17.5726 36.4375 17.2679C36.4375 16.9633 35.9585 16.7153 35.366 16.7153C34.7756 16.7174 34.2944 16.9633 34.2944 17.2679Z" fill="#F8C2C0"/>
<path d="M42.8379 17.2679C42.8379 17.5726 43.3169 17.8205 43.9094 17.8205C44.5019 17.8205 44.981 17.5726 44.981 17.2679C44.981 16.9633 44.5019 16.7153 43.9094 16.7153C43.3169 16.7153 42.8379 16.9633 42.8379 17.2679Z" fill="#F8C2C0"/>
<path d="M40.9214 18.0747C40.9781 17.5242 40.5831 16.7993 39.9696 16.8182C39.3981 16.8371 39.146 17.4948 39.0556 17.9612" stroke="#002036" stroke-width="0.228488" stroke-miterlimit="10" stroke-linecap="round"/>
<path d="M34.8727 6.86133C34.8727 6.86133 35.6942 7.24162 35.9925 8.11775C36.0955 8.4203 35.9379 9.14096 35.7803 9.38888C35.6227 9.6368 36.522 10.1936 36.522 10.1936C36.522 10.1936 35.3664 10.0486 35.3664 10.536C35.3664 11.1454 33.9335 11.4311 33.4587 11.6538C33.2927 11.7315 32.822 11.3744 32.822 11.3744L31.3429 11.7547L30.0298 10.6411" stroke="#002036" stroke-width="0.228488" stroke-miterlimit="10"/>
<path d="M35.8517 7.80029C36.085 8.32765 35.9715 8.89914 35.8559 9.46852C35.7425 9.81099 36.1984 10.04 36.522 10.1913C36.3203 10.1682 36.2909 10.0463 36.522 10.1913C36.3119 10.1535 36.085 10.1535 35.8559 10.1535C35.2845 10.3825 35.171 11.0674 34.5995 11.2964C34.1436 11.5254 33.6856 11.6389 33.3431 11.5254C32.7716 11.412 32.0867 11.6389 31.5152 11.7545C30.9437 11.7545 29.9247 10.7333 30.0319 10.6409C30.1873 10.3699 31.9165 9.95386 31.9165 9.95386C31.9165 9.95386 31.9102 10.5905 32.1707 10.5274C32.593 10.4266 33.1666 10.3131 33.278 10.4266C33.6961 10.8447 35.15 9.87612 35.0681 9.65971C34.8958 9.2185 35.8517 7.80029 35.8517 7.80029Z" fill="#BCD6E6"/>
<path d="M31.4308 11.0211C32.246 11.038 32.3616 10.685 33.1705 10.9287C33.9647 11.1682 34.6265 10.9959 35.095 10.2732C35.532 9.59664 35.5257 8.74782 35.9417 8.08179C36.0426 8.52721 35.948 8.99784 35.8535 9.46847C35.7548 9.76472 36.0825 9.97483 36.3809 10.1261C36.4061 10.1303 36.4502 10.1492 36.5195 10.1933C36.3094 10.1555 36.0825 10.1555 35.8535 10.1555C35.282 10.3845 35.1686 11.0695 34.5971 11.2985C34.1412 11.5275 33.6831 11.641 33.3407 11.5275C32.7692 11.414 32.0842 11.641 31.5128 11.7565C31.227 11.7565 30.3572 10.893 30.1135 10.643C30.1387 10.6409 31.4077 11.0211 31.4308 11.0211Z" fill="#BCD6E6"/>
<path d="M36.4837 10.2984L37.4438 10.603L37.4081 10.5673L37.5615 10.9161L37.5888 10.977L37.6371 10.9371L37.9313 10.706L37.8934 10.7102L38.4082 10.8972L37.925 10.6367L37.9061 10.6261L37.885 10.6409L37.5783 10.8573L37.6539 10.8783L37.5216 10.5211L37.5132 10.498L37.4858 10.4875L36.5635 10.0862L36.4837 10.2984Z" fill="#002036"/>
<path d="M31.2901 11.6558L31.0653 12.1054L31.0968 12.0802L30.8258 12.1936L30.7922 12.2083L30.7943 12.2399L30.8048 12.5655L30.83 12.5277L30.3026 12.763L30.8573 12.6033L30.8825 12.5949L30.8846 12.5655L30.8951 12.2399L30.8615 12.2882L31.1388 12.1957L31.1535 12.1894L31.1703 12.1705L31.4834 11.7797L31.2901 11.6558Z" fill="#002036"/>
<path d="M37.2151 10.5194L37.8412 10.0109L37.8118 10.0193L38.6753 9.90796H37.8055H37.7929L37.776 9.91846L37.0827 10.3324L37.2151 10.5194Z" fill="#002036"/>
<path d="M33.4098 11.5488C33.4098 11.5488 33.3258 11.5887 33.2018 11.6497C33.1388 11.6812 33.0674 11.7085 32.9896 11.74C32.9098 11.7715 32.8279 11.8052 32.7417 11.8388C32.3992 11.9711 32.0484 12.0972 32.0484 12.0972C32.0484 12.0972 32.4119 12.0258 32.7753 11.948C32.8678 11.927 32.9602 11.906 33.0464 11.885C33.1325 11.864 33.2166 11.8472 33.2817 11.8241C33.4161 11.7841 33.5044 11.7568 33.5044 11.7568L33.4098 11.5488Z" fill="#002036"/>
<path d="M29.964 11.1095L30.8779 11.7483L30.1131 10.9373L29.964 11.1095Z" fill="#002036"/>
<path d="M35.8259 7.23533C35.8259 7.23533 35.8805 7.32357 35.9603 7.45594C36.0003 7.52317 36.0486 7.59881 36.099 7.68285C36.1452 7.76689 36.1936 7.85724 36.2419 7.94758C36.4394 8.30896 36.6138 8.68715 36.6138 8.68715C36.6138 8.68715 36.494 8.29005 36.3448 7.89926C36.3091 7.80051 36.2713 7.70176 36.2377 7.60931C36.1999 7.51897 36.162 7.43703 36.1326 7.36559C36.0717 7.22272 36.0297 7.12817 36.0297 7.12817L35.8259 7.23533Z" fill="#002036"/>
<path d="M29.7182 11.2126L30.3022 11.5446L29.8631 11.0361L29.7182 11.2126Z" fill="#002036"/>
<path d="M34.9188 7.48315C34.7255 7.68065 34.486 7.84873 34.2633 8.01051C34.0532 8.16389 33.8767 8.24163 33.6182 8.23953C33.614 8.23953 33.6119 8.23532 33.6119 8.23112C33.6561 8.03993 33.9166 7.89496 34.0595 7.7752C34.2717 7.59661 34.4566 7.3718 34.6877 7.21842C34.8768 7.09446 35.0806 7.31927 34.9188 7.48315Z" fill="white"/>
<path d="M36.7167 16.5869C36.765 16.5869 36.765 16.6626 36.7167 16.6626C36.6684 16.6626 36.6684 16.5869 36.7167 16.5869Z" fill="#002036"/>
<path d="M36.3429 16.522C36.5257 16.522 36.5257 16.8035 36.3429 16.8035C36.1601 16.8056 36.1601 16.522 36.3429 16.522Z" fill="#002036"/>
<path d="M35.5674 16.467C35.6598 16.467 35.6598 16.6099 35.5674 16.6099C35.4749 16.6099 35.4749 16.467 35.5674 16.467Z" fill="#002036"/>
<path d="M35.8598 16.7507C36.0005 16.7507 36.0005 16.9692 35.8598 16.9692C35.719 16.9713 35.719 16.7507 35.8598 16.7507Z" fill="#002036"/>
<path d="M35.2383 16.8223C35.3958 16.8223 35.3958 17.066 35.2383 17.066C35.0807 17.0681 35.0807 16.8223 35.2383 16.8223Z" fill="#002036"/>
<path d="M34.8431 16.3474C34.967 16.3474 34.967 16.5407 34.8431 16.5407C34.7191 16.5407 34.7191 16.3474 34.8431 16.3474Z" fill="#002036"/>
<path d="M34.2713 16.4966C34.3679 16.4966 34.3679 16.6479 34.2713 16.6479C34.1746 16.6479 34.1746 16.4966 34.2713 16.4966Z" fill="#002036"/>
<path d="M34.3158 16.9797C34.3557 16.9797 34.3557 17.0428 34.3158 17.0428C34.2758 17.0428 34.2758 16.9797 34.3158 16.9797Z" fill="#002036"/>
<path d="M36.4256 17.2234C36.5118 17.2234 36.5118 17.3579 36.4256 17.3579C36.3395 17.3558 36.3395 17.2234 36.4256 17.2234Z" fill="#002036"/>
<path d="M36.8118 16.8811C36.8896 16.8811 36.8896 17.0009 36.8118 17.0009C36.7341 17.003 36.7341 16.8811 36.8118 16.8811Z" fill="#002036"/>
<path d="M35.8391 17.3391C35.8622 17.3391 35.8622 17.3748 35.8391 17.3748C35.8181 17.3727 35.8181 17.3391 35.8391 17.3391Z" fill="#002036"/>
<path d="M35.385 17.2256C35.427 17.2256 35.427 17.2886 35.385 17.2886C35.3451 17.2886 35.3451 17.2256 35.385 17.2256Z" fill="#002036"/>
<path d="M45.0038 16.5869C45.0521 16.5869 45.0521 16.6626 45.0038 16.6626C44.9555 16.6626 44.9555 16.5869 45.0038 16.5869Z" fill="#002036"/>
<path d="M44.6276 16.522C44.8103 16.522 44.8103 16.8035 44.6276 16.8035C44.4448 16.8035 44.4469 16.522 44.6276 16.522Z" fill="#002036"/>
<path d="M43.8545 16.467C43.9469 16.467 43.9469 16.6099 43.8545 16.6099C43.762 16.6099 43.762 16.467 43.8545 16.467Z" fill="#002036"/>
<path d="M44.1464 16.7507C44.2871 16.7507 44.2871 16.9692 44.1464 16.9692C44.0056 16.9713 44.0056 16.7507 44.1464 16.7507Z" fill="#002036"/>
<path d="M43.5224 16.8223C43.68 16.8223 43.68 17.066 43.5224 17.066C43.367 17.0681 43.367 16.8223 43.5224 16.8223Z" fill="#002036"/>
<path d="M43.1292 16.3474C43.2532 16.3474 43.2532 16.5407 43.1292 16.5407C43.0052 16.5407 43.0052 16.3474 43.1292 16.3474Z" fill="#002036"/>
<path d="M42.5579 16.4966C42.6545 16.4966 42.6545 16.6479 42.5579 16.6479C42.4591 16.6479 42.4591 16.4966 42.5579 16.4966Z" fill="#002036"/>
<path d="M42.6024 16.9797C42.6423 16.9797 42.6423 17.0428 42.6024 17.0428C42.5625 17.0428 42.5625 16.9797 42.6024 16.9797Z" fill="#002036"/>
<path d="M44.7118 17.2234C44.7979 17.2234 44.7979 17.3579 44.7118 17.3579C44.6256 17.3558 44.6256 17.2234 44.7118 17.2234Z" fill="#002036"/>
<path d="M45.0984 16.8811C45.1762 16.8811 45.1762 17.0009 45.0984 17.0009C45.0207 17.003 45.0207 16.8811 45.0984 16.8811Z" fill="#002036"/>
<path d="M44.1257 17.3391C44.1488 17.3391 44.1488 17.3748 44.1257 17.3748C44.1047 17.3727 44.1047 17.3391 44.1257 17.3391Z" fill="#002036"/>
<path d="M43.6717 17.2256C43.7116 17.2256 43.7116 17.2886 43.6717 17.2886C43.6318 17.2886 43.6318 17.2256 43.6717 17.2256Z" fill="#002036"/>
<path d="M33.6533 17.2971C33.5567 17.6921 33.8319 18.274 34.2752 18.3392C34.6681 18.398 34.8992 18.0492 34.7627 17.6668C34.4433 16.7676 34.874 16.0217 34.874 16.0217C34.874 16.0217 33.8697 16.4041 33.6533 17.2971Z" fill="#B7E2FA"/>
<path d="M34.4103 17.5933C34.3032 16.5344 34.8726 16.0217 34.8726 16.0217C34.8726 16.0217 34.4418 16.7676 34.7612 17.6668C34.8978 18.0492 34.6667 18.3959 34.2738 18.3392C34.1918 18.3266 34.1162 18.2972 34.0468 18.2551C34.2422 18.0955 34.4355 17.8391 34.4103 17.5933Z" fill="#A1DAF8"/>
<path d="M33.9521 17.0891C33.9164 17.3286 34.1538 17.793 34.1013 17.877C34.0466 17.9652 33.9353 17.9547 33.8659 17.8938C33.7567 17.7951 33.6642 17.3202 33.9521 17.0891Z" fill="white"/>
<path d="M31.771 6.13846C31.7774 6.03131 31.9244 5.95357 32.0106 6.02921C32.2396 6.23301 32.3131 6.51875 32.3909 6.80869C32.477 7.12595 32.5652 7.52725 32.4686 7.84871C32.4392 7.94536 32.2921 7.97057 32.2333 7.88863C32.0736 7.67012 32.0379 7.38648 31.9748 7.12805C31.8971 6.80869 31.7521 6.47043 31.771 6.13846Z" fill="#002036"/>
<path d="M30.4685 7.0985C30.6891 7.17834 30.8635 7.33171 31.0442 7.47458C31.2396 7.62796 31.4371 7.79394 31.6094 7.97253C31.6598 8.02506 31.6073 8.12591 31.5359 8.1112C31.2942 8.06708 31.0967 7.93261 30.9035 7.78764C30.706 7.63847 30.5022 7.45778 30.3509 7.26238C30.2857 7.18044 30.3677 7.06068 30.4685 7.0985Z" fill="#002036"/>
<path d="M29.351 7.96452C29.9162 8.04436 30.3994 8.34481 30.9856 8.36372C31.1285 8.36792 31.1537 8.54651 31.0676 8.63055C30.8365 8.85957 30.4709 8.79233 30.1851 8.7209C29.8322 8.63266 29.4687 8.48768 29.2123 8.22295C29.1157 8.1242 29.2187 7.94562 29.351 7.96452Z" fill="#002036"/>
</g>
<defs>
<clipPath id="clip0_193_4300">
<rect width="23.4098" height="26.2044" fill="white" transform="translate(17.144 0.307129) rotate(38.2476)"/>
</clipPath>
<clipPath id="clip1_193_4300">
<rect width="22" height="24.2544" fill="white" transform="matrix(-1 0 0 1 51 6)"/>
</clipPath>
</defs>
</svg>
