<svg width="34" height="35" viewBox="0 0 34 35" fill="none" xmlns="http://www.w3.org/2000/svg">
<g clip-path="url(#clip0_185_2679)">
<path d="M4.41193 2.57197C5.59845 1.70905 9.49658 0.489571 12.9992 2.24838C14.74 3.12328 17.3498 4.76524 21.4277 1.9068C23.5311 0.429645 27.9326 -1.12841 31.633 3.16224C33.3558 5.16074 35.3064 10.6859 32.8165 15.369C31.4652 17.9098 28.4419 21.787 27.9056 26.3533C27.567 29.2327 26.1528 33.5144 23.6449 34.602C22.755 34.9885 20.6247 35.5249 20.3161 32.6035C20.3161 32.6035 20.3161 30.4582 18.0239 30.1616C18.0239 30.1616 15.8786 30.2514 15.8786 32.6035C15.8786 34.6739 13.7333 35.4889 11.6089 34.0088C9.75726 32.7204 8.57374 30.4552 8.03741 27.1293C7.8007 25.6582 6.72804 23.5368 5.37373 21.802C3.27035 19.1113 -4.24427 8.85813 4.41193 2.57197Z" fill="white"/>
<path d="M21.4249 1.90366C17.3499 4.76209 14.7372 3.12014 12.9964 2.24523C12.2713 1.87969 11.5282 1.64897 10.7971 1.51115C7.15365 1.23249 7.70497 4.5134 10.5185 5.03175C15.4353 5.94561 18.1799 4.13587 21.4249 1.90366Z" fill="#E6E7E9"/>
<path d="M23.7616 0.747131C27.1863 1.11867 22.7399 8.01606 17.1698 8.25277C11.9503 8.47449 16.4387 9.99959 20.9661 9.77487C22.644 9.69097 25.847 8.33966 27.3301 11.9292C27.8425 13.1726 27.9534 14.5509 26.1826 17.1906C23.1683 21.688 24.4118 28.4326 19.5788 28.1929C17.9339 28.112 14.4612 27.7614 13.5024 30.7277C13.1608 31.7884 11.8754 35.315 9.04395 30.7337C9.67316 32.1689 10.5241 33.2566 11.6057 34.0086C13.7331 35.4858 15.8784 34.6738 15.8754 32.6034C15.8754 30.2543 18.0207 30.1614 18.0207 30.1614C20.3129 30.4581 20.3129 32.6034 20.3129 32.6034C20.6215 35.5217 22.7518 34.9854 23.6417 34.6019C26.1496 33.5143 27.5638 29.2326 27.9024 26.3532C28.4387 21.7869 31.462 17.9097 32.8133 15.3689C35.3062 10.6857 33.3556 5.16062 31.6298 3.16212C29.005 0.114919 26.0238 0.0190388 23.7616 0.747131Z" fill="#E6E7E9"/>
<path d="M12.8254 12.5553C12.8254 13.2385 12.2711 13.7928 11.588 13.7928C10.9048 13.7928 10.3535 13.2385 10.3535 12.5553C10.3535 11.8722 10.9078 11.3179 11.588 11.3179C12.2711 11.3209 12.8254 11.8722 12.8254 12.5553Z" fill="#141414"/>
<path d="M24.8646 12.5553C24.8646 13.2385 24.3103 13.7928 23.6271 13.7928C22.944 13.7928 22.3896 13.2385 22.3896 12.5553C22.3896 11.8722 22.944 11.3179 23.6271 11.3179C24.3103 11.3209 24.8646 11.8722 24.8646 12.5553Z" fill="#141414"/>
<path d="M13.9429 18.2183H21.2717" stroke="#141414" stroke-width="0.767582" stroke-miterlimit="10" stroke-linecap="round" stroke-linejoin="round"/>
<path d="M8.80156 10.5089C8.79557 10.1523 8.72366 9.81375 8.59782 9.50214C8.31317 8.51337 7.63002 6.82348 5.98508 4.38452C5.98508 4.38452 4.14537 7.26393 3.43526 9.35832C3.26447 9.72386 3.1626 10.1284 3.1626 10.5598C3.1626 12.1179 4.42402 13.3793 5.98208 13.3793C7.54014 13.3793 8.80156 12.1179 8.80156 10.5598C8.80456 10.5598 8.80456 10.5388 8.80156 10.5089Z" fill="#67EEF4"/>
</g>
<defs>
<clipPath id="clip0_185_2679">
<rect width="33.66" height="34.5409" fill="white" transform="translate(0.339844 0.369629)"/>
</clipPath>
</defs>
</svg>
