<svg width="15" height="19" viewBox="0 0 15 19" fill="none" xmlns="http://www.w3.org/2000/svg">
<path d="M2.3248 2.55002H0.549805V0.775024H14.7498V2.55002H12.9748V4.32502C12.9748 5.75872 12.2504 6.9118 11.3383 7.85432C10.7145 8.49894 9.95553 9.09267 9.18598 9.65002C9.95553 10.2074 10.7145 10.8011 11.3383 11.4457C12.2504 12.3882 12.9748 13.5414 12.9748 14.975V16.75H14.7498V18.525H0.549805V16.75H2.3248V14.975C2.3248 13.5414 3.04915 12.3882 3.96127 11.4457C4.58511 10.8011 5.3441 10.2074 6.11363 9.65002C5.3441 9.09267 4.58511 8.49894 3.96127 7.85432C3.04915 6.9118 2.3248 5.75872 2.3248 4.32502V2.55002ZM4.0998 2.55002V4.32502C4.0998 4.93309 4.33079 5.50983 4.78434 6.10002H10.5153C10.9688 5.50983 11.1998 4.93309 11.1998 4.32502V2.55002H4.0998ZM7.6498 10.7345C6.72219 11.3897 5.88191 12.0134 5.23678 12.6801C5.06725 12.8553 4.91637 13.0282 4.78434 13.2H10.5153C10.3832 13.0282 10.2323 12.8553 10.0628 12.6801C9.4177 12.0134 8.57742 11.3897 7.6498 10.7345Z" fill="white"/>
</svg>
