<svg width="22" height="23" viewBox="0 0 22 23" fill="none" xmlns="http://www.w3.org/2000/svg">
<path d="M2.57707 2.1017C3.3279 1.55565 5.79463 0.783964 8.01109 1.89693C9.11269 2.45057 10.7641 3.4896 13.3446 1.68079C14.6756 0.746043 17.4609 -0.239892 19.8025 2.47522C20.8927 3.73987 22.127 7.23615 20.5495 10.1996C19.6944 11.8075 17.7813 14.2609 17.4419 17.1505C17.2277 18.9726 16.3328 21.682 14.7458 22.3703C14.1827 22.6149 12.8346 22.9542 12.6393 21.1056C12.6393 21.1056 12.6393 19.7481 11.1888 19.5603C11.1888 19.5603 9.83128 19.6172 9.83128 21.1056C9.83128 22.4158 8.47372 22.9315 7.12944 21.9949C5.95769 21.1796 5.20876 19.7462 4.86937 17.6416C4.71958 16.7106 4.0408 15.3682 3.1838 14.2704C1.85468 12.5678 -2.90056 6.07958 2.57707 2.1017Z" fill="white"/>
<path d="M13.3429 1.67891C10.7643 3.48772 9.11283 2.4487 8.00934 1.89506C7.5505 1.66374 7.08029 1.51775 6.61766 1.43053C4.31209 1.2542 4.66096 3.33035 6.44133 3.65836C9.55271 4.23665 11.2895 3.09145 13.3429 1.67891Z" fill="#E6E7E9"/>
<path d="M14.8216 0.946977C16.9888 1.18208 14.1751 5.54675 10.6503 5.69843C7.34935 5.83873 10.1877 6.80381 13.0526 6.66161C14.1144 6.60852 16.1412 5.75341 17.0798 8.02486C17.4059 8.81171 17.4741 9.68388 16.3536 11.3543C14.4462 14.2002 15.233 18.4682 12.1747 18.3184C11.1338 18.2672 8.93632 18.0454 8.32959 19.9224C8.11345 20.5936 7.30005 22.8253 5.5083 19.9262C5.90647 20.8344 6.44494 21.5227 7.12941 21.9986C8.47559 22.9333 9.83315 22.4195 9.83125 21.1094C9.83125 19.621 11.1888 19.5641 11.1888 19.5641C12.6393 19.7518 12.6393 21.1094 12.6393 21.1094C12.8346 22.9561 14.1826 22.6167 14.7458 22.374C16.3327 21.6858 17.2277 18.9763 17.4419 17.1542C17.7813 14.2647 19.6925 11.8112 20.5495 10.2034C22.127 7.2399 20.8927 3.74362 19.8025 2.47897C18.1397 0.546914 16.2531 0.486241 14.8216 0.946977Z" fill="#E6E7E9"/>
<path d="M5.51221 8.62969C5.51221 8.08173 5.95588 7.63806 6.50573 7.63806C7.05368 7.63806 7.49735 8.08173 7.49735 8.62969" stroke="#141414" stroke-width="0.752532" stroke-miterlimit="10" stroke-linecap="round" stroke-linejoin="round"/>
<path d="M13.3184 8.62969C13.3184 8.08173 13.762 7.63806 14.31 7.63806C14.8579 7.63806 15.3016 8.08173 15.3016 8.62969" stroke="#141414" stroke-width="0.752532" stroke-miterlimit="10" stroke-linecap="round" stroke-linejoin="round"/>
<path d="M11.0273 12.7194C11.0273 12.7194 12.6541 12.7043 13.0182 11.1495" stroke="#141414" stroke-width="0.752532" stroke-miterlimit="10" stroke-linecap="round" stroke-linejoin="round"/>
</svg>
