<svg width="16" height="16" viewBox="0 0 16 16" fill="none" xmlns="http://www.w3.org/2000/svg">
<path d="M14.2501 6.74999H4.76261L8.88762 2.63749C9.12299 2.40211 9.25523 2.08286 9.25523 1.74999C9.25523 1.41711 9.12299 1.09787 8.88762 0.862488C8.65224 0.627108 8.33299 0.494873 8.00011 0.494873C7.66724 0.494873 7.34799 0.627108 7.11261 0.862488L0.862615 7.11249C0.748814 7.23137 0.659608 7.37155 0.600115 7.52499C0.475092 7.82931 0.475092 8.17066 0.600115 8.47499C0.659608 8.62843 0.748814 8.76861 0.862615 8.88749L7.11261 15.1375C7.22882 15.2546 7.36707 15.3476 7.51939 15.4111C7.67172 15.4746 7.8351 15.5072 8.00011 15.5072C8.16513 15.5072 8.32851 15.4746 8.48084 15.4111C8.63316 15.3476 8.77141 15.2546 8.88762 15.1375C9.00478 15.0213 9.09777 14.883 9.16123 14.7307C9.22469 14.5784 9.25736 14.415 9.25736 14.25C9.25736 14.085 9.22469 13.9216 9.16123 13.7693C9.09777 13.6169 9.00478 13.4787 8.88762 13.3625L4.76261 9.24999H14.2501C14.5816 9.24999 14.8996 9.11829 15.134 8.88387C15.3684 8.64945 15.5001 8.33151 15.5001 7.99999C15.5001 7.66847 15.3684 7.35052 15.134 7.1161C14.8996 6.88168 14.5816 6.74999 14.2501 6.74999Z" fill="#404959"/>
</svg>
