<svg width="8" height="12" viewBox="0 0 8 12" fill="none" xmlns="http://www.w3.org/2000/svg">
<path d="M7.54399 3.2881C7.50559 3.14398 7.42746 2.9905 7.36975 2.8561C6.67867 1.1953 5.1687 0.600098 3.94951 0.600098C2.31739 0.600098 0.519785 1.6945 0.279785 3.95038V4.4113C0.279785 4.4305 0.286385 4.6033 0.295865 4.6897C0.430385 5.76478 1.27867 6.9073 1.91227 7.98238C2.59387 9.13426 3.30115 10.2673 4.00207 11.3999C4.43407 10.6608 4.86463 9.91198 5.28691 9.19198C5.40199 8.98066 5.53543 8.76946 5.65063 8.56786C5.72743 8.43358 5.87407 8.2993 5.94115 8.17438C6.62263 6.92674 7.71979 5.6689 7.71979 4.4305V3.9217C7.71979 3.78742 7.55335 3.31702 7.54399 3.2881ZM3.97939 5.6017C3.49963 5.6017 2.97451 5.36182 2.71531 4.6993C2.67667 4.59382 2.67979 4.3825 2.67979 4.36318V4.06558C2.67979 3.22102 3.3969 2.8369 4.02079 2.8369C4.78878 2.8369 5.38291 3.45142 5.38291 4.21942C5.38291 4.98742 4.74739 5.6017 3.97939 5.6017Z" fill="#1F1F1F"/>
</svg>
