<svg width="38" height="37" viewBox="0 0 38 37" fill="none" xmlns="http://www.w3.org/2000/svg">
<circle cx="19" cy="18.7527" r="17.2192" fill="white" stroke="#07386D" stroke-width="1.61538"/>
<path d="M15.6141 23L13.6239 19.4849H12.771V23H10.9618V13.9797H14.3476C15.0455 13.9797 15.6399 14.1046 16.131 14.3545C16.6221 14.5957 16.9882 14.9274 17.2295 15.3495C17.4793 15.7631 17.6042 16.2283 17.6042 16.7452C17.6042 17.3397 17.4319 17.8782 17.0873 18.3606C16.7427 18.8345 16.2301 19.1618 15.5495 19.3428L17.7076 23H15.6141ZM12.771 18.128H14.283C14.7741 18.128 15.1402 18.0117 15.3815 17.7791C15.6227 17.5378 15.7433 17.2062 15.7433 16.784C15.7433 16.3705 15.6227 16.0517 15.3815 15.8277C15.1402 15.5951 14.7741 15.4788 14.283 15.4788H12.771V18.128ZM21.0499 16.8745C21.2825 16.5471 21.6012 16.2757 22.0062 16.0603C22.4197 15.8363 22.8892 15.7243 23.4148 15.7243C24.0265 15.7243 24.5779 15.8751 25.0689 16.1766C25.5686 16.4782 25.9606 16.9089 26.2449 17.4689C26.5379 18.0203 26.6843 18.6622 26.6843 19.3945C26.6843 20.1268 26.5379 20.7772 26.2449 21.3458C25.9606 21.9058 25.5686 22.3409 25.0689 22.6511C24.5779 22.9612 24.0265 23.1163 23.4148 23.1163C22.8892 23.1163 22.424 23.0086 22.0191 22.7932C21.6228 22.5778 21.2997 22.3065 21.0499 21.9791V26.4117H19.2406V15.8406H21.0499V16.8745ZM24.8363 19.3945C24.8363 18.9637 24.7459 18.5932 24.5649 18.2831C24.3926 17.9643 24.16 17.7231 23.8671 17.5594C23.5828 17.3957 23.2726 17.3138 22.9366 17.3138C22.6092 17.3138 22.2991 17.4 22.0062 17.5723C21.7219 17.736 21.4892 17.9772 21.3083 18.296C21.136 18.6148 21.0499 18.9895 21.0499 19.4203C21.0499 19.8511 21.136 20.2258 21.3083 20.5446C21.4892 20.8634 21.7219 21.1089 22.0062 21.2812C22.2991 21.4449 22.6092 21.5268 22.9366 21.5268C23.2726 21.5268 23.5828 21.4406 23.8671 21.2683C24.16 21.096 24.3926 20.8505 24.5649 20.5317C24.7459 20.2129 24.8363 19.8338 24.8363 19.3945Z" fill="#07386D"/>
</svg>
