<svg width="22" height="22" viewBox="0 0 22 22" fill="none" xmlns="http://www.w3.org/2000/svg">
<path d="M2.57691 1.39357C3.32774 0.847518 5.79447 0.075834 8.01093 1.1888C9.11252 1.74244 10.764 2.78147 13.3445 0.972656C14.6755 0.0379135 17.4626 -0.948022 19.8023 1.76709C20.8926 3.03174 22.1269 6.52802 20.5513 9.49152C19.6962 11.0994 17.7831 13.5528 17.4437 16.4424C17.2294 18.2645 16.3345 20.9739 14.7475 21.6621C14.1844 21.9067 12.8363 22.2461 12.641 20.3975C12.641 20.3975 12.641 19.0399 11.1906 18.8522C11.1906 18.8522 9.83301 18.9091 9.83301 20.3975C9.83301 21.7076 8.47546 22.2234 7.13117 21.2867C5.95943 20.4714 5.21049 19.038 4.873 16.9334C4.72321 16.0025 4.04444 14.6601 3.18743 13.5623C1.85452 11.8597 -2.90072 5.37145 2.57691 1.39357Z" fill="white"/>
<path d="M13.3424 0.970778C10.7638 2.77959 9.11045 1.74057 8.00886 1.18693C7.55002 0.95561 7.0798 0.809615 6.61717 0.722398C4.3116 0.546067 4.66047 2.62222 6.44084 2.95023C9.55222 3.52852 11.289 2.38332 13.3424 0.970778Z" fill="#E6E7E9"/>
<path d="M14.8216 0.238847C16.9888 0.473955 14.1751 4.83862 10.6503 4.9903C7.34745 5.1306 10.1877 6.09568 13.0526 5.95348C14.1144 5.90039 16.1412 5.04528 17.0798 7.31673C17.404 8.10358 17.4741 8.97575 16.3536 10.6462C14.4462 13.4921 15.233 17.7601 12.1747 17.6103C11.1338 17.5591 8.93632 17.3372 8.32959 19.2143C8.11345 19.8855 7.30005 22.1171 5.5083 19.2181C5.90647 20.1263 6.44494 20.8146 7.12941 21.2905C8.47559 22.2252 9.83314 21.7114 9.83125 20.4012C9.83125 18.9128 11.1888 18.856 11.1888 18.856C12.6393 19.0437 12.6393 20.4012 12.6393 20.4012C12.8346 22.248 14.1826 21.9086 14.7458 21.6659C16.3327 20.9776 17.2277 18.2682 17.4419 16.4461C17.7813 13.5566 19.6944 11.1031 20.5495 9.49527C22.127 6.53177 20.8927 3.03549 19.8006 1.77084C18.1397 -0.161215 16.2531 -0.221888 14.8216 0.238847Z" fill="#E6E7E9"/>
<path d="M5.68066 7.92156C5.68066 7.3736 6.12433 6.92993 6.67229 6.92993C7.22024 6.92993 7.66391 7.3736 7.66391 7.92156" stroke="#141414" stroke-width="0.5" stroke-miterlimit="10" stroke-linecap="round" stroke-linejoin="round"/>
<path d="M13.4883 7.92156C13.4883 7.3736 13.932 6.92993 14.4799 6.92993C15.0279 6.92993 15.4734 7.3736 15.4734 7.92156" stroke="#141414" stroke-width="0.5" stroke-miterlimit="10" stroke-linecap="round" stroke-linejoin="round"/>
<path d="M8.2251 10.0432H12.9273C12.9273 10.0432 12.3528 11.8748 10.6103 12.0359C9.01005 12.1857 8.37678 10.3997 8.2251 10.0432Z" fill="#4C0B09"/>
<path d="M9.00439 10.0432V10.5039C9.00439 10.5039 10.5553 11.0709 12.0589 10.5039V10.0432H9.00439Z" fill="white"/>
<path d="M10.612 12.036C11.16 11.9848 11.5904 11.7705 11.926 11.4994C10.6879 10.796 9.98064 11.6776 9.80811 11.9374C10.0432 12.0246 10.3106 12.0644 10.612 12.036Z" fill="#EC1B26"/>
<path d="M5.55569 9.76076C5.55569 10.1874 5.21061 10.5305 4.7859 10.5305C4.36119 10.5305 4.01611 10.1855 4.01611 9.76076C4.01611 9.33604 4.36119 8.99097 4.7859 8.99097C5.21061 8.99097 5.55569 9.33604 5.55569 9.76076Z" fill="#FFB0B1"/>
<path d="M17.1407 9.76076C17.1407 10.1874 16.7956 10.5305 16.3709 10.5305C15.9462 10.5305 15.6011 10.1855 15.6011 9.76076C15.6011 9.33604 15.9462 8.99097 16.3709 8.99097C16.7956 8.99097 17.1407 9.33604 17.1407 9.76076Z" fill="#FFB0B1"/>
</svg>
