<svg width="12" height="13" viewBox="0 0 12 13" fill="none" xmlns="http://www.w3.org/2000/svg">
<path d="M11.3669 6.0014L7.58277 1.2514C7.51744 1.17008 7.43668 1.10247 7.34514 1.05245C7.25359 1.00244 7.15307 0.971013 7.04933 0.959978C6.9456 0.948943 6.84071 0.958517 6.7407 0.988151C6.64068 1.01778 6.5475 1.06689 6.46652 1.13265C6.3852 1.19798 6.31759 1.27874 6.26757 1.37029C6.21756 1.46183 6.18613 1.56236 6.1751 1.66609C6.16406 1.76982 6.17364 1.87471 6.20327 1.97473C6.23291 2.07475 6.28201 2.16793 6.34777 2.2489L9.72819 6.50015L6.18152 10.7514C6.11486 10.8314 6.06464 10.9238 6.03373 11.0232C6.00282 11.1226 5.99183 11.2272 6.00139 11.3309C6.01095 11.4346 6.04087 11.5354 6.08944 11.6275C6.13801 11.7196 6.20428 11.8012 6.28444 11.8677C6.42795 11.9828 6.60711 12.0444 6.79111 12.0418C6.90741 12.042 7.02233 12.0166 7.12769 11.9673C7.23305 11.9181 7.32626 11.8462 7.40069 11.7568L11.359 7.00682C11.4766 6.86608 11.5416 6.6889 11.5431 6.50553C11.5445 6.32216 11.4823 6.14397 11.3669 6.0014Z" fill="white"/>
<path d="M2.04078 1.2513C1.90851 1.08228 1.7145 0.972732 1.50145 0.94675C1.2884 0.920769 1.07376 0.980485 0.90474 1.11276C0.73572 1.24504 0.626169 1.43904 0.600187 1.65209C0.574206 1.86514 0.633922 2.07978 0.766198 2.2488L4.1862 6.50005L0.639532 10.7434C0.572872 10.8234 0.522649 10.9157 0.491738 11.0152C0.460828 11.1146 0.449838 11.2192 0.459398 11.3229C0.468958 11.4266 0.49888 11.5273 0.547451 11.6194C0.596021 11.7116 0.662286 11.7932 0.742449 11.8596C0.884879 11.9777 1.06414 12.0421 1.24912 12.0417C1.36542 12.0419 1.48034 12.0165 1.58569 11.9672C1.69105 11.918 1.78426 11.8461 1.8587 11.7567L5.81703 7.00672C5.93347 6.86506 5.99713 6.68738 5.99713 6.50401C5.99713 6.32064 5.93347 6.14296 5.81703 6.0013L2.04078 1.2513Z" fill="white"/>
</svg>
