<svg width="8" height="13" viewBox="0 0 8 13" fill="none" xmlns="http://www.w3.org/2000/svg">
<path d="M0.78569 0.835814C0.574248 1.04852 0.455566 1.33625 0.455566 1.63617C0.455566 1.93608 0.574248 2.22382 0.78569 2.43652L4.80449 6.51208L0.78569 10.5309C0.574248 10.7436 0.455566 11.0313 0.455566 11.3312C0.455566 11.6312 0.574248 11.9189 0.78569 12.1316C0.891226 12.238 1.01679 12.3224 1.15513 12.3801C1.29347 12.4377 1.44185 12.4674 1.59172 12.4674C1.74159 12.4674 1.88997 12.4377 2.02831 12.3801C2.16665 12.3224 2.29221 12.238 2.39775 12.1316L7.21122 7.31811C7.31763 7.21257 7.40209 7.08701 7.45972 6.94867C7.51736 6.81033 7.54703 6.66195 7.54703 6.51208C7.54703 6.36221 7.51736 6.21383 7.45972 6.07549C7.40209 5.93715 7.31763 5.81159 7.21122 5.70605L2.39775 0.835814C2.29221 0.729407 2.16665 0.644952 2.02831 0.587317C1.88997 0.529681 1.74159 0.500006 1.59172 0.500006C1.44185 0.500006 1.29347 0.529681 1.15513 0.587317C1.01679 0.644952 0.891226 0.729407 0.78569 0.835814Z" fill="#C61717"/>
</svg>
