<svg width="15" height="15" viewBox="0 0 15 15" fill="none" xmlns="http://www.w3.org/2000/svg">
<path d="M14.1595 7.07173C14.106 6.93364 14.0257 6.80747 13.9233 6.70048L8.29826 1.07548C8.19337 0.970589 8.06884 0.887383 7.93179 0.830615C7.79474 0.773847 7.64785 0.744629 7.49951 0.744629C7.19992 0.744629 6.9126 0.86364 6.70076 1.07548C6.59587 1.18038 6.51266 1.3049 6.45589 1.44195C6.39913 1.579 6.36991 1.72589 6.36991 1.87423C6.36991 2.17382 6.48892 2.46114 6.70076 2.67298L10.4133 6.37423H1.87451C1.57614 6.37423 1.29 6.49276 1.07902 6.70374C0.868038 6.91472 0.749512 7.20086 0.749512 7.49923C0.749512 7.7976 0.868038 8.08375 1.07902 8.29473C1.29 8.50571 1.57614 8.62423 1.87451 8.62423H10.4133L6.70076 12.3255C6.59532 12.4301 6.51162 12.5545 6.45451 12.6916C6.39739 12.8287 6.36799 12.9757 6.36799 13.1242C6.36799 13.2727 6.39739 13.4198 6.45451 13.5569C6.51162 13.694 6.59532 13.8184 6.70076 13.923C6.80535 14.0284 6.92977 14.1121 7.06686 14.1692C7.20395 14.2263 7.351 14.2558 7.49951 14.2558C7.64803 14.2558 7.79507 14.2263 7.93216 14.1692C8.06925 14.1121 8.19368 14.0284 8.29826 13.923L13.9233 8.29798C14.0257 8.19099 14.106 8.06483 14.1595 7.92673C14.272 7.65284 14.272 7.34563 14.1595 7.07173Z" fill="black"/>
</svg>
