<svg width="34" height="39" viewBox="0 0 34 39" fill="none" xmlns="http://www.w3.org/2000/svg">
<g clip-path="url(#clip0_185_2979)">
<path d="M23.6528 3.39307C21.3855 3.39307 19.3421 5.44887 16.2817 5.44887C13.2214 5.44887 11.178 3.39307 8.91071 3.39307C4.429 3.39307 -0.425917 9.7875 0.230321 14.9192C0.964313 20.6419 7.33387 37.8907 11.7285 37.8907C13.8994 37.8907 13.8869 33.58 14.9972 28.9553C15.5042 26.8404 16.5181 26.5885 17.0282 29.1232C17.9768 33.8724 18.804 37.8876 20.835 37.8876C25.2327 37.8876 31.7267 19.516 32.3331 14.9161C33.0111 9.79061 28.0194 3.39307 23.6528 3.39307Z" fill="#FFFCE5" stroke="#002036" stroke-width="0.338227" stroke-miterlimit="10"/>
<path d="M10.2792 29.913C12.3723 30.081 11.9556 23.7674 16.2818 23.5124C18.7668 23.3662 19.8647 24.6009 20.2317 26.5167C20.6204 28.5445 20.4742 30.4386 22.6576 30.308C24.8378 30.1774 30.7906 20.7817 30.6288 14.8195C30.5542 12.095 29.4003 9.03156 28.119 6.63364C27.2761 5.05992 25.5935 4.15798 23.8207 4.22329C21.625 4.30415 19.6656 5.76592 17.8026 6.77671C15.2959 8.13895 13.4516 5.86233 11.1936 5.24963C9.03516 4.66493 7.04157 5.2403 5.61401 7.02552C3.88789 9.18396 3.8599 12.3718 4.48504 14.9439C4.94223 16.8224 8.18921 29.742 10.2792 29.913Z" fill="white"/>
<path d="M16.1203 8.1234C17.6038 8.28202 18.8355 7.91813 20.2506 7.51692C21.6221 7.12505 23.1337 6.88868 24.4586 7.57913C27.1675 8.99424 28.4489 12.4931 28.9621 15.3234C29.27 17.0246 29.4877 18.7601 29.2295 20.48C29.1518 21.0056 29.0305 21.5156 28.8843 22.0164C29.9542 19.5687 30.6913 16.9717 30.6322 14.8195C30.5576 12.095 29.4037 9.03156 28.1223 6.63364C27.2795 5.05992 25.5969 4.15798 23.8241 4.22329C21.6284 4.30415 19.669 5.76592 17.806 6.77671C15.2992 8.13895 13.4549 5.86233 11.197 5.24963C10.9357 5.1781 10.6745 5.12523 10.4194 5.08791C11.8719 6.68963 14.0272 7.90258 16.1203 8.1234Z" fill="white"/>
<path d="M12.0335 6.16092C13.1624 7.0753 14.3909 7.70354 15.8061 7.45162C17.498 7.15305 19.6066 5.88101 20.2349 4.43479C19.0655 4.94485 17.7997 5.4487 16.285 5.4487C13.3864 5.4487 11.3959 3.60128 9.26855 3.40845C10.1923 4.31972 11.0133 5.33673 12.0335 6.16092Z" fill="#EBDCDB"/>
<path d="M12.8386 7.03195C13.7499 7.53268 14.5834 8.25734 14.6673 8.74252C17.0124 8.54347 18.9438 6.76759 20.5579 5.80344C19.7431 4.6838 17.3327 6.12068 15.5195 6.12068C12.0517 6.12068 12.2414 4.9917 9.93994 4.9917C10.7392 6.87955 11.9273 6.52811 12.8386 7.03195Z" fill="#B17F4A"/>
<path d="M18.4495 6.52792C17.6098 6.85137 16.7265 7.69422 15.7655 7.58536C15.2119 7.52316 14.7049 7.40186 14.2229 7.10329C13.8901 6.89802 13.5417 6.59945 13.1623 6.47815C12.702 6.33198 12.2324 6.24178 11.7659 6.12671C11.402 6.03651 11.0039 5.80948 10.64 5.76593C10.5311 5.75349 10.4254 5.72861 10.3228 5.69751C11.0878 6.78917 12.0644 6.60256 12.8389 7.02865C13.7501 7.52938 14.5836 8.25404 14.6676 8.73922C16.6923 8.56816 18.4122 7.21837 19.8833 6.23245C19.4106 6.24489 18.9378 6.34131 18.4495 6.52792Z" fill="#D6C1C0"/>
<path d="M25.7495 29.1794C24.9222 30.411 22.6892 31.9692 20.9662 31.5027C19.2742 31.0455 19.1312 28.6693 18.8077 27.2822C18.6553 26.6291 18.5558 25.4783 17.8498 25.1673C17.1438 24.8563 16.2512 24.9092 15.5856 25.2948C14.2483 26.0692 13.1722 27.6523 12.9358 29.1825C12.7181 30.6132 12.4568 32.6441 10.6094 32.6814C9.63904 32.7032 9.14142 31.6364 8.57227 30.977C7.65167 29.9134 3.53696 22.6419 0.358398 15.7529C1.5247 22.1474 7.52415 37.8909 11.7259 37.8909C13.8968 37.8909 13.8844 33.5802 14.9947 28.9555C15.5016 26.8406 16.5156 26.5886 17.0256 29.1234C17.9742 33.8726 18.8015 37.8878 20.8324 37.8878C24.0079 37.8878 28.2812 28.2992 30.6356 21.2392C29.0743 24.4458 27.5627 26.486 25.7495 29.1794Z" fill="#EBDCDB"/>
<path d="M11.9556 16.0791C9.75678 14.213 8.75843 16.6296 8.1675 16.3061C8.13329 16.2874 8.4132 16.1039 8.40076 16.02C8.39454 15.9826 8.08664 16.0666 8.08353 16.0169C8.08042 15.9391 8.29813 15.7245 8.30746 15.6281C8.31368 15.5286 8.07109 15.5379 8.12707 15.4446C8.64957 14.5738 10.9262 13.7651 11.9556 16.0791Z" fill="#002036"/>
<path d="M8.18311 13.0436C9.59822 12.0017 11.5389 14.9377 12.2854 14.353" stroke="#002036" stroke-width="0.507325" stroke-miterlimit="10" stroke-linecap="round" stroke-linejoin="round"/>
<path d="M20.4087 16.0791C22.6076 14.213 23.6059 16.6296 24.1968 16.3061C24.231 16.2874 23.9511 16.1039 23.9636 16.02C23.9698 15.9826 24.2777 16.0666 24.2808 16.0169C24.2839 15.9391 24.0662 15.7245 24.0569 15.6281C24.0507 15.5286 24.2932 15.5379 24.2373 15.4446C23.7117 14.5738 21.435 13.7651 20.4087 16.0791Z" fill="#002036"/>
<path d="M24.1784 13.0436C22.7633 12.0017 20.8226 14.9377 20.0762 14.353" stroke="#002036" stroke-width="0.507325" stroke-miterlimit="10" stroke-linecap="round" stroke-linejoin="round"/>
<path d="M6.37334 5.42411C6.10587 5.40545 5.78242 5.64804 5.58337 5.80666C5.30345 6.02748 5.12618 6.28251 4.96445 6.59663C4.95512 6.61529 4.98 6.63084 4.99244 6.61218C5.16039 6.33849 5.41231 6.10834 5.66734 5.91551C5.88816 5.74757 6.21161 5.68225 6.40133 5.48942C6.4231 5.46454 6.40444 5.42722 6.37334 5.42411Z" fill="#002036"/>
<path d="M6.67148 5.66966C6.33869 5.72875 5.9717 5.90603 5.80375 6.21393C5.79442 6.22948 5.81308 6.25436 5.83174 6.24192C6.10543 6.04599 6.39468 5.92469 6.72435 5.8656C6.85498 5.84072 6.79899 5.64478 6.67148 5.66966Z" fill="#002036"/>
<path d="M6.34543 28.1496C6.2148 27.9817 6.04374 27.8666 5.90068 27.708C5.72651 27.5151 5.58966 27.2757 5.5399 27.0175C5.53679 27.002 5.51813 27.0082 5.51502 27.0206C5.46215 27.4903 5.81359 28.1496 6.32988 28.1807C6.34854 28.1869 6.35476 28.1621 6.34543 28.1496Z" fill="#002036"/>
<path d="M6.97914 27.8945C6.73033 27.6737 6.38199 27.5835 6.17672 27.3067C6.16428 27.2881 6.13629 27.2974 6.1394 27.3223C6.22648 27.6831 6.5997 27.9288 6.96048 27.9319C6.98225 27.9319 6.99469 27.9101 6.97914 27.8945Z" fill="#002036"/>
<path d="M27.3412 25.646C27.1919 25.9446 27.139 26.2805 26.9866 26.5822C26.8373 26.8745 26.6227 27.1233 26.4486 27.4001C26.4455 27.4064 26.4517 27.4157 26.461 27.4095C26.9462 27.0829 27.4718 26.2712 27.4376 25.6709C27.4314 25.6243 27.3629 25.5994 27.3412 25.646Z" fill="#002036"/>
<path d="M27.0771 25.1546C27.0678 25.1266 27.0335 25.1203 27.0149 25.1452C26.9091 25.3007 26.8998 25.4811 26.8625 25.6615C26.8252 25.8419 26.7723 26.0347 26.7039 26.2058C26.6821 26.2587 26.763 26.2835 26.791 26.2431C26.99 25.9601 27.2077 25.5029 27.0771 25.1546Z" fill="#002036"/>
<path d="M24.2723 4.29478C23.9396 4.05219 23.4233 4.10506 23.0656 4.26367C23.0501 4.26989 23.0594 4.29789 23.0749 4.29789C23.2553 4.29789 23.4326 4.27923 23.613 4.27611C23.8338 4.273 24.0422 4.33521 24.2599 4.35076C24.2879 4.35387 24.291 4.31033 24.2723 4.29478Z" fill="#002036"/>
<path d="M24.7007 4.80797C24.4301 4.57471 24.0662 4.55605 23.7396 4.66491C23.7023 4.67735 23.7085 4.73955 23.749 4.73644C23.9915 4.70845 24.2217 4.75821 24.4363 4.87018C24.5047 4.90439 24.6913 5.05368 24.7255 4.90128C24.7318 4.87018 24.7255 4.83286 24.7007 4.80797Z" fill="#002036"/>
<path d="M24.7285 18.8348C24.7285 19.2858 24.0194 19.6528 23.1423 19.6528C22.2653 19.6528 21.5562 19.2858 21.5562 18.8348C21.5562 18.3838 22.2653 18.0168 23.1423 18.0168C24.0194 18.0168 24.7285 18.3838 24.7285 18.8348Z" fill="#F8C29E"/>
<path d="M12.083 18.8348C12.083 19.2858 11.3739 19.6528 10.4968 19.6528C9.61976 19.6528 8.91064 19.2858 8.91064 18.8348C8.91064 18.3838 9.61976 18.0168 10.4968 18.0168C11.3739 18.0168 12.083 18.3838 12.083 18.8348Z" fill="#F8C29E"/>
<path d="M12.1793 23.4814C11.0441 22.6043 12.7391 19.5066 14.0609 19.1334C15.3827 18.7602 15.5724 19.6092 16.8009 19.6092C18.0294 19.6092 18.1041 18.6575 19.4819 19.1583C20.8596 19.6559 21.6683 22.1316 21.0307 23.7395C20.7197 24.5233 18.6421 22.8531 16.661 22.822C14.5772 22.7878 13.2803 24.3304 12.1793 23.4814Z" fill="#EA4C6D" stroke="#002036" stroke-width="0.338227" stroke-miterlimit="10" stroke-linecap="round"/>
<path d="M19.7935 20.6944C20.3004 20.6944 20.0827 19.3726 19.4825 19.1549C18.1047 18.6572 18.0269 19.6058 16.8015 19.6058C15.573 19.6058 15.3833 18.7568 14.0615 19.13C13.5017 19.2886 13.1782 20.6944 13.6012 20.6944C13.6012 20.6944 17.9181 20.6944 18.0953 20.6944C18.2757 20.6944 18.4841 20.3927 18.4841 20.3927C18.4841 20.3927 18.6987 20.6944 18.9009 20.6944C19.0999 20.6944 19.7935 20.6944 19.7935 20.6944Z" fill="white" stroke="#002036" stroke-width="0.338227" stroke-miterlimit="10" stroke-linecap="round"/>
<path d="M21.1708 17.8831C21.0993 17.8831 21.0993 17.995 21.1708 17.995C21.2424 17.995 21.2424 17.8831 21.1708 17.8831Z" fill="#002036"/>
<path d="M21.7274 17.7869C21.4568 17.7869 21.4568 18.2036 21.7274 18.2036C21.9948 18.2067 21.9948 17.7869 21.7274 17.7869Z" fill="#002036"/>
<path d="M22.8722 17.7058C22.7353 17.7058 22.7353 17.9173 22.8722 17.9173C23.009 17.9173 23.009 17.7058 22.8722 17.7058Z" fill="#002036"/>
<path d="M22.4395 18.1257C22.2311 18.1257 22.2311 18.4492 22.4395 18.4492C22.6479 18.4523 22.6479 18.1257 22.4395 18.1257Z" fill="#002036"/>
<path d="M23.3634 18.2314C23.1302 18.2314 23.1302 18.5922 23.3634 18.5922C23.5967 18.5922 23.5967 18.2314 23.3634 18.2314Z" fill="#002036"/>
<path d="M23.9448 17.5286C23.7613 17.5286 23.7613 17.8147 23.9448 17.8147C24.1283 17.8147 24.1283 17.5286 23.9448 17.5286Z" fill="#002036"/>
<path d="M24.7904 17.7493C24.6473 17.7493 24.6473 17.9732 24.7904 17.9732C24.9366 17.9732 24.9366 17.7493 24.7904 17.7493Z" fill="#002036"/>
<path d="M24.7255 18.4648C24.6664 18.4648 24.6664 18.555 24.7255 18.555C24.7846 18.555 24.7846 18.4648 24.7255 18.4648Z" fill="#002036"/>
<path d="M21.6059 18.8252C21.4784 18.8252 21.4784 19.0211 21.6059 19.0211C21.7303 19.0211 21.7303 18.8252 21.6059 18.8252Z" fill="#002036"/>
<path d="M21.0311 18.3186C20.9161 18.3186 20.9161 18.4959 21.0311 18.4959C21.1462 18.4959 21.1462 18.3186 21.0311 18.3186Z" fill="#002036"/>
<path d="M22.471 18.9963C22.4368 18.9963 22.4368 19.0492 22.471 19.0492C22.5052 19.0461 22.5052 18.9963 22.471 18.9963Z" fill="#002036"/>
<path d="M23.1425 18.8289C23.0834 18.8289 23.0834 18.9222 23.1425 18.9222C23.2016 18.9222 23.2016 18.8289 23.1425 18.8289Z" fill="#002036"/>
<path d="M8.90424 17.8831C8.8327 17.8831 8.8327 17.995 8.90424 17.995C8.97577 17.995 8.97577 17.8831 8.90424 17.8831Z" fill="#002036"/>
<path d="M9.46124 17.7869C9.19066 17.7869 9.19066 18.2036 9.46124 18.2036C9.73182 18.2067 9.73182 17.7869 9.46124 17.7869Z" fill="#002036"/>
<path d="M10.6056 17.7058C10.4687 17.7058 10.4687 17.9173 10.6056 17.9173C10.7424 17.9173 10.7424 17.7058 10.6056 17.7058Z" fill="#002036"/>
<path d="M10.1729 18.1257C9.96451 18.1257 9.96451 18.4492 10.1729 18.4492C10.3844 18.4523 10.3844 18.1257 10.1729 18.1257Z" fill="#002036"/>
<path d="M11.0968 18.2314C10.8636 18.2314 10.8636 18.5922 11.0968 18.5922C11.3301 18.5922 11.3301 18.2314 11.0968 18.2314Z" fill="#002036"/>
<path d="M11.6782 17.5286C11.4947 17.5286 11.4947 17.8147 11.6782 17.8147C11.8616 17.8147 11.8616 17.5286 11.6782 17.5286Z" fill="#002036"/>
<path d="M12.5277 17.7493C12.3846 17.7493 12.3846 17.9732 12.5277 17.9732C12.6708 17.9732 12.6708 17.7493 12.5277 17.7493Z" fill="#002036"/>
<path d="M12.4623 18.4648C12.4032 18.4648 12.4032 18.555 12.4623 18.555C12.5214 18.555 12.5214 18.4648 12.4623 18.4648Z" fill="#002036"/>
<path d="M9.34027 18.8252C9.21275 18.8252 9.21275 19.0211 9.34027 19.0211C9.46778 19.0211 9.46778 18.8252 9.34027 18.8252Z" fill="#002036"/>
<path d="M8.76795 18.3186C8.65287 18.3186 8.65287 18.4959 8.76795 18.4959C8.88302 18.4959 8.88302 18.3186 8.76795 18.3186Z" fill="#002036"/>
<path d="M10.2044 18.9963C10.1702 18.9963 10.1702 19.0492 10.2044 19.0492C10.2386 19.0461 10.2386 18.9963 10.2044 18.9963Z" fill="#002036"/>
<path d="M10.8764 18.8289C10.8173 18.8289 10.8173 18.9222 10.8764 18.9222C10.9386 18.9222 10.9386 18.8289 10.8764 18.8289Z" fill="#002036"/>
<path d="M14.3601 8.67708C14.3601 8.67708 14.3072 8.59933 14.217 8.46248C14.1704 8.39717 14.1175 8.30076 14.046 8.23233C13.9745 8.15458 13.906 8.06127 13.8096 7.97108C13.707 7.884 13.6106 7.77825 13.4831 7.68806C13.3586 7.59786 13.228 7.49834 13.0787 7.41437C12.7895 7.23398 12.4505 7.07847 12.1115 6.92608C11.7694 6.77368 11.421 6.62439 11.1131 6.44089C10.9545 6.35692 10.8177 6.24807 10.6839 6.15476C10.5657 6.03969 10.4413 5.94638 10.3605 5.82509C10.3169 5.76911 10.2734 5.71623 10.233 5.66336C10.2019 5.60738 10.1739 5.5514 10.1459 5.50163C10.1179 5.45187 10.093 5.40522 10.0681 5.35857C10.0495 5.31192 10.037 5.26837 10.0215 5.23105C9.9686 5.07555 9.9375 4.98535 9.9375 4.98535C9.9375 4.98535 9.97482 5.07244 10.037 5.22172C10.0526 5.25904 10.0681 5.30259 10.0899 5.34613C10.1179 5.38656 10.1459 5.43321 10.177 5.47986C10.2081 5.52652 10.2392 5.57628 10.2734 5.62915C10.3169 5.6758 10.3605 5.72556 10.4071 5.77533C10.4942 5.88418 10.6217 5.96504 10.743 6.06768C10.8799 6.14854 11.0167 6.24185 11.1753 6.31338C11.4863 6.46578 11.8378 6.58707 12.1923 6.71459C12.5469 6.8421 12.9046 6.97273 13.2249 7.14067C13.3898 7.21843 13.539 7.31173 13.679 7.40193C13.8221 7.48901 13.9434 7.59786 14.0615 7.68495C14.1766 7.78136 14.273 7.88711 14.3601 7.97108C14.4565 8.05816 14.5032 8.13903 14.5592 8.20123C14.6618 8.32875 14.7178 8.40339 14.7178 8.40339C14.7955 8.4998 14.78 8.64287 14.6805 8.72062C14.584 8.79838 14.441 8.78283 14.3632 8.6833C14.3663 8.68641 14.3632 8.68019 14.3601 8.67708Z" fill="#002036"/>
<path d="M13.5411 8.32591C13.5411 8.32591 13.5753 8.33835 13.6407 8.35701C13.706 8.37567 13.8024 8.41299 13.9206 8.44098C14.0356 8.46275 14.1694 8.50319 14.3373 8.51563C14.5022 8.54051 14.6919 8.54673 14.9003 8.54051C15.1055 8.53118 15.3326 8.5063 15.5658 8.45342C15.8022 8.40677 16.0448 8.32591 16.2936 8.2326C16.7881 8.03978 17.292 7.75986 17.7802 7.44885C18.7537 6.83304 19.6774 6.08661 20.5141 5.77871C20.7224 5.70095 20.9215 5.66363 21.1019 5.64497C21.2823 5.63564 21.4378 5.6543 21.5622 5.68851C21.6866 5.72584 21.7799 5.76316 21.8359 5.79737C21.895 5.82847 21.9292 5.84402 21.9292 5.84402C21.9292 5.84402 21.895 5.82847 21.8328 5.80048C21.7737 5.76627 21.6772 5.73517 21.556 5.70406C21.4315 5.67918 21.2792 5.66674 21.105 5.6854C20.9308 5.71028 20.738 5.75694 20.5389 5.84402C19.7365 6.17992 18.8595 6.96056 17.9047 7.63546C17.4257 7.97446 16.9219 8.28548 16.4118 8.51563C16.1536 8.62448 15.9017 8.72712 15.6467 8.78932C15.3979 8.86085 15.1522 8.89817 14.922 8.91994C14.695 8.93861 14.4804 8.94172 14.2938 8.92305C14.1072 8.91683 13.9392 8.8764 13.8055 8.85774C13.6749 8.82975 13.5847 8.80176 13.5163 8.78621C13.4509 8.76755 13.4136 8.76133 13.4136 8.76133C13.2923 8.73023 13.2208 8.60582 13.2519 8.48764C13.283 8.36634 13.4074 8.29481 13.5256 8.32591C13.5349 8.32591 13.538 8.32591 13.5411 8.32591Z" fill="#002036"/>
<path d="M14.2627 20.6946L14.4306 19.7646L14.5986 20.6946H14.2627Z" fill="#002036"/>
<path d="M15.9116 20.6418L16.0796 19.9482L16.2506 20.6418H15.9116Z" fill="#002036"/>
<path d="M17.9859 23.7208C17.2551 23.0677 16.2411 23.2885 15.4978 23.7923C15.4605 23.8172 15.4854 23.8701 15.5258 23.8608C15.8586 23.7892 16.1821 23.727 16.5242 23.7519C16.972 23.783 17.2737 23.9478 17.6656 24.1407C17.9237 24.2651 18.2254 23.9323 17.9859 23.7208Z" fill="#002036"/>
<path d="M18.5774 8.08308C17.9989 8.40653 17.5697 8.86372 16.9383 9.12186C16.2728 9.39245 15.4952 9.49197 14.7861 9.54173C14.7581 9.54484 14.7581 9.58527 14.7861 9.58527C16.0395 9.64437 18.0362 9.50441 18.6893 8.19504C18.7236 8.12351 18.6489 8.04265 18.5774 8.08308Z" fill="#002036"/>
<path d="M18.7698 8.7703C18.6361 8.82628 18.549 8.93514 18.4402 9.02844C18.3251 9.12797 18.2038 9.22127 18.0887 9.31768C18.0732 9.33012 18.0794 9.36123 18.1012 9.36434C18.2504 9.38611 18.378 9.32701 18.5055 9.25237C18.6485 9.1684 18.8196 9.01911 18.8445 8.84805C18.8507 8.80762 18.8196 8.75164 18.7698 8.7703Z" fill="#002036"/>
<path d="M25.659 17.9826C25.8021 18.5673 25.3947 19.4288 24.7384 19.5252C24.1568 19.6123 23.8147 19.096 24.0169 18.53C24.4896 17.1988 23.8521 16.0947 23.8521 16.0947C23.8521 16.0947 25.3387 16.6608 25.659 17.9826Z" fill="#B7E2FA"/>
<path d="M24.5392 18.4211C24.6978 16.8536 23.855 16.0947 23.855 16.0947C23.855 16.0947 24.4926 17.2019 24.0198 18.53C23.8177 19.096 24.1598 19.6092 24.7414 19.5252C24.8627 19.5065 24.9746 19.463 25.0773 19.4008C24.788 19.1644 24.5019 18.785 24.5392 18.4211Z" fill="#A1DAF8"/>
<path d="M25.2172 17.675C25.2701 18.0296 24.9217 18.7169 24.9964 18.8413C25.0772 18.972 25.2421 18.9564 25.3447 18.8662C25.5064 18.7201 25.6433 18.0172 25.2172 17.675Z" fill="white"/>
<path d="M6.88991 17.9823C6.74685 18.567 7.15428 19.4285 7.81051 19.525C8.39211 19.612 8.73422 19.0958 8.53207 18.5297C8.05932 17.1986 8.6969 16.0945 8.6969 16.0945C8.6969 16.0945 7.21337 16.6605 6.88991 17.9823Z" fill="#B7E2FA"/>
<path d="M8.00973 18.4209C7.85112 16.8534 8.69396 16.0945 8.69396 16.0945C8.69396 16.0945 8.05639 17.2017 8.52913 18.5297C8.73128 19.0958 8.38917 19.6089 7.80757 19.525C7.68628 19.5063 7.57431 19.4628 7.47168 19.4006C7.76092 19.1642 8.04705 18.7847 8.00973 18.4209Z" fill="#A1DAF8"/>
<path d="M7.3339 17.6748C7.28103 18.0294 7.62936 18.7167 7.55472 18.8411C7.47385 18.9717 7.30902 18.9562 7.20638 18.866C7.04155 18.7198 6.9047 18.0169 7.3339 17.6748Z" fill="white"/>
<path d="M32.1872 9.54182C32.1841 9.53871 32.1779 9.54182 32.181 9.54493C32.9399 10.9383 33.4375 12.3596 33.5992 13.9395C33.6024 13.9675 33.6397 13.9675 33.6428 13.9395C33.8014 12.372 32.999 10.8263 32.1872 9.54182Z" fill="#002036"/>
<path d="M33.8448 11.5169C33.7639 11.1716 33.6551 10.8979 33.372 10.6802C33.3658 10.674 33.3534 10.6802 33.3596 10.6896C33.5151 10.9975 33.596 11.3458 33.6426 11.6848C33.6831 11.9647 33.6706 12.3286 33.8666 12.5525C33.9008 12.5899 33.9723 12.5712 33.9816 12.5214C34.0469 12.2135 33.9163 11.8185 33.8448 11.5169Z" fill="#002036"/>
<path d="M2.50109 6.16738C2.05945 6.40686 1.75155 6.8485 1.45298 7.24038C1.13885 7.65092 0.771858 8.08323 0.57592 8.56219C0.566589 8.58707 0.597691 8.60884 0.619461 8.5964C1.01445 8.33515 1.29125 7.90595 1.58049 7.53895C1.91639 7.11597 2.33004 6.73965 2.62861 6.29179C2.67837 6.21092 2.57574 6.12384 2.50109 6.16738Z" fill="#002036"/>
<path d="M1.97198 6.03326C1.4246 6.39092 0.979848 6.9041 0.587971 7.42038C0.578641 7.43282 0.597301 7.45148 0.609742 7.44215C1.15402 7.09693 1.59877 6.58375 2.03107 6.11101C2.0684 6.07058 2.02174 6.00216 1.97198 6.03326Z" fill="#002036"/>
<path d="M14.3789 4.12101C14.1239 3.93129 13.8408 3.82555 13.5392 3.77267C13.5609 3.62961 13.5547 3.47099 13.3961 3.43056C13.3059 3.40568 13.2095 3.43367 13.1286 3.47721C12.715 3.69181 12.6497 3.17242 12.5781 2.85518C12.5533 2.75255 12.4444 2.7059 12.348 2.72456C11.813 2.83341 11.3527 3.29371 11.2128 2.53173C11.2035 2.48197 11.1413 2.42909 11.0884 2.43531C10.7867 2.47264 10.5534 2.52551 10.314 2.71834C10.2984 2.73078 10.3171 2.75566 10.3326 2.75255C10.9951 2.62814 10.9111 2.73389 11.0977 3.28438C11.1288 3.37769 11.2066 3.4119 11.303 3.39946C11.6358 3.3528 11.9406 3.21907 12.264 3.12888C12.3324 3.43367 12.4133 3.77578 12.6932 3.94062C12.743 3.96861 12.8363 3.98105 12.8891 3.96239C13.0042 3.91885 13.2033 3.74468 13.1628 3.8722C13.1255 3.99038 13.225 4.07747 13.3308 4.09302C13.676 4.13656 13.9279 4.35116 14.2607 4.41025C14.4411 4.44446 14.5251 4.22986 14.3789 4.12101Z" fill="#002036"/>
<path d="M14.3354 2.92634C14.3261 2.88591 14.2763 2.8548 14.2359 2.87036C14.0306 2.95433 13.8191 2.9761 13.6014 2.98232C13.5143 2.77083 13.2904 2.71174 13.0696 2.76772C13.0603 2.77083 13.0634 2.78949 13.0727 2.78949C13.306 2.78949 13.4024 2.87347 13.4521 3.10051C13.4615 3.13783 13.5019 3.16893 13.5392 3.16582C13.76 3.15649 13.9653 3.10362 14.1768 3.05074C14.183 3.18448 14.2079 3.32444 14.2888 3.42396C14.3168 3.46128 14.3821 3.44884 14.4038 3.40841C14.494 3.24668 14.3727 3.09118 14.3354 2.92634Z" fill="#002036"/>
<path d="M3.89436 28.7313C3.72641 28.6473 3.56779 28.6038 3.38429 28.5603C2.94265 28.4576 2.88356 28.1311 2.82758 27.7641C2.81514 27.6956 2.73739 27.649 2.67207 27.649C2.63786 27.649 2.60054 27.649 2.56322 27.649C2.54456 27.4344 2.49168 27.2447 2.41393 27.027C2.31752 26.7471 2.61298 26.4796 2.53212 26.2028C2.36417 25.6274 1.66439 25.8576 1.42491 25.304C1.41558 25.2853 1.38137 25.2946 1.38448 25.3164C1.43113 25.6709 1.58353 25.8451 1.93808 25.9446C2.45125 26.0877 2.16823 26.5636 2.10914 26.8839C2.05627 27.1731 2.26464 27.5184 2.26464 27.8107C2.26464 27.8947 2.33618 27.9662 2.42015 27.9662C2.45125 27.9662 2.73117 28.6007 2.81514 28.6847C3.03907 28.9086 3.49004 28.9086 3.77617 29.0175C3.9379 29.0734 4.04986 28.8091 3.89436 28.7313Z" fill="#002036"/>
<path d="M2.68187 29.008C2.60722 28.6659 2.19358 28.6752 2.06917 28.3797C2.05673 28.3486 2.00386 28.3642 2.00697 28.3953C2.01941 28.5353 2.07539 28.6503 2.18736 28.7343C2.24334 28.7747 2.30243 28.8089 2.3553 28.8525C2.42062 28.9054 2.44861 28.9862 2.47971 29.0609C2.49837 29.1106 2.52947 29.1324 2.57923 29.1386C2.601 29.1417 2.61655 29.1355 2.6321 29.1231C2.67565 29.1013 2.6912 29.0578 2.68187 29.008Z" fill="#002036"/>
<path d="M30.1499 25.587C30.0939 25.5497 30.0224 25.6119 30.0379 25.671C30.1779 26.1468 29.9197 26.4143 29.6927 26.744C29.6118 26.8621 29.503 27.0239 29.6025 27.1732C29.674 27.2789 29.3412 27.8636 29.3039 28.0222C29.1951 28.4732 28.797 28.7749 28.5264 29.1388C28.4859 29.1916 28.5171 29.2756 28.5699 29.3067C28.8778 29.4902 29.1577 30.1651 28.8156 30.389C28.4175 30.6503 28.0163 30.8089 27.5653 30.952C27.5436 30.9582 27.5405 30.9862 27.5591 30.9986C28.0661 31.2972 28.8156 30.6378 29.2417 30.4046C29.307 30.3704 29.3132 30.2957 29.2853 30.2366C29.1608 29.9505 29.1204 29.6488 28.9898 29.3658C28.8561 29.0828 28.769 29.1978 29.0644 28.8899C29.4874 28.4514 29.5154 28.044 29.8668 27.5744C30.0006 27.3971 30.0255 27.3909 29.9664 27.1949C29.8855 26.9181 30.2121 26.7719 30.3271 26.576C30.5511 26.1966 30.4827 25.8202 30.1499 25.587Z" fill="#002036"/>
<path d="M30.2991 27.4466C30.0379 27.6768 29.7953 28.2242 30.1529 28.389C29.901 28.6036 29.6802 28.9115 29.4594 29.1448C29.3941 29.2132 29.4749 29.3158 29.5589 29.2723C29.8823 29.0981 30.2338 28.7311 30.3893 28.3952C30.408 28.3548 30.3955 28.2895 30.3426 28.2801C29.8419 28.2086 30.3364 27.7421 30.4422 27.5555C30.4982 27.4622 30.3769 27.3782 30.2991 27.4466Z" fill="#002036"/>
<path d="M27.6306 0.204944C27.6213 0.0463268 27.4036 -0.0687482 27.276 0.0432167C26.937 0.3449 26.8282 0.767878 26.7131 1.19708C26.5856 1.66671 26.455 2.26074 26.598 2.73659C26.6416 2.87966 26.8593 2.91698 26.9464 2.79569C27.1827 2.47223 27.2356 2.05236 27.3289 1.66982C27.444 1.19708 27.6586 0.693235 27.6306 0.204944Z" fill="#002036"/>
<path d="M29.562 1.62661C29.2355 1.74479 28.9773 1.97183 28.7067 2.18332C28.4175 2.41036 28.1251 2.65606 27.867 2.92043C27.7924 2.99818 27.8701 3.14747 27.9758 3.12569C28.3335 3.06038 28.6259 2.86133 28.912 2.64673C29.2044 2.42591 29.506 2.15844 29.73 1.8692C29.8295 1.7479 29.7082 1.57063 29.562 1.62661Z" fill="#002036"/>
<path d="M31.2131 2.90782C30.3764 3.026 29.6611 3.47075 28.7934 3.49874C28.5819 3.50497 28.5446 3.76933 28.6721 3.89373C29.0142 4.22963 29.5554 4.13321 29.9783 4.02747C30.5008 3.89684 31.0389 3.68224 31.4183 3.29037C31.5614 3.14419 31.409 2.87983 31.2131 2.90782Z" fill="#002036"/>
</g>
<defs>
<clipPath id="clip0_185_2979">
<rect width="34" height="38.0587" fill="white"/>
</clipPath>
</defs>
</svg>
