<svg width="19" height="20" viewBox="0 0 19 20" fill="none" xmlns="http://www.w3.org/2000/svg">
<path d="M18.5729 17.5938L15.0313 14.0625C16.1739 12.6067 16.794 10.809 16.7917 8.95834C16.7917 7.31016 16.3029 5.69899 15.3872 4.32858C14.4716 2.95818 13.1701 1.89007 11.6474 1.25934C10.1246 0.628611 8.44909 0.463583 6.83258 0.785126C5.21608 1.10667 3.73122 1.90034 2.56578 3.06578C1.40034 4.23122 0.60667 5.71608 0.285126 7.33258C-0.0364171 8.94909 0.128611 10.6246 0.759341 12.1474C1.39007 13.6701 2.45818 14.9716 3.82858 15.8872C5.19899 16.8029 6.81016 17.2917 8.45834 17.2917C10.309 17.294 12.1067 16.6739 13.5625 15.5313L17.0938 19.0729C17.1906 19.1706 17.3058 19.248 17.4327 19.3009C17.5597 19.3538 17.6958 19.381 17.8333 19.381C17.9708 19.381 18.107 19.3538 18.2339 19.3009C18.3609 19.248 18.4761 19.1706 18.5729 19.0729C18.6706 18.9761 18.748 18.8609 18.8009 18.7339C18.8538 18.607 18.881 18.4708 18.881 18.3333C18.881 18.1958 18.8538 18.0597 18.8009 17.9327C18.748 17.8058 18.6706 17.6906 18.5729 17.5938ZM2.20834 8.95834C2.20834 7.7222 2.57489 6.51383 3.26165 5.48602C3.94841 4.45822 4.92453 3.65714 6.06657 3.18409C7.2086 2.71104 8.46527 2.58727 9.67765 2.82843C10.89 3.06959 12.0037 3.66484 12.8778 4.53892C13.7518 5.413 14.3471 6.52664 14.5882 7.73902C14.8294 8.9514 14.7056 10.2081 14.2326 11.3501C13.7595 12.4921 12.9585 13.4683 11.9307 14.155C10.9028 14.8418 9.69447 15.2083 8.45834 15.2083C6.80073 15.2083 5.21102 14.5499 4.03892 13.3778C2.86682 12.2057 2.20834 10.6159 2.20834 8.95834Z" fill="#404959"/>
</svg>
