<svg width="218" height="202" viewBox="0 0 218 202" fill="none" xmlns="http://www.w3.org/2000/svg">
<g clip-path="url(#clip0_107_682)">
<path d="M160.959 177.28C160.959 177.28 187.734 175.607 206.141 142.697C224.549 109.786 221.202 59.5843 198.332 31.6942C175.462 3.80417 139.763 -5.67846 105.737 3.24637C89.1592 7.59722 78.1036 18.876 68.5485 32.4696C60.2261 44.3117 50.8662 55.7299 38.271 63.2268C25.7986 70.6455 12.9747 76.5694 6.67713 90.6706C-8.65126 124.998 2.5494 164.936 38.8009 178.396C77.847 192.899 143.11 185.09 160.959 177.28Z" fill="#5FE2DA"/>
<path opacity="0.7" d="M160.959 177.28C160.959 177.28 187.734 175.607 206.141 142.697C224.549 109.786 221.202 59.5843 198.332 31.6942C175.462 3.80417 139.763 -5.67846 105.737 3.24637C89.1592 7.59722 78.1036 18.876 68.5485 32.4696C60.2261 44.3117 50.8662 55.7299 38.271 63.2268C25.7986 70.6455 12.9747 76.5694 6.67713 90.6706C-8.65126 124.998 2.5494 164.936 38.8009 178.396C77.847 192.899 143.11 185.09 160.959 177.28Z" fill="white"/>
<path d="M112.525 201.824C165.152 201.824 207.814 198.078 207.814 193.457C207.814 188.836 165.152 185.09 112.525 185.09C59.8983 185.09 17.2358 188.836 17.2358 193.457C17.2358 198.078 59.8983 201.824 112.525 201.824Z" fill="#0BA79D"/>
<path opacity="0.5" d="M112.525 201.824C165.152 201.824 207.814 198.078 207.814 193.457C207.814 188.836 165.152 185.09 112.525 185.09C59.8983 185.09 17.2358 188.836 17.2358 193.457C17.2358 198.078 59.8983 201.824 112.525 201.824Z" fill="white"/>
<path d="M15.3564 87.6362V92.5839" stroke="#263238" stroke-width="0.557802" stroke-miterlimit="10" stroke-linecap="round" stroke-linejoin="round"/>
<path d="M17.833 90.1072H12.8853" stroke="#263238" stroke-width="0.557802" stroke-miterlimit="10" stroke-linecap="round" stroke-linejoin="round"/>
<path d="M184.186 45.2434V50.1911" stroke="#263238" stroke-width="0.557802" stroke-miterlimit="10" stroke-linecap="round" stroke-linejoin="round"/>
<path d="M186.662 47.7146H181.714" stroke="#263238" stroke-width="0.557802" stroke-miterlimit="10" stroke-linecap="round" stroke-linejoin="round"/>
<path d="M113.903 6.93921V11.8869" stroke="#263238" stroke-width="0.557802" stroke-miterlimit="10" stroke-linecap="round" stroke-linejoin="round"/>
<path d="M116.379 9.41016H111.432" stroke="#263238" stroke-width="0.557802" stroke-miterlimit="10" stroke-linecap="round" stroke-linejoin="round"/>
<path d="M32.4644 143.043V147.99" stroke="#263238" stroke-width="0.557802" stroke-miterlimit="10" stroke-linecap="round" stroke-linejoin="round"/>
<path d="M34.9409 145.514H29.9932" stroke="#263238" stroke-width="0.557802" stroke-miterlimit="10" stroke-linecap="round" stroke-linejoin="round"/>
<path d="M181.971 27.4105C181.971 29.6696 180.142 31.4992 177.883 31.4992C175.624 31.4992 173.794 29.6696 173.794 27.4105C173.794 25.1514 175.624 23.3218 177.883 23.3218C180.142 23.3162 181.971 25.1514 181.971 27.4105Z" stroke="#263238" stroke-width="0.557802" stroke-miterlimit="10" stroke-linecap="round" stroke-linejoin="round"/>
<path d="M6.89969 125.644C8.98597 124.779 9.97667 122.388 9.11249 120.301C8.24831 118.215 5.85649 117.224 3.77021 118.089C1.68394 118.953 0.693234 121.345 1.55742 123.431C2.4216 125.517 4.81342 126.508 6.89969 125.644Z" stroke="#263238" stroke-width="0.557802" stroke-miterlimit="10" stroke-linecap="round" stroke-linejoin="round"/>
<path d="M200.563 69.2457C200.563 69.7589 200.144 70.1773 199.631 70.1773C199.118 70.1773 198.7 69.7589 198.7 69.2457C198.7 68.7326 199.118 68.3142 199.631 68.3142C200.15 68.3142 200.563 68.727 200.563 69.2457Z" stroke="#263238" stroke-width="0.557802" stroke-miterlimit="10" stroke-linecap="round" stroke-linejoin="round"/>
<path d="M58.697 55.8585C58.697 56.3717 58.2787 56.7901 57.7655 56.7901C57.2523 56.7901 56.834 56.3717 56.834 55.8585C56.834 55.3454 57.2523 54.927 57.7655 54.927C58.2787 54.927 58.697 55.3398 58.697 55.8585Z" stroke="#263238" stroke-width="0.557802" stroke-miterlimit="10" stroke-linecap="round" stroke-linejoin="round"/>
<path d="M215.027 110.707L215.044 110.679C215.044 110.679 215.032 110.679 215.01 110.673C215.005 110.657 214.999 110.646 214.999 110.646L214.982 110.673C214.207 110.595 206.18 109.909 198.856 113.713C201.695 110.049 203.603 105.307 203.001 99.2999C201.232 81.6232 184.549 71.4991 183.266 70.746V70.7014C183.266 70.7014 183.249 70.7126 183.227 70.7237C183.199 70.707 183.188 70.7014 183.188 70.7014V70.746C181.905 71.4991 165.221 81.6232 163.453 99.2999C163.068 103.16 163.715 106.49 164.981 109.357C155.588 103.74 144.627 104.688 143.617 104.789L143.595 104.755C143.595 104.755 143.589 104.766 143.578 104.789C143.556 104.789 143.539 104.794 143.539 104.794L143.561 104.828C143.065 105.971 136.795 121.043 144.331 133.856C151.069 145.313 165.199 142.284 169.031 141.208C172.255 144.593 178.134 152.302 180.733 165.455H177.069L178.831 190.367H187.064L188.827 165.455H184.515C187.053 154.377 191.281 146.077 195.035 140.399C198.879 141.353 209.276 142.97 214.402 134.257C220.516 123.865 215.429 111.638 215.027 110.707ZM182.97 110.612L174.268 98.5246C174.19 98.4186 174.218 98.268 174.324 98.1954C174.43 98.1174 174.581 98.1453 174.653 98.2512L182.987 109.826V97.5819L182.97 97.5986L174.268 85.511C174.19 85.4051 174.218 85.2545 174.324 85.1819C174.43 85.1039 174.581 85.1317 174.653 85.2377L182.987 96.8121V78.9848C182.987 78.8565 183.093 78.7505 183.221 78.7505C183.349 78.7505 183.455 78.8565 183.455 78.9848V96.2153L192.492 84.7524C192.575 84.652 192.72 84.6297 192.826 84.7134C192.927 84.7971 192.949 84.9421 192.865 85.0481L183.455 96.9794V109.229L192.492 97.7659C192.575 97.6655 192.72 97.6432 192.826 97.7269C192.927 97.805 192.949 97.9556 192.865 98.0616L183.455 109.993V120.351L192.492 108.889C192.575 108.788 192.72 108.771 192.826 108.849C192.927 108.933 192.949 109.078 192.865 109.184L183.455 121.116V121.339H182.686L174.268 109.647C174.19 109.541 174.218 109.391 174.324 109.318C174.43 109.24 174.581 109.268 174.653 109.374L182.987 120.948V110.595L182.97 110.612ZM169.148 140.114L168.289 138.943L156.045 135.529C155.939 135.501 155.878 135.39 155.906 135.284C155.933 135.178 156.045 135.116 156.151 135.144L167.915 138.424L162.8 131.429L150.556 128.016C150.45 127.988 150.389 127.876 150.417 127.77C150.445 127.664 150.556 127.603 150.662 127.631L162.426 130.911L156.38 122.638L144.136 119.225C144.03 119.197 143.969 119.085 143.996 118.979C144.024 118.873 144.136 118.812 144.242 118.84L156.006 122.12L147.499 110.484C147.433 110.395 147.455 110.272 147.544 110.205C147.633 110.138 147.756 110.16 147.823 110.25L156.62 122.287L156.536 110.356C156.536 110.244 156.625 110.155 156.731 110.155C156.843 110.155 156.932 110.244 156.932 110.35L157.021 122.811L157.004 122.806L163.034 131.083L162.951 119.152C162.951 119.04 163.04 118.951 163.146 118.951C163.257 118.951 163.347 119.041 163.347 119.146L163.436 131.608L163.419 131.602L168.529 138.591L168.445 126.66C168.445 126.549 168.534 126.459 168.64 126.459C168.752 126.459 168.841 126.549 168.841 126.654L168.93 139.116L168.913 139.11L169.644 140.114H169.148ZM170.537 140.114C172.327 137.398 177.476 128.479 174.402 119.894C177.492 121.947 180.443 123.202 182.033 123.799V162.527C179.21 150.662 173.883 143.539 170.637 140.114H170.537ZM183.924 160.145V123.977C185.229 123.514 188.096 122.376 191.226 120.418C186.311 128.294 191.817 137.392 193.267 139.534C190.032 144.471 186.49 151.287 183.924 160.145ZM214.564 122.393L204.63 125.165L199.721 131.876L209.265 129.215C209.349 129.192 209.438 129.243 209.46 129.326C209.482 129.41 209.432 129.499 209.349 129.522L199.414 132.294L195.264 137.972L204.808 135.312C204.892 135.289 204.981 135.339 205.003 135.423C205.026 135.507 204.975 135.596 204.892 135.618L194.957 138.391L194.433 139.105C194.338 139.049 194.243 138.993 194.154 138.937L194.455 138.53L194.438 138.536L194.511 128.428C194.511 128.339 194.583 128.267 194.673 128.267C194.762 128.267 194.835 128.339 194.835 128.428L194.768 138.106L198.912 132.433L198.895 132.439L198.968 122.332C198.968 122.242 199.04 122.17 199.13 122.17C199.219 122.17 199.291 122.242 199.291 122.332L199.224 132.009L204.127 125.299L204.111 125.305L204.183 115.197C204.183 115.108 204.256 115.035 204.345 115.035C204.434 115.035 204.507 115.108 204.507 115.197L204.44 124.875L211.58 115.108C211.63 115.035 211.73 115.019 211.803 115.075C211.875 115.125 211.892 115.225 211.836 115.298L204.936 124.741L214.48 122.081C214.564 122.058 214.653 122.108 214.675 122.192C214.698 122.276 214.648 122.365 214.564 122.393Z" fill="#263238"/>
<path d="M160.34 192.709H74.2158C72.1352 192.709 70.4507 191.025 70.4507 188.944V27.6836C70.4507 25.603 72.1352 23.9185 74.2158 23.9185H160.346C162.427 23.9185 164.111 25.603 164.111 27.6836V188.944C164.106 191.025 162.421 192.709 160.34 192.709Z" fill="#263238" stroke="#263238" stroke-width="0.557802" stroke-miterlimit="10" stroke-linecap="round" stroke-linejoin="round"/>
<path d="M157.373 192.709H71.2427C69.1621 192.709 67.4775 191.025 67.4775 188.944V27.6836C67.4775 25.603 69.1621 23.9185 71.2427 23.9185H157.373C159.453 23.9185 161.138 25.603 161.138 27.6836V188.944C161.138 191.025 159.453 192.709 157.373 192.709Z" fill="white"/>
<mask id="mask0_107_682" style="mask-type:luminance" maskUnits="userSpaceOnUse" x="67" y="23" width="95" height="170">
<path d="M157.373 192.709H71.2427C69.1621 192.709 67.4775 191.025 67.4775 188.944V27.6836C67.4775 25.603 69.1621 23.9185 71.2427 23.9185H157.373C159.453 23.9185 161.138 25.603 161.138 27.6836V188.944C161.138 191.025 159.453 192.709 157.373 192.709Z" fill="white"/>
</mask>
<g mask="url(#mask0_107_682)">
<path d="M161.138 87.6084L78.7783 192.709H157.373C159.453 192.709 161.138 191.025 161.138 188.944V87.6084Z" fill="#0BA79D"/>
</g>
<mask id="mask1_107_682" style="mask-type:luminance" maskUnits="userSpaceOnUse" x="67" y="23" width="95" height="170">
<path d="M157.373 192.709H71.2427C69.1621 192.709 67.4775 191.025 67.4775 188.944V27.6836C67.4775 25.603 69.1621 23.9185 71.2427 23.9185H157.373C159.453 23.9185 161.138 25.603 161.138 27.6836V188.944C161.138 191.025 159.453 192.709 157.373 192.709Z" fill="white"/>
</mask>
<g mask="url(#mask1_107_682)">
<path opacity="0.5" d="M161.138 87.6084L78.7783 192.709H157.373C159.453 192.709 161.138 191.025 161.138 188.944V87.6084Z" fill="white"/>
</g>
<path d="M157.373 192.709H71.2427C69.1621 192.709 67.4775 191.025 67.4775 188.944V27.6836C67.4775 25.603 69.1621 23.9185 71.2427 23.9185H157.373C159.453 23.9185 161.138 25.603 161.138 27.6836V188.944C161.138 191.025 159.453 192.709 157.373 192.709Z" stroke="#263238" stroke-width="0.557802" stroke-miterlimit="10" stroke-linecap="round" stroke-linejoin="round"/>
<path d="M120.781 34.0036H109.123C108.465 34.0036 107.929 33.4681 107.929 32.8099C107.929 32.1517 108.465 31.6162 109.123 31.6162H120.781C121.439 31.6162 121.975 32.1517 121.975 32.8099C121.98 33.4681 121.445 34.0036 120.781 34.0036Z" fill="#263238" stroke="#263238" stroke-width="0.557802" stroke-miterlimit="10" stroke-linecap="round" stroke-linejoin="round"/>
<path d="M155.22 177.621H73.4014V34.1431H92.7961L94.9771 35.9559C95.7413 36.5862 96.7007 36.9321 97.6881 36.9321H131.904C132.936 36.9321 133.934 36.5583 134.709 35.8778L136.684 34.1431H155.225V177.621H155.22Z" fill="#263238" stroke="#263238" stroke-width="0.557802" stroke-miterlimit="10" stroke-linecap="round" stroke-linejoin="round"/>
<path d="M88.7461 146.685H139.869" stroke="white" stroke-width="0.557802" stroke-miterlimit="10" stroke-linecap="round" stroke-linejoin="round"/>
<path d="M88.7461 153.412H139.869" stroke="white" stroke-width="0.557802" stroke-miterlimit="10" stroke-linecap="round" stroke-linejoin="round"/>
<path d="M88.7461 160.139H139.869" stroke="white" stroke-width="0.557802" stroke-miterlimit="10" stroke-linecap="round" stroke-linejoin="round"/>
<path d="M93.4877 84.2337C90.6708 88.3112 89.0142 93.2645 89.0142 98.5971C89.0142 112.564 100.338 123.893 114.31 123.893C128.283 123.893 139.607 112.57 139.607 98.5971C139.607 84.6297 128.283 73.3008 114.31 73.3008C112.732 73.3008 111.187 73.4458 109.686 73.7247" stroke="white" stroke-width="0.557802" stroke-miterlimit="10" stroke-linecap="round" stroke-linejoin="round"/>
<path d="M97.7828 79.4478C96.9294 80.1841 96.1317 80.9761 95.3843 81.8184" stroke="white" stroke-width="0.557802" stroke-miterlimit="10" stroke-linecap="round" stroke-linejoin="round"/>
<path d="M134.052 107.006C138.696 96.0999 133.62 83.4937 122.714 78.8491C111.808 74.2046 99.2022 79.2805 94.5576 90.1865C89.9131 101.093 94.989 113.699 105.895 118.343C116.801 122.988 129.407 117.912 134.052 107.006Z" fill="#0BA79D"/>
<path d="M104.393 96.377L112.536 105.625L125.857 86.7549" stroke="#263238" stroke-width="3.34681" stroke-miterlimit="10" stroke-linecap="round" stroke-linejoin="round"/>
<path d="M134.703 35.8722C133.928 36.5527 132.93 36.9265 131.898 36.9265H97.6822C96.6893 36.9265 95.7299 36.5806 94.9713 35.9503L92.7903 34.1375H73.3955V48.8188H155.214V34.143H136.673L134.703 35.8722Z" fill="#0BA79D" stroke="#263238" stroke-width="0.557802" stroke-miterlimit="10" stroke-linecap="round" stroke-linejoin="round"/>
<path d="M116.921 182.044C116.921 181.018 116.09 180.187 115.064 180.187C114.037 180.187 113.206 181.018 113.206 182.044C113.206 183.07 114.037 183.901 115.064 183.901C116.09 183.901 116.921 183.07 116.921 182.044Z" fill="#263238" stroke="#263238" stroke-width="0.557802" stroke-miterlimit="10" stroke-linecap="round" stroke-linejoin="round"/>
<path d="M44.1444 124.981L36.8483 190.238C36.8483 190.238 31.499 194.89 31.9676 196.77C32.4361 198.65 38.6165 195.671 39.4644 194.104C40.3178 192.536 40.7474 190.037 40.7474 190.037L56.1092 140.968L67.9234 193.607C67.9234 193.607 72.9715 197.729 75.7606 197.59C78.544 197.451 77.5623 196.357 75.9669 194.344C74.3772 192.33 70.7794 191.181 70.7794 191.181L69.0056 123.335L44.1444 124.981Z" fill="#263238" stroke="#263238" stroke-width="0.557802" stroke-miterlimit="10" stroke-linecap="round" stroke-linejoin="round"/>
<path d="M68.5753 122.187L44.064 123.431L44.2336 126.773L68.745 125.529L68.5753 122.187Z" fill="#263238" stroke="#263238" stroke-width="0.557802" stroke-miterlimit="10" stroke-linecap="round" stroke-linejoin="round"/>
<path d="M59.2721 124.312C59.3167 125.143 58.2569 125.868 56.9126 125.935C55.5683 126.002 54.4415 125.388 54.3969 124.557C54.3522 123.726 55.4121 123.001 56.7564 122.934C58.1062 122.867 59.233 123.481 59.2721 124.312Z" fill="white"/>
<path d="M55.0774 90.0125L45.8569 92.7178L47.006 123.514L68.6208 122.979L65.882 91.1392L55.0774 90.0125Z" fill="white" stroke="#263238" stroke-width="0.557802" stroke-miterlimit="10" stroke-linecap="round" stroke-linejoin="round"/>
<path d="M50.98 90L49.7417 142.562L38 136.878L43.1597 120.277L39.6455 92.2535L50.98 90Z" fill="#0BA79D" stroke="#263238" stroke-width="0.557802" stroke-miterlimit="10" stroke-linecap="round" stroke-linejoin="round"/>
<path d="M60.3765 89.8843L66.9362 142.05L78.0365 135.206L71.2201 119.213L71.8783 90.9776L60.3765 89.8843Z" fill="#0BA79D" stroke="#263238" stroke-width="0.557802" stroke-miterlimit="10" stroke-linecap="round" stroke-linejoin="round"/>
<path d="M53.3931 96.2431L55.2171 99.2218L53.7556 119.961L57.2252 124.066L59.0213 119.135L56.2434 99.2608L57.9615 96.3825L55.4681 93.1584L53.3931 96.2431Z" fill="#263238" stroke="#263238" stroke-width="0.557802" stroke-miterlimit="10" stroke-linecap="round" stroke-linejoin="round"/>
<path d="M55.6519 95.8472L52.1991 98.4466L49.438 91.6972L50.9887 89.293L59.4394 88.8635L61.4363 91.5521L59.7964 97.688L55.6519 95.8472Z" fill="white" stroke="#263238" stroke-width="0.557802" stroke-miterlimit="10" stroke-linecap="round" stroke-linejoin="round"/>
<path d="M51.6973 86.6937L52.4726 90.9832L55.6521 95.8473L58.5694 90.1131L58.3853 86.4929L51.6973 86.6937Z" fill="white" stroke="#263238" stroke-width="0.557802" stroke-miterlimit="10" stroke-linecap="round" stroke-linejoin="round"/>
<path d="M39.7097 92.6118L24.0522 111.555L34.4552 123.877L38.6443 121.149L33.5014 110.657L41.1823 105.101L39.7097 92.6118Z" fill="#0BA79D" stroke="#263238" stroke-width="0.557802" stroke-miterlimit="10" stroke-linecap="round" stroke-linejoin="round"/>
<path d="M38.6447 121.149L39.275 122.516L35.7442 124.507L35.27 123.414L38.6447 121.149Z" fill="white" stroke="#263238" stroke-width="0.557802" stroke-miterlimit="10" stroke-linecap="round" stroke-linejoin="round"/>
<path d="M39.2749 122.516L42.8672 127.218L41.6846 128.674L40.8256 128.3L39.0853 129.784C39.0853 129.784 37.8079 129.432 37.6517 129.02C37.49 128.607 35.7608 127.58 35.7273 126.883C35.6939 126.186 35.7441 124.507 35.7441 124.507L39.2749 122.516Z" fill="white" stroke="#263238" stroke-width="0.557802" stroke-miterlimit="10" stroke-linecap="round" stroke-linejoin="round"/>
<path d="M80.5967 94.6702C80.5967 94.6702 80.9927 93.5992 80.7361 92.9354C80.4795 92.2717 79.9106 89.9735 80.0221 89.2149C80.1337 88.4563 81.2772 87.3463 81.3776 86.3645C81.478 85.3828 81.3553 84.4847 81.4055 83.9604C81.4557 83.4305 82.1083 83.0233 82.6661 83.6704C83.2239 84.3174 83.5586 84.9756 83.2908 85.6673C83.0231 86.359 83.0343 88.01 83.0343 88.01C83.0343 88.01 83.9212 89.2428 84.412 90.046C84.9029 90.8493 84.8583 92.9522 84.5292 93.7944C84.1945 94.6367 83.263 95.4344 83.263 95.4344L83.3187 96.8902L80.5967 94.6702Z" fill="white" stroke="#263238" stroke-width="0.557802" stroke-miterlimit="10" stroke-linecap="round" stroke-linejoin="round"/>
<path d="M82.2259 86.8498C82.2259 86.8498 81.8354 87.9989 82.5215 88.261C83.2132 88.5288 86.0133 88.9081 86.0412 88.0044C86.0691 87.1008 86.1249 86.649 85.6731 86.6713C85.2213 86.6936 83.1184 86.649 83.1184 86.649C83.1184 86.649 82.1422 86.6322 82.2259 86.8498Z" fill="white" stroke="#263238" stroke-width="0.557802" stroke-miterlimit="10" stroke-linecap="round" stroke-linejoin="round"/>
<path d="M82.5493 92.4725C82.5493 92.4725 82.2704 93.3259 82.7668 93.5267C83.2633 93.7275 85.2825 94.012 85.2992 93.3427C85.3215 92.6677 85.355 92.333 85.0315 92.3498C84.708 92.3665 83.1907 92.333 83.1907 92.333C83.1907 92.333 82.4879 92.3052 82.5493 92.4725Z" fill="white" stroke="#263238" stroke-width="0.557802" stroke-miterlimit="10" stroke-linecap="round" stroke-linejoin="round"/>
<path d="M82.1699 90.6652C82.1699 90.6652 81.8463 91.6525 82.4209 91.8812C82.9954 92.1099 85.3326 92.4446 85.3549 91.6693C85.3772 90.8883 85.4219 90.4979 85.0481 90.5202C84.6744 90.5369 82.9173 90.4979 82.9173 90.4979C82.9173 90.4979 82.0974 90.4756 82.1699 90.6652Z" fill="white" stroke="#263238" stroke-width="0.557802" stroke-miterlimit="10" stroke-linecap="round" stroke-linejoin="round"/>
<path d="M81.9578 88.8913C81.9578 88.8913 81.5674 90.0404 82.2534 90.3025C82.9451 90.5703 85.7453 90.9496 85.7732 90.0459C85.8011 89.1423 85.8568 88.6905 85.405 88.7128C84.9532 88.7351 82.8503 88.6905 82.8503 88.6905C82.8503 88.6905 81.8686 88.6737 81.9578 88.8913Z" fill="white" stroke="#263238" stroke-width="0.557802" stroke-miterlimit="10" stroke-linecap="round" stroke-linejoin="round"/>
<path d="M80.2788 95.8135L80.7139 94.0676L83.7372 95.8637L83.2352 97.7714L80.2788 95.8135Z" fill="white" stroke="#263238" stroke-width="0.557802" stroke-miterlimit="10" stroke-linecap="round" stroke-linejoin="round"/>
<path d="M71.8784 90.9775L77.6683 103.294L80.5075 95.3674L83.2966 98.017L80.4406 112.715C80.0446 114.751 77.4117 115.326 76.2013 113.641L71.5771 107.187L71.8784 90.9775Z" fill="#0BA79D" stroke="#263238" stroke-width="0.557802" stroke-miterlimit="10" stroke-linecap="round" stroke-linejoin="round"/>
<path d="M48.9978 81.6847C48.9978 81.6847 47.8319 80.4352 47.6758 81.35C47.5196 82.2648 48.0049 83.8434 48.7356 84.4123C49.4663 84.9757 50.1245 84.0386 50.1245 84.0386L48.9978 81.6847Z" fill="white" stroke="#263238" stroke-width="0.557802" stroke-miterlimit="10" stroke-linecap="round" stroke-linejoin="round"/>
<path d="M60.0696 81.121C60.0696 81.121 61.1071 79.76 61.3525 80.6525C61.598 81.5449 61.28 83.1682 60.6107 83.804C59.9413 84.4399 59.1938 83.5753 59.1938 83.5753L60.0696 81.121Z" fill="white" stroke="#263238" stroke-width="0.557802" stroke-miterlimit="10" stroke-linecap="round" stroke-linejoin="round"/>
<path d="M49.4658 82.9674L48.3391 80.6135C48.3391 80.6135 47.0505 78.9736 46.515 76.3854C45.9796 73.8028 46.8776 71.6441 48.049 70.9803C49.2204 70.3165 50.2412 70.5675 50.2412 70.5675C50.2412 70.5675 50.4643 69.0503 54.1179 67.7562C57.7715 66.4677 61.8044 68.7714 61.743 69.5802C61.6817 70.389 60.6944 70.7404 60.6944 70.7404C60.6944 70.7404 63.5615 71.8003 62.5239 73.1613C61.4864 74.5223 60.1087 75.0913 60.1087 75.0913C60.1087 75.0913 60.4712 76.2794 60.6163 77.1775C60.7613 78.0755 59.9525 81.9355 59.9525 81.9355L57.9667 76.5081L51.7528 76.826C51.7528 76.826 51.3846 79.4589 50.7264 80.396C50.0682 81.3331 50.0403 82.7443 50.0403 82.7443C50.0403 82.7443 49.8061 83.7539 49.4658 82.9674Z" fill="#263238" stroke="#263238" stroke-width="0.557802" stroke-miterlimit="10" stroke-linecap="round" stroke-linejoin="round"/>
<path d="M50.5762 73.1614C50.5762 73.1614 50.5371 76.3799 50.2192 78.0031C49.9012 79.6263 48.9307 80.2789 48.9307 80.2789C48.9307 80.2789 49.7227 83.9548 50.7212 85.9127C51.7252 87.8706 53.817 89.4715 55.9143 89.2651C58.0117 89.0587 59.7018 86.6602 59.897 84.6409C60.0978 82.6217 59.1105 75.136 59.1105 75.136C59.1105 75.136 52.5396 76.2795 50.5762 73.1614Z" fill="white" stroke="#263238" stroke-width="0.557802" stroke-miterlimit="10" stroke-linecap="round" stroke-linejoin="round"/>
<path d="M51.1284 80.714C51.1284 80.714 52.3054 80 53.3596 80.6024" stroke="#263238" stroke-width="0.557802" stroke-miterlimit="10" stroke-linecap="round" stroke-linejoin="round"/>
<path d="M51.0444 79.0407C51.0444 79.0407 51.1727 77.9139 53.0302 77.8191" stroke="#263238" stroke-width="0.557802" stroke-miterlimit="10" stroke-linecap="round" stroke-linejoin="round"/>
<path d="M55.9976 77.5734C55.9976 77.5734 57.459 76.9375 58.4519 78.1926" stroke="#263238" stroke-width="0.557802" stroke-miterlimit="10" stroke-linecap="round" stroke-linejoin="round"/>
<path d="M55.3453 79.3806C55.3453 79.3806 55.6465 81.6007 55.6576 81.8796C55.6744 82.1585 56.6059 82.2031 56.3549 82.7776C56.1039 83.3522 55.2951 83.949 54.6201 83.5195" stroke="#263238" stroke-width="0.557802" stroke-miterlimit="10" stroke-linecap="round" stroke-linejoin="round"/>
<path d="M56.3937 85.3826C56.3937 85.3826 55.6853 86.0687 54.2573 85.4885" stroke="#263238" stroke-width="0.557802" stroke-miterlimit="10" stroke-linecap="round" stroke-linejoin="round"/>
<path d="M57.8048 80.0947C57.8272 80.5075 57.6319 80.8477 57.3753 80.8645C57.1188 80.8756 56.8956 80.5577 56.8733 80.1449C56.851 79.7321 57.0462 79.3919 57.3028 79.3751C57.5594 79.3584 57.7825 79.6819 57.8048 80.0947Z" fill="#263238"/>
</g>
<defs>
<clipPath id="clip0_107_682">
<rect width="218" height="201.824" fill="white"/>
</clipPath>
</defs>
</svg>
