<svg width="39" height="41" viewBox="0 0 39 41" fill="none" xmlns="http://www.w3.org/2000/svg">
<g clip-path="url(#clip0_134_1515)">
<path d="M4.71837 2.55157C6.09312 1.55174 10.6097 0.138801 14.668 2.17663C16.685 3.19034 19.7087 5.09278 24.4336 1.78087C26.8707 0.0693687 31.9739 -1.73587 36.2579 3.23547C38.2541 5.55103 40.5141 11.9527 37.6292 17.3788C36.0635 20.3227 32.5606 24.815 31.9392 30.1057C31.5469 33.4419 29.9083 38.4028 27.0026 39.663C25.9715 40.1109 23.5032 40.7323 23.1456 37.3475C23.1456 37.3475 23.1456 34.8618 20.4899 34.5181C20.4899 34.5181 18.0042 34.6222 18.0042 37.3475C18.0042 39.7463 15.5185 40.6906 13.0572 38.9756C10.9117 37.4828 9.54042 34.8583 8.92248 31.0048C8.64822 29.3003 7.40539 26.8424 5.83622 24.8323C3.39568 21.7148 -5.3111 9.83499 4.71837 2.55157Z" fill="white"/>
<path d="M24.4294 1.77745C19.708 5.08936 16.6808 3.18692 14.6638 2.17322C13.8237 1.74968 12.9627 1.48237 12.1156 1.32267C7.89416 0.999814 8.53293 4.80122 11.7928 5.40181C17.4897 6.46065 20.6697 4.3638 24.4294 1.77745Z" fill="#E6E7E9"/>
<path d="M27.1385 0.437409C31.1065 0.867888 25.9546 8.85952 19.5009 9.13725C13.4534 9.39415 18.6539 11.1612 23.8995 10.9008C25.8435 10.8036 29.5547 9.23793 31.2731 13.3969C31.8668 14.8376 31.9952 16.4346 29.9435 19.493C26.4511 24.7039 27.8918 32.5185 22.2921 32.2443C20.3862 32.1505 16.3626 31.7443 15.2517 35.1812C14.8559 36.4102 13.3666 40.4963 10.0859 35.1882C10.815 36.8511 11.8009 38.1113 13.0542 38.9826C15.519 40.6941 18.0047 39.7533 18.0012 37.3545C18.0012 34.6292 20.4869 34.5251 20.4869 34.5251C23.1426 34.8688 23.1426 37.3545 23.1426 37.3545C23.5002 40.7358 25.9685 40.1144 26.9996 39.67C29.9053 38.4098 31.5439 33.4489 31.9362 30.1127C32.5576 24.822 36.0605 20.3297 37.6262 17.3858C40.5145 11.9597 38.2545 5.55803 36.2549 3.24247C33.2138 -0.2951 29.7595 -0.406191 27.1385 0.437409Z" fill="#E6E7E9"/>
<path d="M10.4014 14.5044C10.4014 13.5011 11.2137 12.6888 12.217 12.6888C13.2203 12.6888 14.0327 13.5011 14.0327 14.5044" stroke="#1F1F1F" stroke-width="0.915493" stroke-miterlimit="10" stroke-linecap="round" stroke-linejoin="round"/>
<path d="M24.6968 14.5044C24.6968 13.5011 25.5091 12.6888 26.5124 12.6888C27.5157 12.6888 28.3315 13.5011 28.3315 14.5044" stroke="#1F1F1F" stroke-width="0.915493" stroke-miterlimit="10" stroke-linecap="round" stroke-linejoin="round"/>
<path d="M15.0601 18.3891H23.6696C23.6696 18.3891 22.6177 21.7427 19.4273 22.0378C16.4973 22.312 15.3378 19.0418 15.0601 18.3891Z" fill="#4C0B09"/>
<path d="M16.4873 18.3891V19.2327C16.4873 19.2327 19.3271 20.2707 22.0801 19.2327V18.3891H16.4873Z" fill="white"/>
<path d="M19.4305 22.0378C20.4338 21.9441 21.2218 21.5518 21.8363 21.0553C19.5693 19.7674 18.2744 21.3817 17.9585 21.8573C18.389 22.017 18.8785 22.0899 19.4305 22.0378Z" fill="#EC1B26"/>
<path d="M10.1725 17.8718C10.1725 18.653 9.54063 19.2813 8.76299 19.2813C7.98535 19.2813 7.35352 18.6495 7.35352 17.8718C7.35352 17.0942 7.98535 16.4624 8.76299 16.4624C9.54063 16.4624 10.1725 17.0942 10.1725 17.8718Z" fill="#FFB0B1"/>
<path d="M31.3844 17.8718C31.3844 18.653 30.7525 19.2813 29.9749 19.2813C29.1973 19.2813 28.5654 18.6495 28.5654 17.8718C28.5654 17.0942 29.1973 16.4624 29.9749 16.4624C30.7525 16.4624 31.3844 17.0942 31.3844 17.8718Z" fill="#FFB0B1"/>
</g>
<defs>
<clipPath id="clip0_134_1515">
<rect width="39" height="40.0207" fill="white"/>
</clipPath>
</defs>
</svg>
