<svg width="20" height="20" viewBox="0 0 20 20" fill="none" xmlns="http://www.w3.org/2000/svg">
<path d="M9.99967 0.833252C4.95801 0.833252 0.833008 4.95825 0.833008 9.99992C0.833008 15.0416 4.95801 19.1666 9.99967 19.1666C15.0413 19.1666 19.1663 15.0416 19.1663 9.99992C19.1663 4.95825 15.0413 0.833252 9.99967 0.833252ZM12.7497 10.9166H9.99967C9.44967 10.9166 9.08301 10.5499 9.08301 9.99992V5.41659C9.08301 4.86659 9.44967 4.49992 9.99967 4.49992C10.5497 4.49992 10.9163 4.86659 10.9163 5.41659V9.08325H12.7497C13.2997 9.08325 13.6663 9.44992 13.6663 9.99992C13.6663 10.5499 13.2997 10.9166 12.7497 10.9166Z" fill="#E2E2E2"/>
</svg>
