<svg width="55" height="55" viewBox="0 0 55 55" fill="none" xmlns="http://www.w3.org/2000/svg">
<g clip-path="url(#clip0_193_3695)">
<path d="M22.8525 5.2409C24.5379 5.01917 29.1808 5.93517 31.7729 9.66397C33.0607 11.518 34.8116 14.6353 40.5415 13.9808C43.5001 13.6413 48.8427 14.4912 50.2349 20.9067C50.8826 23.8945 49.8134 30.5998 44.684 33.9873C41.8993 35.8241 36.6792 38.0993 33.6061 42.4507C31.6679 45.1943 27.8587 48.77 24.7039 48.4892C23.5842 48.3902 21.1188 47.7571 22.4215 44.6126C22.4215 44.6126 23.6087 42.4288 21.4366 40.8567C21.4366 40.8567 19.2031 39.7609 17.9014 42.1551C16.7556 44.2627 14.1207 43.905 12.7744 41.221C11.6026 38.8847 11.6515 35.9239 12.9461 32.2416C13.5194 30.6131 13.6015 27.8601 13.183 25.3446C12.5371 21.445 10.5622 6.84915 22.8525 5.2409Z" fill="white"/>
<path d="M40.5403 13.9761C34.8103 14.6306 33.0595 11.5132 31.7716 9.6592C31.2359 8.88582 30.6071 8.23973 29.9392 7.69482C26.3847 5.39478 25.1301 9.03961 27.7072 11.1243C32.2064 14.7757 36.0018 14.4525 40.5403 13.9761Z" fill="#E6E7E9"/>
<path d="M43.5591 14.0922C46.8396 16.3657 38.4932 20.9243 32.6937 18.0873C27.2579 15.4244 30.9827 19.4609 35.7156 21.7377C37.47 22.5809 41.4783 22.978 40.9984 27.451C40.8318 29.0003 40.1819 30.4646 36.9185 32.1717C31.3612 35.0815 28.8943 42.6352 24.1057 39.7195C22.476 38.7268 19.1351 36.4481 16.5175 38.9369C15.5828 39.8276 12.3256 42.7077 11.9758 36.4756C11.822 38.2847 12.0862 39.8628 12.7711 41.227C14.1191 43.908 16.7522 44.2687 17.898 42.1612C19.1981 39.77 21.4333 40.8627 21.4333 40.8627C23.6023 42.4332 22.4181 44.6186 22.4181 44.6186C21.1171 47.7601 23.5825 48.3932 24.7006 48.4953C27.8554 48.7761 31.6645 45.2003 33.6027 42.4567C36.6758 38.1053 41.8959 35.8302 44.6807 33.9933C49.8101 30.6058 50.8823 23.9022 50.2315 20.9127C49.2464 16.3505 46.2648 14.603 43.5591 14.0922Z" fill="#E6E7E9"/>
<path d="M25.6771 20.3817C25.6146 17.6765 24.5651 17.0703 22.4838 18.6455L11.9557 38.0098C12.0208 39.1911 12.2963 40.2616 12.7758 41.2257C13.0303 41.7315 13.3281 42.1503 13.655 42.494L25.6771 20.3817Z" fill="#67EEF4"/>
<path d="M38.2342 27.2086C38.1718 24.5034 37.1223 23.8972 35.0409 25.4724L22.8646 47.8684C23.4464 48.2954 24.2055 48.4473 24.7043 48.4893C25.3934 48.5518 26.1123 48.4289 26.8373 48.171L38.2342 27.2086Z" fill="#67EEF4"/>
<path d="M22.4838 18.6454C22.9631 17.764 24.0648 17.4383 24.9462 17.9175C25.8277 18.3968 26.1564 19.5001 25.6771 20.3816" stroke="#141414" stroke-width="0.889356" stroke-miterlimit="10" stroke-linecap="round" stroke-linejoin="round"/>
<path d="M35.041 25.4723C35.5202 24.5909 36.6219 24.2652 37.5033 24.7444C38.3848 25.2237 38.7135 26.327 38.2343 27.2085" stroke="#141414" stroke-width="0.889356" stroke-miterlimit="10" stroke-linecap="round" stroke-linejoin="round"/>
<path d="M30.0964 31.0272C29.7265 31.9839 28.7626 32.6374 27.7681 32.3733C26.5874 32.0593 25.5163 31.4928 24.5748 30.6372C23.8169 29.9525 23.8461 28.7868 24.4689 27.9755L25.4641 26.6831C26.0933 25.8674 27.2125 25.6184 28.121 26.0333C28.7282 26.312 29.2783 26.623 29.8382 26.9669C30.7053 27.5016 31.0398 28.5725 30.6731 29.5231L30.0964 31.0272Z" fill="#4C0B09"/>
<path d="M30.0381 28.6918L30.5721 27.7097C30.4101 27.4043 30.1707 27.1398 29.8604 26.9474C29.3005 26.6035 28.7227 26.2854 28.1221 25.9944C27.7523 25.8171 27.3533 25.7661 26.9663 25.8165L26.4605 26.7467C27.0967 27.5826 28.7108 28.5313 30.0381 28.6918Z" fill="white"/>
<path d="M24.9219 29.5772C24.9219 29.5772 28.646 26.9865 28.4995 31.5223C28.4609 32.6472 27.0351 31.2358 27.0351 31.2358L24.9219 29.5772Z" fill="#EC1B26"/>
<path d="M29.7018 31.6941L24.1143 28.6562C23.8852 29.3537 24.0124 30.1301 24.5774 30.6388C25.5206 31.4915 26.587 32.0594 27.7708 32.375C28.5066 32.5696 29.2288 32.2589 29.7018 31.6941Z" fill="white"/>
</g>
<defs>
<clipPath id="clip0_193_3695">
<rect width="39" height="40.0207" fill="white" transform="translate(19.9263 0.745605) rotate(28.5322)"/>
</clipPath>
</defs>
</svg>
