<svg width="39" height="44" viewBox="0 0 39 44" fill="none" xmlns="http://www.w3.org/2000/svg">
<path d="M23.8819 30.3908C23.9578 30.3908 24.0336 30.3908 24.1149 30.3908C24.2558 30.3908 24.3967 30.3908 24.5376 30.4017C29.7617 30.7485 29.0843 40.8985 29.0843 40.8985C29.3173 43.4455 31.4958 42.4592 31.4958 42.4592C36.7198 38.72 35.3976 26.0772 35.3976 26.0772C39.2993 20.3546 36.9583 13.857 36.9583 13.857C35.9124 11.1366 33.8856 9.12071 30.9051 8.87685C28.3473 8.67093 26.2446 10.7139 23.8169 10.8494C21.3945 10.7139 19.2919 8.66551 16.7341 8.87685C13.7535 9.12071 11.7268 11.1366 10.6809 13.857C10.6809 13.857 8.33982 20.36 12.2416 26.0826C12.2416 26.0826 10.9193 38.7255 16.1434 42.4647C16.1434 42.4647 18.3219 43.4509 18.5549 40.9039C18.5549 40.9039 17.8775 30.7539 23.1015 30.4071C23.3617 30.38 23.6218 30.3854 23.8819 30.3908Z" fill="white"/>
<path d="M20.7225 31.5177C20.625 31.561 20.5329 31.6098 20.4408 31.664C18.9451 32.5473 18.7446 34.0972 18.3598 35.647C18.143 36.5195 17.3952 39.6464 15.9429 38.2265C15.0975 37.3974 14.8753 36.0372 14.7073 34.9209C14.5231 33.6961 14.3659 32.4552 14.3171 31.2142C14.2142 28.6455 14.6043 25.9414 16.5932 24.1422C16.1163 23.8171 15.5635 23.6003 15.1192 23.2372C14.6152 22.8254 14.2738 22.2889 14.0299 21.6873C13.4663 20.2784 13.0816 18.761 13.1358 17.2274C13.2225 14.9839 13.9595 12.5344 16.3276 11.792C18.6416 11.0713 20.7876 11.9871 22.9552 12.7133C24.3588 13.1793 25.9141 13.5966 27.4043 13.3419C28.4394 13.163 29.5666 12.6916 29.6641 11.5536C28.6833 12.0684 27.3772 12.0033 26.3314 11.8191C25.4751 11.6674 24.5105 11.4072 23.806 10.8437C21.3891 10.6973 19.2865 8.66516 16.7341 8.87109C13.7535 9.11495 11.7268 11.1309 10.6809 13.8513C10.6809 13.8513 8.33982 20.3542 12.2416 26.0768C12.2416 26.0768 10.9193 38.7197 16.1434 42.4589C16.1434 42.4589 18.3219 43.4452 18.5549 40.8982C18.5549 40.8928 18.1105 34.2326 20.7225 31.5177Z" fill="#DBFFFE"/>
<path d="M37.4951 20.6309C37.4355 20.7826 37.365 20.9289 37.2892 21.0752C36.6985 22.1699 35.8097 23.0261 34.7584 23.6873C34.0214 24.1533 33.2465 24.5489 32.4661 24.9337C32.2873 25.0204 32.1085 25.1071 31.9296 25.1992C31.7562 25.2859 31.9351 25.3455 32.0597 25.5298C32.2927 25.882 32.5149 26.2451 32.6937 26.6353C33.3711 28.1093 33.6204 29.7025 33.6963 31.312C33.783 33.0353 33.9293 34.8561 33.5825 36.5523C33.4199 37.3597 33.1652 38.1292 32.7913 38.8608C32.5691 39.2998 32.2981 39.8146 31.8646 40.0856C31.5015 40.3077 30.9434 40.4649 30.5803 40.1452C30.2009 39.8146 30.1684 39.3106 30.1088 38.8392C29.9679 37.7337 29.7566 36.6065 29.5019 35.5172C29.2526 34.4388 28.9274 33.252 28.1796 32.4012C27.8111 31.9785 27.383 31.6967 26.9224 31.5287C29.529 34.2437 29.0846 40.8984 29.0846 40.8984C29.3176 43.4454 31.4961 42.4591 31.4961 42.4591C36.7202 38.7199 35.3979 26.0771 35.3979 26.0771C36.6335 24.2617 37.2404 22.3704 37.4951 20.6309Z" fill="#DBFFFE"/>
<path d="M23.8819 30.3906C23.9578 30.3906 24.0336 30.3906 24.1149 30.3906C24.2558 30.3906 24.3967 30.3906 24.5376 30.4014C29.7617 30.7482 29.0843 40.8983 29.0843 40.8983C29.3173 43.4453 31.4958 42.459 31.4958 42.459C36.7198 38.7198 35.3976 26.0769 35.3976 26.0769C39.2993 20.3543 36.9583 13.8568 36.9583 13.8568C35.9124 11.1364 33.8856 9.12047 30.9051 8.87661C28.3473 8.67068 26.2446 10.7137 23.8169 10.8492C21.3945 10.7137 19.2919 8.66526 16.7341 8.87661C13.7535 9.12047 11.7268 11.1364 10.6809 13.8568C10.6809 13.8568 8.33982 20.3598 12.2416 26.0824C12.2416 26.0824 10.9193 38.7252 16.1434 42.4644C16.1434 42.4644 18.3219 43.4507 18.5549 40.9037C18.5549 40.9037 17.8775 30.7537 23.1015 30.4068C23.3617 30.3797 23.6218 30.3852 23.8819 30.3906Z" stroke="#07386D" stroke-width="0.704562" stroke-miterlimit="10" stroke-linecap="round" stroke-linejoin="round"/>
<path d="M22.3369 10.5457C22.3369 10.5457 28.5472 12.7512 29.6419 11.2339" stroke="#07386D" stroke-width="0.704562" stroke-miterlimit="10" stroke-linecap="round" stroke-linejoin="round"/>
<path d="M38.5032 5.48965C34.1137 5.85815 33.8157 6.1562 33.4472 10.5457C33.0787 6.1562 32.7806 5.85815 28.3911 5.48965C32.7806 5.12115 33.0787 4.81768 33.4472 0.433594C33.8157 4.82309 34.1137 5.12115 38.5032 5.48965Z" fill="white"/>
<path d="M11.0716 26.039C6.68208 26.4075 6.38403 26.7055 6.01553 31.095C5.64703 26.7055 5.34897 26.4075 0.959473 26.039C5.34897 25.6705 5.64703 25.3724 6.01553 20.9829C6.38403 25.367 6.6875 25.665 11.0716 26.039Z" fill="white"/>
</svg>
