<svg width="50" height="32" viewBox="0 0 50 32" fill="none" xmlns="http://www.w3.org/2000/svg">
<g clip-path="url(#clip0_185_1526)">
<path d="M39.8102 12.761C37.7229 21.3349 35.0007 31.3323 31.0889 31.3323C27.1804 31.3323 29.1779 24.4643 26.0485 22.7264H24.6377C24.2337 22.9509 23.9163 23.2587 23.6598 23.6274V23.6306C21.9251 26.122 23.0025 31.3323 19.5973 31.3323C17.7825 31.3323 16.221 29.1776 14.8647 26.0129C14.5473 25.2691 14.2395 24.4707 13.9413 23.6306C13.9413 23.6306 13.9413 23.6306 13.9413 23.6274C13.9413 23.6242 13.9413 23.6242 13.9381 23.6178C13.611 22.6944 13.2936 21.7196 12.989 20.7128C12.2131 18.1477 11.5141 15.3871 10.876 12.761C8.78867 4.18724 12.1521 1.23097 15.5701 0.188905C18.9881 -0.853163 23.0249 2.73155 24.1728 3.13876C24.378 3.2125 24.596 3.27022 24.8269 3.30549C24.9936 3.33114 25.1668 3.34717 25.3431 3.34717C27.1355 3.34717 31.6981 -0.853163 35.1161 0.188905C36.3249 0.557636 37.5209 1.16364 38.4796 2.17364C39.5409 3.29587 40.3008 4.91188 40.4323 7.25252C40.5188 8.76592 40.3393 10.5839 39.8102 12.761Z" fill="#F9F7F2"/>
<path opacity="0.37" d="M19.4689 24.5542C19.2925 25.2083 18.3819 25.2692 18.1158 24.6472C18.1126 24.6375 18.1094 24.6311 18.1062 24.6215C17.8368 23.9931 17.5643 23.2845 17.2886 22.5181C17.2789 22.4893 17.2693 22.4604 17.2597 22.4348V22.438C16.9615 21.5915 16.6569 20.6681 16.3619 19.6901C15.5764 17.0898 14.8774 14.3066 14.3002 11.9275C12.5656 4.79337 15.3904 3.93086 16.5992 3.56213C16.6761 3.53968 16.7723 3.52686 16.8846 3.52686C18.0869 3.52686 19.9819 4.73245 20.9983 5.37693C21.7486 5.85467 22.3418 6.22982 22.9927 6.46068C23.4031 6.60817 23.8456 6.72039 24.2913 6.79093C24.644 6.84544 24.9999 6.8743 25.3429 6.8743C26.9076 6.8743 28.312 6.10156 29.9441 5.20699C31.1465 4.54648 32.9613 3.5493 33.9488 3.5493C34.045 3.5493 34.0835 3.56213 34.0899 3.56213C34.8915 3.80581 35.4943 4.14568 35.9239 4.60099C36.5171 5.22623 36.841 6.15928 36.9147 7.44824C36.9852 8.6891 36.8089 10.1929 36.3856 11.9275C35.4847 15.6277 34.4907 19.4945 33.3396 22.6913C33.0671 23.4448 32.8106 24.0925 32.5733 24.6472C32.3039 25.2692 31.3965 25.2147 31.217 24.5606C30.7713 22.9189 29.989 21.1394 28.2864 19.9659C27.5393 19.4496 26.6415 19.1995 25.7341 19.1995H24.8395C24.0957 19.1995 23.355 19.3791 22.7201 19.7671C21.957 20.232 21.2997 20.8508 20.7707 21.6171C20.7418 21.6588 20.713 21.7037 20.6841 21.7454C20.0877 22.6304 19.7254 23.6083 19.4689 24.5542Z" fill="white"/>
<path d="M5.40262 18.4748C3.20305 18.6384 2.90166 18.9814 2.76378 21.569C2.76058 21.6203 2.68683 21.6203 2.68362 21.569C2.54254 18.9814 2.24114 18.6384 0.0447874 18.4748C-0.00972079 18.4716 -0.00972079 18.3883 0.0447874 18.3851C2.24435 18.2215 2.54575 17.8785 2.68362 15.2909C2.68683 15.2396 2.76058 15.2396 2.76378 15.2909C2.90486 17.8785 3.20626 18.2215 5.40262 18.3851C5.46033 18.3915 5.46033 18.4716 5.40262 18.4748Z" fill="white"/>
<path d="M7.43239 15.6021C6.42559 15.6887 6.24924 15.8811 6.1755 17.0546C6.17229 17.0899 6.12099 17.0899 6.11778 17.0546C6.04404 15.8811 5.86769 15.6887 4.86089 15.6021C4.82241 15.5989 4.82241 15.5444 4.86089 15.5412C5.86769 15.4546 6.04404 15.2622 6.11778 14.0887C6.12099 14.0534 6.17229 14.0534 6.1755 14.0887C6.24924 15.2622 6.42559 15.4546 7.43239 15.5412C7.47087 15.5444 7.47087 15.5989 7.43239 15.6021Z" fill="white"/>
<path d="M7.69559 20.931C7.096 20.9888 6.97095 21.1266 6.91965 21.8192C6.91644 21.8513 6.87155 21.8513 6.86835 21.8192C6.81704 21.1234 6.692 20.9888 6.09241 20.931C6.06034 20.9278 6.06034 20.8829 6.09241 20.8797C6.692 20.822 6.81704 20.6842 6.86835 19.9916C6.87155 19.9595 6.91644 19.9595 6.91965 19.9916C6.97095 20.6842 7.096 20.822 7.69559 20.8797C7.72765 20.8797 7.72765 20.9278 7.69559 20.931Z" fill="white"/>
<path d="M7.70846 18.1543C7.70846 18.2986 7.58982 18.4172 7.44554 18.4172C7.30125 18.4172 7.18262 18.2986 7.18262 18.1543C7.18262 18.01 7.30125 17.8914 7.44554 17.8914C7.58982 17.8914 7.70846 18.01 7.70846 18.1543Z" fill="white"/>
<path d="M0.792152 15.6117C0.792152 15.7367 0.692755 15.8361 0.567707 15.8361C0.442659 15.8361 0.343262 15.7367 0.343262 15.6117C0.343262 15.4866 0.442659 15.3872 0.567707 15.3872C0.692755 15.3872 0.792152 15.4866 0.792152 15.6117Z" fill="white"/>
<path d="M47.6851 7.94847C45.4856 8.11199 45.1842 8.45507 45.0431 11.0426C45.0399 11.0939 44.9661 11.0939 44.9629 11.0426C44.8218 8.45507 44.5204 8.11199 42.3241 7.94847C42.2696 7.94526 42.2696 7.8619 42.3241 7.85869C44.5236 7.69516 44.825 7.35208 44.9629 4.76455C44.9661 4.71325 45.0399 4.71325 45.0431 4.76455C45.1842 7.35208 45.4856 7.69516 47.6851 7.85869C47.7396 7.8619 47.7396 7.94205 47.6851 7.94847Z" fill="white"/>
<path d="M49.7117 5.07233C48.7049 5.1589 48.5285 5.35128 48.4548 6.52481C48.4516 6.56008 48.4003 6.56008 48.3971 6.52481C48.3233 5.35128 48.147 5.1589 47.1402 5.07233C47.1017 5.06912 47.1017 5.01461 47.1402 5.0114C48.147 4.92483 48.3233 4.73245 48.3971 3.55892C48.4003 3.52365 48.4516 3.52365 48.4548 3.55892C48.5285 4.73245 48.7049 4.92483 49.7117 5.0114C49.7502 5.01461 49.7502 5.06912 49.7117 5.07233Z" fill="white"/>
<path d="M49.9744 10.4013C49.3748 10.459 49.2498 10.5968 49.1985 11.2894C49.1953 11.3215 49.1504 11.3215 49.1472 11.2894C49.0959 10.5936 48.9708 10.459 48.3712 10.4013C48.3392 10.398 48.3392 10.3532 48.3712 10.35C48.9708 10.2922 49.0959 10.1544 49.1472 9.46179C49.1504 9.42973 49.1953 9.42973 49.1985 9.46179C49.2498 10.1544 49.3748 10.2922 49.9744 10.35C50.0065 10.35 50.0065 10.398 49.9744 10.4013Z" fill="white"/>
<path d="M49.9873 7.62449C49.9873 7.76878 49.8686 7.88742 49.7243 7.88742C49.5801 7.88742 49.4614 7.76878 49.4614 7.62449C49.4614 7.48021 49.5801 7.36157 49.7243 7.36157C49.8686 7.36157 49.9873 7.48021 49.9873 7.62449Z" fill="white"/>
<path d="M43.0744 5.08187C43.0744 5.20692 42.975 5.30631 42.8499 5.30631C42.7249 5.30631 42.6255 5.20692 42.6255 5.08187C42.6255 4.95682 42.7249 4.85742 42.8499 4.85742C42.9718 4.85742 43.0744 4.95682 43.0744 5.08187Z" fill="white"/>
<path d="M23.0699 17.3879C23.7176 17.4136 24.3556 17.3751 24.9745 17.2597C25.5965 17.1443 26.1993 16.9615 26.7764 16.7114C27.3504 16.4581 27.8987 16.1503 28.4085 15.7784C28.9215 15.4128 29.3896 14.9832 29.8385 14.5118C29.8994 14.4477 30.002 14.4445 30.0662 14.5054C30.1207 14.5567 30.1303 14.6337 30.1014 14.6946C29.7968 15.307 29.348 15.8489 28.8285 16.3042C28.3027 16.7563 27.7063 17.125 27.065 17.3879C26.427 17.6541 25.7472 17.8272 25.0578 17.8849C24.3717 17.9426 23.6727 17.8946 23.0186 17.7054C22.932 17.6797 22.8839 17.5899 22.9064 17.5066C22.9288 17.4328 22.9994 17.3847 23.0699 17.3879Z" fill="#599ED3"/>
<path d="M29.5368 12.6587C29.6843 13.0178 29.8318 13.3384 30.0145 13.6334C30.1941 13.9284 30.4025 14.1945 30.6365 14.4286C30.8706 14.6627 31.1367 14.8711 31.4317 15.0506C31.7267 15.2334 32.0473 15.3841 32.4065 15.5316L32.3872 15.8522C31.9704 15.9516 31.5215 15.9067 31.1079 15.7721C30.6911 15.6342 30.3031 15.3937 29.9889 15.0763C29.6714 14.7589 29.4342 14.3709 29.2963 13.9541C29.1616 13.5372 29.1167 13.0915 29.2193 12.6747L29.5368 12.6587Z" fill="#599ED3"/>
<path d="M17.6157 7.15637C17.9781 6.78443 18.4141 6.48624 18.754 6.09506C19.0939 5.70389 19.3408 5.17484 19.2157 4.67144C19.0618 4.05261 18.4045 3.68388 17.7728 3.60051C16.5608 3.4434 15.3392 4.10391 14.5889 5.06903C13.8386 6.03414 13.4956 7.26218 13.3577 8.47739C13.2807 9.14111 13.2647 9.83368 13.4827 10.4653C13.7008 11.097 14.1945 11.6677 14.8454 11.8248C15.9356 12.0845 16.5063 11.2252 16.5288 10.3178C16.5608 9.11866 16.7404 8.05735 17.6157 7.15637Z" fill="white"/>
<path d="M21.0436 8.7789C21.0436 9.44903 20.5018 9.9909 19.8316 9.9909C19.1615 9.9909 18.6196 9.44903 18.6196 8.7789C18.6196 8.10877 19.1615 7.56689 19.8316 7.56689C20.4986 7.56689 21.0436 8.10877 21.0436 8.7789Z" fill="white"/>
<path opacity="0.4" d="M39.8102 12.7612C37.7229 21.335 35.0007 31.3325 31.0889 31.3325C27.1804 31.3325 29.1779 24.4645 26.0485 22.7266H24.6377C24.2337 22.951 23.9163 23.2589 23.6598 23.6276V23.6308C21.9252 26.1221 23.0025 31.3325 19.5973 31.3325C17.7825 31.3325 16.221 29.1778 14.8647 26.0131C16.4102 26.9686 18.645 26.8083 19.9276 25.4841C20.6298 24.7594 21.0306 23.8071 21.5404 22.9382C22.0502 22.0725 22.7588 21.226 23.7367 20.9855C25.1379 20.6393 26.4974 21.6397 27.501 22.6785C28.5046 23.7174 29.5242 24.9262 30.9479 25.1634C32.8236 25.4745 34.4909 23.9643 35.6131 22.4284C37.3766 20.0204 38.5982 17.2341 39.2427 14.3227C39.807 11.7705 39.9545 9.08354 39.5826 6.4928C39.371 5.01466 38.8612 3.61028 38.4796 2.17383C39.5409 3.29605 40.3008 4.91206 40.4323 7.2527C40.5188 8.76611 40.3393 10.5841 39.8102 12.7612Z" fill="#D6F5FF"/>
</g>
<defs>
<clipPath id="clip0_185_1526">
<rect width="50" height="31.3326" fill="white"/>
</clipPath>
</defs>
</svg>
