<svg width="22" height="22" viewBox="0 0 22 22" fill="none" xmlns="http://www.w3.org/2000/svg">
<circle cx="11" cy="11" r="9" fill="white"/>
<path d="M10.9997 1.83325C5.95801 1.83325 1.83301 5.95825 1.83301 10.9999C1.83301 16.0416 5.95801 20.1666 10.9997 20.1666C16.0413 20.1666 20.1663 16.0416 20.1663 10.9999C20.1663 5.95825 16.0413 1.83325 10.9997 1.83325ZM13.7497 11.9166H10.9997C10.4497 11.9166 10.083 11.5499 10.083 10.9999V6.41659C10.083 5.86659 10.4497 5.49992 10.9997 5.49992C11.5497 5.49992 11.9163 5.86659 11.9163 6.41659V10.0833H13.7497C14.2997 10.0833 14.6663 10.4499 14.6663 10.9999C14.6663 11.5499 14.2997 11.9166 13.7497 11.9166Z" fill="#10C965"/>
</svg>
